<?xml version="1.0" encoding="UTF-8"?>
<!DOCTYPE svg PUBLIC "-//W3C//DTD SVG 1.1//EN" "http://www.w3.org/Graphics/SVG/1.1/DTD/svg11.dtd">
<!-- Creator: CorelDRAW 2020 -->
<svg xmlns="http://www.w3.org/2000/svg" xml:space="preserve" width="0.29785in" height="0.35in" version="1.1" style="shape-rendering:geometricPrecision; text-rendering:geometricPrecision; image-rendering:optimizeQuality; fill-rule:evenodd; clip-rule:evenodd"
viewBox="0 0 82.05 96.42"
 xmlns:xlink="http://www.w3.org/1999/xlink"
 xmlns:xodm="http://www.corel.com/coreldraw/odm/2003">
 <defs>
  <style type="text/css">
   <![CDATA[
    .fil0 {fill:#EFB9AF}
   ]]>
  </style>
 </defs>
 <g id="Layer_x0020_1">
  <metadata id="CorelCorpID_0Corel-Layer"/>
  <g id="_-2138038248">
   <path class="fil0" d="M48.21 36.89c-15.4,2.12 -28.24,15.91 -25.69,33.9 2.14,15.03 16.13,27.81 33.81,25.33 14.99,-2.1 27.8,-16.15 25.4,-33.79 -2.02,-14.94 -16.05,-27.84 -33.52,-25.43zm-0.19 4.14c-12.76,2.1 -24.03,14.31 -21.35,29.81 2.2,12.76 14.52,23.61 29.85,21.09 12.61,-2.07 23.46,-14.28 21.07,-29.67 -1.97,-12.68 -14.49,-23.7 -29.57,-21.23z"/>
   <path class="fil0" d="M66.8 10.8c-15.77,4.34 -9.29,27.72 6.44,23.46 5.4,-1.46 10.45,-7.31 8.32,-14.75 -1.54,-5.36 -7.32,-10.77 -14.76,-8.72zm0.07 4.31c-8.77,3.34 -4.7,18.89 5.84,15.06 9.21,-3.35 5.07,-19.22 -5.84,-15.06z"/>
   <path class="fil0" d="M38.46 0.54c-11.31,4.01 -5.94,21.89 6.3,17.41 3.99,-1.46 6.99,-6.54 5.28,-11.62 -1.35,-4 -6,-7.76 -11.57,-5.78zm0.59 4.34c-6.14,3.31 -0.99,11.68 4.57,9 5.82,-2.8 1.55,-12.31 -4.57,-9z"/>
   <path class="fil0" d="M5.84 34.55c-11.33,4.52 -4.58,21.38 6.61,17.11 11.28,-4.31 4.84,-21.68 -6.61,-17.11zm1.96 3.67c-7.06,2.24 -3.11,11.68 3.24,9.6 5.82,-1.91 3.26,-11.66 -3.24,-9.6z"/>
   <path class="fil0" d="M70.06 65.29l3.17 -0c-0.71,-10.72 -8.32,-20.09 -19.51,-19.71 -2.3,6.41 2.37,1.89 9.58,7.45 6.13,4.72 4.36,9.68 6.76,12.27z"/>
  </g>
 </g>
</svg>
