<?xml version="1.0" encoding="UTF-8"?>
<!DOCTYPE svg PUBLIC "-//W3C//DTD SVG 1.1//EN" "http://www.w3.org/Graphics/SVG/1.1/DTD/svg11.dtd">
<!-- Creator: CorelDRAW 2020 -->
<svg xmlns="http://www.w3.org/2000/svg" xml:space="preserve" width="0.257945in" height="0.35in" version="1.1" style="shape-rendering:geometricPrecision; text-rendering:geometricPrecision; image-rendering:optimizeQuality; fill-rule:evenodd; clip-rule:evenodd"
viewBox="0 0 61.54 83.5"
 xmlns:xlink="http://www.w3.org/1999/xlink"
 xmlns:xodm="http://www.corel.com/coreldraw/odm/2003">
 <defs>
  <style type="text/css">
   <![CDATA[
    .fil0 {fill:#EFB9AF}
   ]]>
  </style>
 </defs>
 <g id="Layer_x0020_1">
  <metadata id="CorelCorpID_0Corel-Layer"/>
  <g id="_1168358608">
   <path class="fil0" d="M55.61 71.16c6.75,-10.18 7.8,-21.31 2.83,-34.83 -2.02,-5.51 -4.55,-10.07 -7.45,-14.61 -4.13,-6.49 -5.4,-7.53 -9.71,-13.05 -3.23,-4.15 -8.44,-10.65 -13.05,-8.08 -2.37,1.32 -9.02,9.57 -10.89,11.94 -5.62,7.12 -12.76,18.06 -15.81,29 -8.43,30.22 19.6,49.15 41.45,39.4 7.17,-3.76 7.85,-3.98 12.62,-9.77zm-26.3 -67.42c-8.01,6.39 -22.57,26.24 -25.69,41.24 -6.94,33.35 34.06,47.9 50.3,23.44 5.14,-7.75 6.27,-16.58 3.12,-27.26 -4.43,-15.01 -13.05,-25.16 -22.43,-35.47 -1.71,-1.87 -2.64,-4.06 -5.3,-1.94z"/>
   <path class="fil0" d="M32.17 74.61c-1.24,-2.42 -0.22,-1.39 -4,-1.96 -5.4,-0.81 -8.13,-2.15 -11.81,-5.99 -9.77,-10.22 -2.11,-14.37 -8.16,-15.48 -2.74,6.38 3.82,18.74 13.88,22.89 2.83,1.17 7.59,2.98 10.08,0.53z"/>
  </g>
 </g>
</svg>
