<?xml version="1.0" encoding="utf-8"?>
<!-- Generator: Adobe Illustrator 23.0.6, SVG Export Plug-In . SVG Version: 6.00 Build 0)  -->
<svg version="1.1" xmlns="http://www.w3.org/2000/svg" xmlns:xlink="http://www.w3.org/1999/xlink" x="0px" y="0px"
	 viewBox="0 0 138.4 46" style="enable-background:new 0 0 138.4 46;" xml:space="preserve">
<style type="text/css">
	.st0{enable-background:new    ;}
	.st1{fill-rule:evenodd;clip-rule:evenodd;}
	.st2{fill:#F0888C;}
</style>
<g id="beautifo_1_" class="st0">
	<g id="beautifo">
		<g>
			<path class="st1" d="M9.9,34.8c0.8-0.4,1.5-1,2.1-1.7c0.5-0.7,0.8-1.5,0.8-2.5c0-0.9-0.3-1.7-0.7-2.5c-0.5-0.8-1.3-1.4-2.3-1.9
				c-1-0.5-2.3-0.7-3.9-0.7H0V45h6.1c2.5,0,4.4-0.5,5.7-1.5c1.3-1,1.9-2.4,1.9-4.1c0-1.1-0.3-2.1-1-2.9C12,35.8,11.1,35.2,9.9,34.8z
				 M4.1,27.5h1.7c0.9,0,1.6,0.3,2.2,0.8c0.5,0.5,0.8,1.4,0.8,2.5c0,1.2-0.2,2-0.7,2.6c-0.5,0.5-1,0.8-1.5,0.8H4.1V27.5z M8.6,42.1
				c-0.6,0.6-1.5,0.9-2.5,0.9H4.1V36h2.7c1.8,0,2.7,1.1,2.7,3.3C9.5,40.5,9.2,41.5,8.6,42.1z M22.7,36.2h6.7v-2.1h-6.7v-6.4h7.6
				v-2.2H18.6V45h12.1v-2.2h-8V36.2z M70,37c0,2.1-0.3,3.6-1,4.6c-0.6,1-1.6,1.5-3,1.5c-1.3,0-2.2-0.5-2.8-1.4
				c-0.6-0.9-0.9-2.5-0.9-4.6V25.5h-4.2v12.4c0,2.3,0.6,4.2,1.8,5.5c1.2,1.3,3,1.9,5.4,1.9c2.5,0,4.3-0.6,5.5-1.9
				c1.1-1.3,1.7-3.1,1.7-5.5V25.5H70V37z M76.6,27.7h5.2V45H86V27.7h5.2v-2.2H76.6V27.7z M95.4,45h4.1V25.5h-4.1V45z M105.7,45h4.1
				v-8h6.7v-2.1h-6.7v-7.2h7.7v-2.2h-11.8V45z M136,27.9c-1.6-1.8-3.7-2.7-6.6-2.7c-2.8,0-5,0.9-6.5,2.7c-1.5,1.8-2.3,4.3-2.3,7.4
				c0,3.1,0.8,5.6,2.3,7.4c1.5,1.8,3.7,2.7,6.5,2.7c2.8,0,5-0.9,6.6-2.7c1.5-1.8,2.3-4.2,2.3-7.3C138.4,32.2,137.6,29.7,136,27.9z
				 M132.8,41.3c-0.7,1.3-1.8,1.9-3.3,1.9c-1.5,0-2.6-0.6-3.3-1.9c-0.7-1.2-1-3.3-1-6c0-2.8,0.3-4.8,1-6c0.7-1.3,1.8-1.9,3.3-1.9
				c1.5,0,2.6,0.6,3.3,1.9c0.7,1.3,1,3.3,1,6C133.8,38.1,133.4,40.1,132.8,41.3z"/>
		</g>
	</g>
</g>
<g id="Shape_1_1_" class="st0">
	<g id="Shape_1">
		<g>
			<path class="st2" d="M57.7,17.2c0.9-8-1.3-10.9-5.8-17.2c5.2,8,6.5,11.4,2.6,20.9c-0.7,1.6-1.4,3.1-2.3,4.6
				c1.1-3.2,0.6-7.6-3.5-10.2c-0.1,4.1-2.9,9.7,0.7,11.9c0.4-1.3,0.7-3.3,0.6-7.3c0.6,2.2,0.7,4.6,0.1,6.8
				C48.8,32,42.8,38,37.8,42.5c2.1-4.7,1.4-3.3,4.9-11.4c0.5,1.3,1,2.4,1.3,3.3c1-1.1,2-2.3,2.8-3.4l-2.5-6.1h-1.4l-9.2,21.1h2.6
				l0,0l1.2,0c3.3-2.7,5.9-4.9,8.2-7.3c0.3,0.9,0.7,1.8,1.3,3.2c0.4,0.9,0.8,1.6,1.3,2.2c0.5,0.5,1,1,1.6,1.2
				c0.6,0.3,1.1,0.5,1.7,0.6c0.6,0.1,1.1,0.1,1.6,0.1c0.2,0,0.5,0,0.8,0c0.3,0,0.5-0.1,0.7-0.1V45c-0.7-0.1-1.3-0.4-1.9-1
				c-0.5-0.6-1-1.3-1.4-2.2v0l-2.7-6.6c3.4-4.4,5.1-6.7,8.8-15.5c0.8-1.9,2.1-3.9,4.4-4.7c-2.2,1.4-3.3,3.6-3.7,4.7
				c3.2,0.9,3.8-4.3,6.5-6.4C60.3,13.5,58.8,14.8,57.7,17.2z"/>
		</g>
	</g>
</g>
</svg>
