<?xml version="1.0" encoding="UTF-8"?>
<!DOCTYPE svg PUBLIC "-//W3C//DTD SVG 1.1//EN" "http://www.w3.org/Graphics/SVG/1.1/DTD/svg11.dtd">
<!-- Creator: CorelDRAW 2020 -->
<svg xmlns="http://www.w3.org/2000/svg" xml:space="preserve" width="0.349795in" height="0.35in" version="1.1" style="shape-rendering:geometricPrecision; text-rendering:geometricPrecision; image-rendering:optimizeQuality; fill-rule:evenodd; clip-rule:evenodd"
viewBox="0 0 33.75 33.77"
 xmlns:xlink="http://www.w3.org/1999/xlink"
 xmlns:xodm="http://www.corel.com/coreldraw/odm/2003">
 <defs>
  <style type="text/css">
   <![CDATA[
    .fil0 {fill:#EFB9AF}
   ]]>
  </style>
 </defs>
 <g id="Layer_x0020_1">
  <metadata id="CorelCorpID_0Corel-Layer"/>
  <path class="fil0" d="M28.96 27.22c-0.38,0.01 -1.44,0.39 -1.73,0.28 -0.23,-0.09 -0.41,-0.38 -0.25,-0.69 0.13,-0.24 0.37,-0.25 0.71,-0.32l2.55 -0.54c0.34,-0.07 0.61,-0.11 0.78,0.17 0.15,0.24 0.01,0.58 -0.04,0.84 -0.06,0.28 -0.12,0.57 -0.18,0.85 -0.12,0.58 -0.25,1.15 -0.37,1.72 -0.19,0.87 -1.06,0.53 -0.98,-0.06 0.06,-0.44 0.34,-1.4 0.36,-1.72 -0.14,0.14 -0.3,0.33 -0.42,0.48l-1.13 1.14c-0.09,0.08 -0.17,0.13 -0.26,0.22 -0.48,0.47 -1.49,1.19 -2.09,1.57 -1.42,0.92 -3.27,1.73 -5.19,2.17 -5.27,1.22 -10.48,-0.17 -14.3,-3.19l-1.44 -1.28c-0.83,-0.84 -1.41,-1.5 -2.09,-2.51 -1.57,-2.31 -2.66,-5.26 -2.85,-8.21 -0.26,-4.19 0.9,-8.16 3.3,-11.33 0.14,-0.18 0.25,-0.35 0.39,-0.51 1.03,-1.24 1.95,-2.14 3.32,-3.13 3.12,-2.27 7.44,-3.52 11.47,-3.06 2.65,0.3 4.78,1.01 6.91,2.25 1.1,0.64 1.48,0.99 2.42,1.73 0.69,0.55 1.46,1.4 2.04,2.08 0.74,0.86 1.3,1.77 1.86,2.77 1.16,2.07 1.88,4.79 1.98,7.21 0.02,0.54 0.14,1.31 -0.55,1.23 -0.25,-0.03 -0.4,-0.24 -0.4,-0.5 -0.03,-0.99 -0.04,-1.52 -0.21,-2.54 -0.5,-3.06 -1.67,-5.32 -3.45,-7.57 -0.07,-0.08 -0.15,-0.18 -0.21,-0.25 -0.36,-0.4 -0.7,-0.81 -1.11,-1.16l-0.5 -0.44c-0.2,-0.2 -0.75,-0.6 -1.01,-0.81 -0.94,-0.73 -2.43,-1.53 -3.56,-1.98 -5.39,-2.13 -11.21,-1.18 -15.68,2.28 -0.43,0.33 -1.06,0.9 -1.46,1.3 -0.55,0.55 -0.79,0.86 -1.29,1.47 -0.52,0.65 -1,1.42 -1.46,2.24 -0.86,1.54 -1.51,3.56 -1.76,5.57 -0.27,2.24 -0.05,4.57 0.58,6.57 0.67,2.17 1.87,4.32 3.3,5.87l0.43 0.48c0.31,0.34 0.63,0.6 0.94,0.9l0.51 0.43c0.32,0.26 0.68,0.55 1.06,0.79 1.49,0.98 3.01,1.76 5.04,2.29 2.11,0.54 4.42,0.64 6.64,0.26 2.01,-0.34 3.87,-1.08 5.38,-1.98 1.17,-0.7 2.14,-1.46 3.1,-2.41 0.14,-0.14 0.32,-0.3 0.45,-0.45 0.14,-0.16 0.29,-0.35 0.43,-0.5z"/>
  <path class="fil0" d="M16.13 16.17l-1.01 -1.02c-0.1,-0.09 -0.14,-0.15 -0.24,-0.24 -0.1,-0.09 -0.14,-0.15 -0.26,-0.26 -0.48,-0.45 -1.52,-1.52 -2.03,-2.03 -0.49,-0.49 0.16,-1.19 0.67,-0.7l1.53 1.53c0.56,0.56 1.5,1.53 2.04,2.04l1.02 -1.01c0.35,-0.35 0.67,-0.67 1.02,-1.01 0.35,-0.35 0.67,-0.67 1.01,-1.02 0.18,-0.18 0.33,-0.34 0.51,-0.52 0.51,-0.5 1.19,0.17 0.71,0.68 -0.71,0.75 -1.78,1.78 -2.54,2.55 -0.18,0.18 -0.34,0.34 -0.51,0.52 -0.15,0.15 -0.4,0.37 -0.5,0.52 0.14,0.17 0.33,0.34 0.49,0.5l2.54 2.54c0.26,0.26 0.66,0.57 0.69,0.84 0.04,0.45 -0.46,0.72 -0.82,0.39l-3.31 -3.32c-0.13,-0.13 -0.12,-0.09 -0.25,-0.26 -0.19,0.08 -3.18,3.16 -3.61,3.57 -0.49,0.46 -1.15,-0.17 -0.71,-0.68 0.31,-0.35 2.11,-2.11 2.56,-2.56 0.18,-0.18 0.33,-0.34 0.51,-0.51 0.11,-0.11 0.46,-0.41 0.5,-0.53z"/>
  <path class="fil0" d="M2.29 17.14c-0.26,-0.07 -0.46,-0.31 -0.35,-0.65 0.11,-0.3 0.35,-0.31 0.73,-0.3 0.34,0 1.86,-0.04 2.07,0.02 0.43,0.13 0.45,0.74 0.06,0.91 -0.22,0.1 -2.38,0.06 -2.52,0.02z"/>
  <path class="fil0" d="M27.98 17.14c-0.26,-0.07 -0.48,-0.31 -0.35,-0.65 0.12,-0.31 0.38,-0.3 0.73,-0.3 0.34,0 1.87,-0.04 2.07,0.02 0.43,0.13 0.45,0.73 0.06,0.9 -0.14,0.06 -0.3,0.05 -0.46,0.05 -0.35,-0 -1.83,0.04 -2.05,-0.02z"/>
  <path class="fil0" d="M24.57 8.85c-0.33,-0.07 -0.52,-0.44 -0.32,-0.76 0.08,-0.13 1.07,-1.09 1.26,-1.28 0.15,-0.16 0.42,-0.53 0.77,-0.47 0.34,0.06 0.51,0.46 0.31,0.77 -0.11,0.16 -0.47,0.48 -0.63,0.64 -0.22,0.22 -0.41,0.42 -0.64,0.64 -0.15,0.14 -0.44,0.54 -0.76,0.47z"/>
  <path class="fil0" d="M6.32 26.98c-0.33,-0.16 -0.45,-0.5 -0.17,-0.8 0.2,-0.22 0.42,-0.42 0.64,-0.64 0.21,-0.22 0.41,-0.41 0.62,-0.62 0.16,-0.16 0.43,-0.54 0.82,-0.4 0.32,0.12 0.38,0.56 0.16,0.81l-1.26 1.26c-0.14,0.14 -0.46,0.56 -0.81,0.4z"/>
  <path class="fil0" d="M16.19 31.07c-0.3,-0.11 -0.34,-0.32 -0.33,-0.7 0,-0.31 -0.02,-1.87 0.01,-2.05 0.05,-0.28 0.31,-0.47 0.62,-0.38 0.3,0.09 0.34,0.34 0.34,0.7l-0.01 2.06c-0.04,0.27 -0.31,0.48 -0.63,0.37z"/>
  <path class="fil0" d="M15.85 4.44l0 -1.61c0,-0.37 0.18,-0.66 0.58,-0.58 0.39,0.07 0.39,0.42 0.39,0.83l-0 1.82c0,0.34 -0.29,0.64 -0.67,0.48 -0.35,-0.14 -0.3,-0.5 -0.3,-0.94z"/>
  <path class="fil0" d="M26.05 26.99c-0.21,-0.07 -1.12,-1.06 -1.29,-1.23 -0.13,-0.13 -0.54,-0.48 -0.59,-0.69 -0.08,-0.37 0.25,-0.67 0.63,-0.57 0.15,0.04 0.24,0.18 0.33,0.27l0.95 0.95c0.14,0.13 0.19,0.19 0.32,0.32 0.09,0.1 0.23,0.18 0.27,0.37 0.09,0.37 -0.26,0.69 -0.62,0.57z"/>
  <path class="fil0" d="M7.97 8.85c-0.24,-0.04 -0.55,-0.43 -0.69,-0.56 -0.18,-0.18 -1.2,-1.15 -1.25,-1.29 -0.14,-0.37 0.17,-0.73 0.54,-0.66 0.23,0.04 0.52,0.4 0.68,0.56 0.2,0.2 0.42,0.44 0.63,0.64 0.13,0.13 0.56,0.52 0.61,0.66 0.13,0.37 -0.17,0.72 -0.53,0.66z"/>
 </g>
</svg>
