<?xml version="1.0" encoding="UTF-8"?>
<!DOCTYPE svg PUBLIC "-//W3C//DTD SVG 1.1//EN" "http://www.w3.org/Graphics/SVG/1.1/DTD/svg11.dtd">
<!-- Creator: CorelDRAW 2020 -->
<svg xmlns="http://www.w3.org/2000/svg" xml:space="preserve" width="0.333339in" height="0.351283in" version="1.1" style="shape-rendering:geometricPrecision; text-rendering:geometricPrecision; image-rendering:optimizeQuality; fill-rule:evenodd; clip-rule:evenodd"
viewBox="0 0 48.4 51.01"
 xmlns:xlink="http://www.w3.org/1999/xlink"
 xmlns:xodm="http://www.corel.com/coreldraw/odm/2003">
 <defs>
  <style type="text/css">
   <![CDATA[
    .fil0 {fill:#EFB9AF}
   ]]>
  </style>
 </defs>
 <g id="Layer_x0020_1">
  <metadata id="CorelCorpID_0Corel-Layer"/>
  <path class="fil0" d="M15.81 15.46c1.65,1.72 9.83,-0.14 13.47,9.29 1.72,4.46 -0.19,5.22 2.07,5.74 1.13,-1.52 0.22,-9.86 9.25,-13.48 4.59,-1.84 5.22,0.5 5.71,-2.33 -2.76,-0.84 -9.99,-0.32 -13.45,-8.83 -1.25,-3.06 -0.45,-4.51 -1.5,-5.86 -2.24,0.86 -0.31,5.76 -5.07,10.56 -5.1,5.14 -9.53,2.51 -10.48,4.91zm6.05 -0.34c0.08,0.07 0.22,0.05 0.27,0.18l2.56 1.48c0.97,0.64 1.84,1.39 2.59,2.13 2.04,2.02 2.36,2.87 3.78,5.63 1.45,-2.26 1.9,-3.99 3.57,-5.66 1.66,-1.66 3.48,-2.18 5.68,-3.6 -8.96,-4.96 -6.44,-6.05 -9.48,-9.29 -0.99,4.28 -5.03,7.63 -8.96,9.13z"/>
  <path class="fil0" d="M25.52 39.73c1.24,1.29 7.38,-0.1 10.11,6.97 1.29,3.35 -0.14,3.92 1.55,4.3 0.85,-1.14 0.16,-7.4 6.94,-10.11 3.45,-1.38 3.92,0.38 4.28,-1.75 -2.07,-0.63 -7.5,-0.24 -10.1,-6.63 -0.94,-2.3 -0.33,-3.39 -1.12,-4.39 -1.68,0.64 -0.23,4.32 -3.8,7.92 -3.82,3.86 -7.15,1.89 -7.86,3.68zm4.54 -0.26c0.06,0.05 0.17,0.03 0.2,0.13l1.92 1.11c0.72,0.48 1.38,1.05 1.94,1.6 1.53,1.52 1.77,2.15 2.84,4.22 1.09,-1.7 1.43,-3 2.68,-4.25 1.25,-1.25 2.61,-1.63 4.26,-2.7 -6.72,-3.72 -4.84,-4.54 -7.12,-6.97 -0.74,3.21 -3.78,5.72 -6.72,6.85z"/>
  <path class="fil0" d="M-0 29.62c1.24,1.29 7.38,-0.1 10.11,6.97 1.29,3.35 -0.14,3.92 1.55,4.3 0.85,-1.14 0.16,-7.4 6.94,-10.11 3.45,-1.38 3.92,0.38 4.28,-1.75 -2.07,-0.63 -7.5,-0.24 -10.1,-6.63 -0.94,-2.3 -0.33,-3.39 -1.12,-4.39 -1.68,0.64 -0.24,4.32 -3.8,7.92 -3.82,3.86 -7.15,1.89 -7.86,3.68zm4.54 -0.26c0.06,0.05 0.17,0.03 0.2,0.13l1.92 1.11c0.72,0.48 1.38,1.05 1.94,1.6 1.53,1.52 1.77,2.15 2.84,4.22 1.09,-1.7 1.43,-3 2.68,-4.25 1.25,-1.25 2.61,-1.63 4.26,-2.7 -6.72,-3.72 -4.84,-4.54 -7.12,-6.97 -0.74,3.21 -3.78,5.72 -6.72,6.85z"/>
 </g>
</svg>
