<?xml version="1.0" encoding="utf-8"?>
<!-- Generator: Adobe Illustrator 23.0.6, SVG Export Plug-In . SVG Version: 6.00 Build 0)  -->
<svg version="1.1" id="Layer_1" xmlns="http://www.w3.org/2000/svg" xmlns:xlink="http://www.w3.org/1999/xlink" x="0px" y="0px"
	 viewBox="0 0 183 59" style="enable-background:new 0 0 183 59;" xml:space="preserve">
<g>
	<g>
		<path d="M72.6,24.8c-0.3,0-0.7,0-1.4,0c-0.6,0-1.3,0-2,0c-0.5,0-1,0-1.5,0c-0.5,0-0.9,0-1.2,0v0.4c0.5,0,0.9,0.1,1.1,0.2
			c0.3,0.1,0.4,0.3,0.5,0.5c0.1,0.3,0.1,0.7,0.1,1.2v11c0,0.5,0,0.9-0.1,1.2c-0.1,0.3-0.3,0.4-0.5,0.5C67.4,39.9,67,40,66.5,40v0.4
			c0.3,0,0.7,0,1.2-0.1c0.5,0,1,0,1.6,0c0.6,0,1.2,0,1.8,0c0.6,0,1.1,0,1.5,0.1V40c-0.6,0-1.1-0.1-1.4-0.2c-0.3-0.1-0.5-0.3-0.7-0.5
			c-0.1-0.3-0.2-0.7-0.2-1.2v-4h1.7c1.2,0,2.1-0.2,2.9-0.5c0.8-0.3,1.4-0.7,1.8-1.2c0.4-0.5,0.7-1,0.9-1.6c0.2-0.6,0.3-1.1,0.3-1.7
			c0-1.3-0.4-2.3-1.3-3.1C75.7,25.2,74.4,24.8,72.6,24.8z M75.4,31.5c-0.2,0.7-0.6,1.2-1.1,1.6c-0.6,0.4-1.4,0.6-2.4,0.6h-1.5v-6.6
			c0-0.8,0.1-1.3,0.3-1.5c0.2-0.3,0.7-0.4,1.3-0.4c1.4,0,2.3,0.3,2.9,1c0.6,0.7,0.8,1.7,0.8,3.1C75.7,30.1,75.6,30.8,75.4,31.5z
			 M88.5,40.5c0.4,0,0.8-0.1,1.2-0.1c0.5,0,0.9,0,1.4,0.1V40c-0.6,0-1.1-0.2-1.3-0.5s-0.4-0.8-0.4-1.5v-9.3
			c-0.3,0.1-0.7,0.2-1.1,0.2c-0.4,0.1-0.8,0.1-1.2,0.1c-0.4,0-0.9,0-1.4-0.1v0.5c0.7,0,1.1,0.2,1.3,0.5c0.2,0.3,0.4,0.8,0.4,1.5V36
			c0,1.1-0.3,2.1-0.8,2.8C86,39.7,85.2,40,84.4,40c-0.5,0-0.9-0.1-1.2-0.4c-0.2-0.2-0.4-0.5-0.4-0.9c-0.1-0.4-0.1-0.8-0.1-1.3v-8.7
			C82.3,28.9,82,29,81.6,29c-0.4,0.1-0.8,0.1-1.2,0.1c-0.4,0-0.9,0-1.4-0.1v0.5c0.7,0,1.1,0.2,1.3,0.5c0.2,0.3,0.4,0.8,0.4,1.5V37
			c0,0.7,0.1,1.3,0.2,1.8c0.1,0.5,0.3,0.9,0.6,1.2c0.3,0.3,0.6,0.5,1,0.6c0.4,0.1,0.8,0.2,1.4,0.2c0.7,0,1.4-0.2,2.1-0.6
			c0.7-0.4,1.2-1.1,1.6-2v2.6C87.7,40.6,88.1,40.5,88.5,40.5z M98.3,40c-0.7,0-1.3-0.1-1.7-0.4c-0.4-0.2-0.6-0.7-0.6-1.5v-4.7
			c0-0.5,0.1-1.1,0.4-1.8c0.3-0.6,0.6-1.2,1.1-1.7c0.5-0.5,1-0.7,1.6-0.7c0.2,0,0.4,0.1,0.5,0.2c-0.2,0.1-0.4,0.3-0.5,0.5
			c-0.2,0.2-0.2,0.4-0.2,0.7c0,0.4,0.1,0.7,0.4,0.9c0.2,0.2,0.5,0.3,0.8,0.3c0.4,0,0.7-0.1,0.9-0.4c0.2-0.3,0.3-0.6,0.3-1
			c0-0.3-0.1-0.6-0.3-0.9c-0.2-0.3-0.4-0.5-0.7-0.6c-0.3-0.2-0.7-0.2-1.1-0.2c-0.5,0-1,0.1-1.4,0.4c-0.4,0.3-0.8,0.7-1.1,1.1
			c-0.3,0.4-0.5,0.9-0.7,1.3v-2.8c-0.3,0.1-0.7,0.2-1.1,0.2c-0.4,0.1-0.8,0.1-1.2,0.1c-0.4,0-0.9,0-1.4-0.1v0.5
			c0.7,0,1.1,0.2,1.3,0.5c0.2,0.3,0.4,0.8,0.4,1.5v6.9c0,0.6-0.1,1-0.4,1.3c-0.3,0.2-0.7,0.3-1.3,0.3v0.5c0.3,0,0.6,0,1.1-0.1
			c0.5,0,1,0,1.5,0c0.7,0,1.4,0,2,0c0.6,0,1.1,0,1.4,0.1V40z M111.4,37.8l-0.4-0.2c-0.4,0.8-0.9,1.4-1.4,1.7
			c-0.6,0.3-1.2,0.5-1.8,0.5c-0.6,0-1.1-0.2-1.6-0.6c-0.5-0.4-1-0.9-1.3-1.7c-0.3-0.7-0.5-1.6-0.5-2.6c0-0.3,0-0.5,0-0.8
			c0-0.2,0-0.4,0.1-0.6h7c0-1.7-0.4-2.9-1.1-3.7c-0.7-0.8-1.8-1.2-3.1-1.2c-1,0-1.9,0.3-2.7,0.8c-0.8,0.5-1.3,1.2-1.8,2.2
			c-0.4,0.9-0.6,2.1-0.6,3.4c0,1.1,0.2,2.1,0.6,3c0.4,0.9,1,1.5,1.8,2c0.8,0.5,1.7,0.7,2.8,0.7c0.7,0,1.4-0.1,2-0.4
			c0.6-0.3,1-0.7,1.4-1.1C111,38.7,111.2,38.3,111.4,37.8z M105.2,30.2c0.5-0.7,1.1-1,1.8-1c0.5,0,0.9,0.2,1.2,0.6
			c0.3,0.4,0.6,0.9,0.7,1.5c0.1,0.6,0.2,1.3,0.2,2h-4.9C104.4,31.8,104.7,30.8,105.2,30.2z M127.8,36.1c0-0.6-0.1-1.2-0.4-1.7
			c-0.3-0.5-0.7-1-1.4-1.4c-0.7-0.4-1.6-0.7-2.8-0.8v0c0.8-0.3,1.5-0.6,2-1c0.5-0.4,0.9-0.9,1.1-1.4c0.2-0.5,0.3-1,0.3-1.5
			c0-1-0.4-1.9-1.2-2.5c-0.8-0.7-2-1-3.5-1c-0.3,0-0.7,0-1.4,0c-0.6,0-1.3,0-2,0c-0.5,0-1,0-1.5,0c-0.5,0-0.9,0-1.2,0v0.4
			c0.5,0,0.9,0.1,1.1,0.2c0.3,0.1,0.4,0.3,0.5,0.5c0.1,0.3,0.1,0.7,0.1,1.2v11c0,0.5,0,0.9-0.1,1.2c-0.1,0.3-0.3,0.4-0.5,0.5
			c-0.3,0.1-0.6,0.1-1.1,0.2v0.4c0.3,0,0.7,0,1.2-0.1c0.5,0,1,0,1.5,0c0.9,0,1.7,0,2.4,0c0.7,0,1.1,0,1.5,0c1.7,0,3-0.4,3.9-1.2
			C127.3,38.4,127.8,37.4,127.8,36.1z M119.7,27.1c0-0.8,0.1-1.3,0.3-1.5c0.2-0.3,0.7-0.4,1.3-0.4c1.1,0,1.9,0.3,2.4,0.8
			c0.5,0.6,0.7,1.4,0.7,2.5c0,0.6-0.1,1.2-0.3,1.8c-0.2,0.6-0.5,1-1,1.3c-0.5,0.3-1.2,0.5-2,0.5h-1.5V27.1z M124.6,38.9
			c-0.7,0.7-1.7,1-3.2,1c-0.7,0-1.1-0.1-1.3-0.3c-0.2-0.2-0.3-0.7-0.3-1.5v-5.6h1.9c1.4,0,2.4,0.3,3,0.9c0.6,0.6,0.9,1.5,0.9,2.6
			C125.5,37.3,125.2,38.3,124.6,38.9z M137.2,39.3c-0.6,0.3-1.2,0.5-1.8,0.5c-0.6,0-1.1-0.2-1.6-0.6c-0.5-0.4-1-0.9-1.3-1.7
			c-0.3-0.7-0.5-1.6-0.5-2.6c0-0.3,0-0.5,0-0.8c0-0.2,0-0.4,0.1-0.6h7c0-1.7-0.4-2.9-1.1-3.7c-0.7-0.8-1.8-1.2-3.1-1.2
			c-1,0-1.9,0.3-2.7,0.8c-0.8,0.5-1.3,1.2-1.8,2.2c-0.4,0.9-0.6,2.1-0.6,3.4c0,1.1,0.2,2.1,0.6,3c0.4,0.9,1,1.5,1.8,2
			c0.8,0.5,1.7,0.7,2.8,0.7c0.7,0,1.4-0.1,2-0.4c0.6-0.3,1-0.7,1.4-1.1c0.4-0.5,0.6-0.9,0.8-1.4l-0.4-0.2
			C138.3,38.4,137.8,39,137.2,39.3z M132.9,30.2c0.5-0.7,1.1-1,1.8-1c0.5,0,0.9,0.2,1.2,0.6c0.3,0.4,0.6,0.9,0.7,1.5
			c0.1,0.6,0.2,1.3,0.2,2H132C132.1,31.8,132.4,30.8,132.9,30.2z M150.4,39.7c-0.2,0.1-0.3,0.1-0.5,0.1c-0.3,0-0.4-0.1-0.5-0.3
			c-0.1-0.2-0.2-0.4-0.2-0.8v-6.2c0-0.7-0.1-1.3-0.2-1.8c-0.1-0.5-0.4-0.9-0.8-1.3c-0.3-0.3-0.6-0.5-1.1-0.6c-0.4-0.1-1-0.2-1.6-0.2
			c-0.7,0-1.3,0.1-1.8,0.3c-0.5,0.2-1,0.4-1.3,0.6c-0.3,0.2-0.5,0.4-0.7,0.7c-0.2,0.2-0.3,0.5-0.3,0.9c0,0.3,0.1,0.6,0.3,0.9
			c0.2,0.3,0.5,0.4,0.9,0.4c0.4,0,0.7-0.1,0.9-0.3c0.2-0.2,0.4-0.5,0.4-0.9c0-0.4-0.1-0.7-0.3-0.9c-0.2-0.2-0.5-0.4-0.7-0.4
			c0.3-0.3,0.6-0.5,1-0.6c0.4-0.1,0.8-0.2,1.2-0.2c0.4,0,0.7,0.1,1,0.2c0.3,0.1,0.6,0.3,0.7,0.7c0.2,0.3,0.3,0.8,0.3,1.4v1.4
			c0,0.3-0.2,0.6-0.5,0.8c-0.3,0.2-0.7,0.4-1.2,0.6c-0.5,0.2-1,0.4-1.5,0.5c-0.5,0.2-1,0.4-1.5,0.7c-0.5,0.3-0.9,0.6-1.2,1
			c-0.3,0.4-0.5,0.9-0.5,1.5c0,0.8,0.2,1.4,0.7,1.9c0.4,0.5,1.1,0.7,2.1,0.7c0.7,0,1.3-0.1,1.9-0.4c0.6-0.3,1.1-0.8,1.6-1.6
			c0,0.5,0.1,1,0.4,1.4c0.3,0.4,0.8,0.6,1.5,0.6c0.5,0,0.9-0.1,1.1-0.2c0.3-0.2,0.6-0.4,0.9-0.6l-0.2-0.4
			C150.7,39.5,150.6,39.6,150.4,39.7z M147.2,38c-0.4,0.6-0.8,1-1.2,1.3c-0.4,0.3-0.9,0.4-1.3,0.4c-0.5,0-0.9-0.2-1.3-0.5
			c-0.3-0.3-0.5-0.8-0.5-1.5c0-0.7,0.2-1.3,0.5-1.7c0.4-0.4,0.8-0.7,1.3-0.9c0.5-0.2,1-0.4,1.4-0.6c0.5-0.2,0.8-0.5,1-0.8V38z
			 M161.9,38.1v-9.3c-0.3,0.1-0.7,0.2-1.1,0.2c-0.4,0.1-0.8,0.1-1.2,0.1c-0.4,0-0.9,0-1.4-0.1v0.5c0.7,0,1.1,0.2,1.3,0.5
			c0.2,0.3,0.4,0.8,0.4,1.5V36c0,1.1-0.3,2.1-0.8,2.8c-0.6,0.8-1.3,1.2-2.2,1.2c-0.5,0-0.9-0.1-1.2-0.4c-0.2-0.2-0.4-0.5-0.4-0.9
			c-0.1-0.4-0.1-0.8-0.1-1.3v-8.7c-0.3,0.1-0.7,0.2-1.1,0.2c-0.4,0.1-0.8,0.1-1.2,0.1c-0.4,0-0.9,0-1.4-0.1v0.5
			c0.7,0,1.1,0.2,1.3,0.5c0.2,0.3,0.4,0.8,0.4,1.5V37c0,0.7,0.1,1.3,0.2,1.8c0.1,0.5,0.3,0.9,0.6,1.2c0.3,0.3,0.6,0.5,1,0.6
			c0.4,0.1,0.8,0.2,1.4,0.2c0.7,0,1.4-0.2,2.1-0.6c0.7-0.4,1.2-1.1,1.6-2v2.6c0.3-0.1,0.7-0.2,1.1-0.2c0.4,0,0.8-0.1,1.2-0.1
			c0.5,0,0.9,0,1.4,0.1V40c-0.6,0-1.1-0.2-1.3-0.5C162,39.2,161.9,38.7,161.9,38.1z M170.9,39.4c-0.3,0.4-0.7,0.5-1.2,0.5
			c-0.4,0-0.8-0.1-1-0.4c-0.3-0.3-0.4-0.8-0.4-1.5v-8.6h3.3v-0.4h-3.3v-3.7c-0.3,0.1-0.6,0.2-0.9,0.2c-0.3,0-0.7,0.1-1.1,0.1v3.4
			h-2.1v0.4h2.1v7.4c0,0.8,0.1,1.4,0.2,1.9c0.1,0.5,0.4,0.9,0.7,1.2c0.3,0.2,0.5,0.4,0.9,0.5c0.3,0.1,0.7,0.2,1.2,0.2
			c0.9,0,1.6-0.3,2-0.9c0.4-0.6,0.7-1.3,0.9-2.2l-0.4-0.1C171.5,38.4,171.2,39.1,170.9,39.4z M182.2,29.1c-0.3,0-0.6,0-0.9,0
			c-0.3,0-0.6,0-0.9,0c-0.3,0-0.6,0-1,0v0.4c0.8,0.1,1.3,0.2,1.5,0.5c0.2,0.3,0.2,0.8-0.1,1.6l-2.5,6.4l-2.7-6.6
			c-0.3-0.6-0.3-1.1-0.3-1.3c0.1-0.3,0.3-0.4,0.5-0.5c0.3-0.1,0.6-0.1,1-0.1V29c-0.4,0-0.9,0.1-1.4,0.1c-0.5,0-1,0-1.5,0
			c-0.4,0-0.8,0-1.2,0c-0.4,0-0.7-0.1-1-0.1v0.5c0.2,0,0.4,0.1,0.7,0.2c0.3,0.1,0.6,0.5,0.8,1.1l4,9.7l-0.8,2
			c-0.2,0.6-0.5,1-0.8,1.3c-0.3,0.3-0.7,0.4-1.1,0.4h-0.1c0,0,0,0-0.1,0c0.2-0.1,0.3-0.2,0.4-0.4c0.1-0.2,0.2-0.4,0.2-0.6
			c0-0.3-0.1-0.6-0.3-0.8c-0.2-0.2-0.5-0.3-0.8-0.3c-0.4,0-0.7,0.1-0.9,0.3c-0.2,0.2-0.3,0.5-0.3,0.9c0,0.3,0.1,0.5,0.2,0.7
			c0.1,0.2,0.3,0.4,0.5,0.5c0.2,0.1,0.5,0.2,0.8,0.2c0.3,0,0.6,0,0.9-0.1c0.3-0.1,0.6-0.2,0.8-0.5c0.4-0.3,0.7-0.8,1-1.6l0.8-1.9
			l3.7-9.5c0.2-0.6,0.4-1,0.7-1.2c0.2-0.2,0.5-0.3,0.8-0.4V29C182.8,29.1,182.5,29.1,182.2,29.1z M67.8,51.2l-1.5-2.5h-0.7l1.9,3.1
			v1.6h0.7v-1.6l1.9-3.1h-0.7L67.8,51.2z M76,48.9c-0.4-0.2-0.8-0.3-1.3-0.3c-0.5,0-0.9,0.1-1.3,0.3c-0.4,0.2-0.7,0.5-0.9,0.9
			c-0.2,0.4-0.3,0.8-0.3,1.2c0,0.5,0.1,0.9,0.3,1.2c0.2,0.4,0.5,0.7,0.9,0.9c0.4,0.2,0.8,0.3,1.3,0.3c0.5,0,0.9-0.1,1.3-0.3
			c0.4-0.2,0.7-0.5,0.9-0.9c0.2-0.4,0.3-0.8,0.3-1.2c0-0.5-0.1-0.9-0.3-1.2C76.6,49.4,76.3,49.1,76,48.9z M76.3,51.9
			c-0.2,0.3-0.4,0.5-0.7,0.6c-0.3,0.2-0.6,0.2-0.9,0.2c-0.3,0-0.7-0.1-0.9-0.2c-0.3-0.2-0.5-0.4-0.7-0.6c-0.2-0.3-0.2-0.6-0.2-0.9
			c0-0.3,0.1-0.7,0.2-0.9c0.2-0.3,0.4-0.5,0.7-0.6c0.3-0.2,0.6-0.2,0.9-0.2c0.3,0,0.7,0.1,0.9,0.2c0.3,0.2,0.5,0.4,0.7,0.6
			c0.2,0.3,0.2,0.6,0.2,0.9C76.5,51.4,76.4,51.7,76.3,51.9z M83.6,51.3c0,0.5-0.1,0.9-0.3,1.1c-0.2,0.2-0.6,0.4-1,0.4
			c-0.9,0-1.3-0.5-1.3-1.5v-2.7h-0.7v2.7c0,0.7,0.2,1.2,0.5,1.5c0.4,0.4,0.8,0.5,1.5,0.5c0.6,0,1.1-0.2,1.5-0.5
			c0.4-0.4,0.5-0.9,0.5-1.6v-2.7h-0.7V51.3z M91.2,51.2c0.2-0.3,0.3-0.6,0.3-0.9c0-0.5-0.2-0.9-0.5-1.2c-0.4-0.3-0.8-0.4-1.4-0.4
			h-1.8v4.7h0.7v-1.4h1.2c0.1,0,0.2,0,0.3,0l1,1.4h0.7l-1.1-1.6C90.8,51.7,91,51.5,91.2,51.2z M89.5,51.4h-1.2v-2.1h1.2
			c0.4,0,0.8,0.1,1,0.3c0.2,0.2,0.3,0.4,0.3,0.8c0,0.3-0.1,0.6-0.3,0.8C90.2,51.3,89.9,51.4,89.5,51.4z M100.9,51
			c-0.2-0.1-0.5-0.2-0.9-0.3c-0.3-0.1-0.5-0.1-0.7-0.2c-0.2-0.1-0.3-0.1-0.4-0.2c-0.1-0.1-0.2-0.2-0.2-0.4c0-0.2,0.1-0.4,0.3-0.5
			c0.2-0.1,0.5-0.2,0.9-0.2c0.2,0,0.4,0,0.7,0.1c0.2,0.1,0.4,0.2,0.6,0.3l0.2-0.5c-0.2-0.1-0.4-0.2-0.7-0.3
			c-0.3-0.1-0.5-0.1-0.8-0.1c-0.4,0-0.7,0.1-1,0.2c-0.3,0.1-0.5,0.3-0.6,0.5c-0.1,0.2-0.2,0.4-0.2,0.7c0,0.3,0.1,0.5,0.2,0.7
			c0.2,0.2,0.3,0.3,0.6,0.4c0.2,0.1,0.5,0.2,0.9,0.3c0.3,0.1,0.5,0.1,0.7,0.2c0.2,0.1,0.3,0.1,0.4,0.2c0.1,0.1,0.2,0.2,0.2,0.4
			c0,0.2-0.1,0.4-0.3,0.5c-0.2,0.1-0.5,0.2-0.9,0.2c-0.3,0-0.6-0.1-0.9-0.2c-0.3-0.1-0.5-0.2-0.7-0.4L98,52.8
			c0.2,0.2,0.5,0.3,0.8,0.4c0.3,0.1,0.7,0.2,1,0.2c0.4,0,0.7-0.1,1-0.2c0.3-0.1,0.5-0.3,0.6-0.5c0.1-0.2,0.2-0.4,0.2-0.7
			c0-0.3-0.1-0.5-0.2-0.7C101.3,51.2,101.1,51.1,100.9,51z M105.4,48.7h-0.7v4.7h3.2v-0.6h-2.6V48.7z M114.1,48.9
			c-0.4-0.2-0.8-0.3-1.3-0.3c-0.5,0-0.9,0.1-1.3,0.3c-0.4,0.2-0.7,0.5-0.9,0.9c-0.2,0.4-0.3,0.8-0.3,1.2c0,0.5,0.1,0.9,0.3,1.2
			c0.2,0.4,0.5,0.7,0.9,0.9c0.4,0.2,0.8,0.3,1.3,0.3c0.5,0,0.9-0.1,1.3-0.3c0.4-0.2,0.7-0.5,0.9-0.9c0.2-0.4,0.3-0.8,0.3-1.2
			c0-0.5-0.1-0.9-0.3-1.2C114.8,49.4,114.5,49.1,114.1,48.9z M114.4,51.9c-0.2,0.3-0.4,0.5-0.7,0.6c-0.3,0.2-0.6,0.2-0.9,0.2
			c-0.3,0-0.7-0.1-0.9-0.2c-0.3-0.2-0.5-0.4-0.7-0.6c-0.2-0.3-0.2-0.6-0.2-0.9c0-0.3,0.1-0.7,0.2-0.9c0.2-0.3,0.4-0.5,0.7-0.6
			c0.3-0.2,0.6-0.2,0.9-0.2c0.3,0,0.7,0.1,0.9,0.2c0.3,0.2,0.5,0.4,0.7,0.6c0.2,0.3,0.2,0.6,0.2,0.9
			C114.6,51.4,114.6,51.7,114.4,51.9z M119.6,49.4c0.3-0.2,0.6-0.2,1-0.2c0.5,0,1,0.2,1.4,0.5l0.4-0.4c-0.2-0.2-0.5-0.4-0.8-0.5
			c-0.3-0.1-0.7-0.2-1-0.2c-0.5,0-0.9,0.1-1.3,0.3c-0.4,0.2-0.7,0.5-0.9,0.9c-0.2,0.4-0.3,0.8-0.3,1.2c0,0.5,0.1,0.9,0.3,1.2
			c0.2,0.4,0.5,0.7,0.9,0.9c0.4,0.2,0.8,0.3,1.3,0.3c0.3,0,0.7-0.1,1-0.2c0.3-0.1,0.6-0.3,0.8-0.4V51h-0.7v1.5
			c-0.3,0.2-0.7,0.3-1.1,0.3c-0.4,0-0.7-0.1-1-0.2c-0.3-0.2-0.5-0.4-0.7-0.6c-0.2-0.3-0.2-0.6-0.2-0.9c0-0.3,0.1-0.7,0.2-0.9
			C119.1,49.8,119.3,49.6,119.6,49.4z M127.1,48.7l-2.1,4.7h0.7l0.5-1.2h2.5l0.5,1.2h0.7l-2.2-4.7H127.1z M126.4,51.7l1-2.3l1,2.3
			H126.4z M136,52.2l-2.8-3.5h-0.6v4.7h0.7v-3.5l2.8,3.5h0.6v-4.7H136V52.2z M147.4,50.7h-2.7v-2H144v4.7h0.7v-2.1h2.7v2.1h0.7v-4.7
			h-0.7V50.7z M152.2,51.3h2.4v-0.6h-2.4v-1.4h2.7v-0.6h-3.3v4.7h3.4v-0.6h-2.8V51.3z M161.7,51.2c0.2-0.3,0.3-0.6,0.3-0.9
			c0-0.5-0.2-0.9-0.5-1.2c-0.4-0.3-0.8-0.4-1.4-0.4h-1.8v4.7h0.7v-1.4h1.2c0.1,0,0.2,0,0.3,0l1,1.4h0.7l-1.1-1.6
			C161.3,51.7,161.5,51.5,161.7,51.2z M160,51.4h-1.2v-2.1h1.2c0.4,0,0.8,0.1,1,0.3c0.2,0.2,0.3,0.4,0.3,0.8c0,0.3-0.1,0.6-0.3,0.8
			C160.7,51.3,160.4,51.4,160,51.4z M165.8,51.3h2.4v-0.6h-2.4v-1.4h2.7v-0.6h-3.3v4.7h3.4v-0.6h-2.8V51.3z M49.5,34.2
			c0,0,0.1,0,0.1-0.1c0-0.2-0.1-0.7-0.2-0.9c-0.3-0.5-0.7-1-1.3-1.2c-0.6-0.3-1.4-0.3-2.1-0.2c-1.1,0.2-2.1,0.6-2.9,1.3
			c-0.2,0.2-0.4,0.3-0.5,0.5c-0.1,0.1,0,0.2,0.1,0.1c1.3-0.6,2.7-0.8,4.1-0.7c0.8,0.1,1.6,0.3,2.2,0.7C49.2,34,49.4,34.1,49.5,34.2z
			 M45.9,36.8c-0.9,0-1.8-0.2-2.6-0.7c0,0-0.1,0,0,0.1c0.6,0.6,1.4,1.1,2.2,1.4c0.6,0.2,1.4,0.3,2-0.1c0.4-0.2,0.6-0.5,0.8-0.9
			c0,0,0.1-0.2,0.1-0.3c0-0.1-0.1-0.2-0.1-0.1C47.5,36.6,46.7,36.8,45.9,36.8z M23,39.4c-0.4-0.1-0.9-0.1-1.4-0.2
			c-0.2,0-0.4,0-0.5,0c-1.6,0-3.2,0.3-4.7,0.9c-2.5,0.9-4.7,2.5-6.7,4.2c-2.8,2.4-5.3,5.1-8,7.6c-0.6,0.5-1.1,1-1.7,1.5
			c0.8,0.1,1.6,0.1,2.4,0.1c1.7,0,3.3-0.1,4.9-0.5c4-0.8,7.8-2.6,10.7-5.3C20.4,45.4,22.2,42.5,23,39.4z M15.4,37.1
			c2.4,0,4.8-0.5,6.9-1.6c5.4-2.7,8.4-8.7,13.4-11.9c2-1.3,4.3-2.1,6.7-2.4c0.5-0.1,1.1-0.1,1.7-0.1l0,0c-3.5-2.1-7.7-3.1-11.8-3.1
			c-1.5,0-3,0.1-4.5,0.4c-6.5,1.2-12.4,4.7-17.3,9.1c-1.6,1.5-3.2,3.1-5.2,4.3c-0.7,0.4-1.4,0.7-2.2,0.9c2.1,1.6,4.4,3,6.7,3.7
			C11.6,36.8,13.5,37.1,15.4,37.1z M24.4,17c0.2,0,0.5,0,0.7,0c1.8-0.1,3.5-0.6,5-1.4c0.6-0.3,1.1-0.6,1.6-1l0,0
			c-1.7-2.2-4.2-3.8-6.9-4.3c-1-0.2-2-0.3-3.1-0.3c-1.1,0-2.3,0.1-3.4,0.2c-2.5,0.2-4.9,0.4-7.4,0.6c1.4,1.2,2.8,2.4,4.4,3.4
			C18.1,15.8,21.2,17,24.4,17z M40.3,17.6c1.4,0.3,2.8,0.3,4.2,0.7c0.5,0.1,0.9,0.3,1.3,0.5c0.1,0,0.1,0.1,0.2,0.1
			c0.1,0,0.1,0.1,0.2,0.1c-0.4-0.8-0.7-1.6-1.1-2.4c-0.9-2-1.9-4.1-3.4-5.7c-2-2.2-4.7-3.5-7.3-4.7c-1.5-0.7-3-1.4-4.5-2.2l0,0
			c0.5,2.4,1.2,4.7,2.3,6.8C33.8,14,36.7,16.8,40.3,17.6z M49.4,22c0-1.5,0.5-3,1.2-4.3c0.7-1.5,1.4-2.9,1.9-4.4
			c0.4-1.2,0.5-2.5,0.5-3.8c0-1.3-0.2-2.5-0.4-3.7c-0.4-2-1.1-3.9-1.8-5.8c-0.1,0.1-0.1,0.2-0.2,0.3c-1.8,2.7-3.3,5.4-4.1,8.5
			c-0.7,3.1-0.5,6.4,0.6,9.3C47.8,19.5,48.5,20.8,49.4,22z M48.8,23L48.8,23C48.8,23,48.8,23,48.8,23c-0.1-0.1-0.3-0.2-0.5-0.3
			c0,0-0.1,0-0.1-0.1l0,0l0,0c-0.9-0.4-1.9-0.6-3.1-0.6c-0.8,0-1.8,0.1-2.8,0.4c-12.3,3.3-15.3,15.6-20.7,25.8
			c-2.2,4.2-4.8,8-8.6,10.8l0,0c0.4,0,0.9,0,1.3,0c4.5,0,9.1-1.4,13.1-3.9c3.9-2.4,7.2-5.6,9.3-9.5c2.2-3.7,3.4-7.9,4.4-12.1
			c0.9-3.4,1.3-8.3,4.6-10c0.4-0.2,0.8-0.3,1.3-0.3c0.7,0,1.5,0.3,2,0.8c1.9,1.9,2.4,4.9,2.1,7.6c-0.3,1.1-0.5,2.3-0.5,3.5
			c-0.2,2.2,1.3,4,2.3,5.7c1.5,2.4-0.6,1.8-1.2,3.2c-0.3,0.8,0.4,1.6,0.3,2.4c-0.2,0.7-1,1-1.6,1.3c0,0,0,0.1,0,0.1
			c1.8,0.8,1.4,1,0.2,2.2c-0.5,0.6-0.4,1.5-0.5,2.2c-0.1,1-0.5,1.6-1,2.1l0,0c-0.7,0.6-1.8,0.8-2.8,0.8c-1.1,0-2.4-0.2-3.3-0.5
			c-0.5-0.1-0.9-0.2-1.3-0.2c-2.4,0-3.4,1.9-3.7,4.2c0.3,0,0.6,0,0.9,0c1,0,2-0.1,3-0.2c1.4-0.2,2.7-0.6,4-1.1
			c7.3-2.8,12.4-9.8,12.4-18C58.4,32.6,54.6,26.4,48.8,23z"/>
	</g>
</g>
</svg>
