<?xml version="1.0" encoding="utf-8"?>
<!-- Generator: Adobe Illustrator 23.0.6, SVG Export Plug-In . SVG Version: 6.00 Build 0)  -->
<svg version="1.1" id="Layer_1" xmlns="http://www.w3.org/2000/svg" xmlns:xlink="http://www.w3.org/1999/xlink" x="0px" y="0px"
	 viewBox="0 0 130 75" style="enable-background:new 0 0 130 75;" xml:space="preserve">
<style type="text/css">
	.st0{fill-rule:evenodd;clip-rule:evenodd;}
</style>
<g>
	<g>
		<path class="st0" d="M89,47.2l-5.4,11.6h1.3l1.8-3.8h5l1.8,3.8h1.2l-5.4-11.6H89z M87.2,53.8l2-4.2l2,4.2H87.2z M118.4,56.1
			l-7.6-8.9h-0.2v11.6h1.2V50l7.6,8.8h0.3V47.2h-1.2V56.1z M123.4,47.2v11.6h6.5v-1.1h-5.4v-4.6h5.4V52h-5.4v-3.6h5.4v-1.1H123.4z
			 M80.4,57.5c0.2-0.5,0.3-1.3,0.3-2.5v-7.8h-1.2V55c0,0.9-0.1,1.6-0.2,1.9c-0.1,0.3-0.3,0.6-0.6,0.8c-0.3,0.2-0.6,0.3-0.9,0.3
			c-0.3,0-0.5-0.1-0.8-0.2c-0.4-0.2-0.9-0.5-1.5-0.9L75,57.8c0.5,0.5,1,0.8,1.5,1c0.5,0.2,0.9,0.3,1.4,0.3c0.6,0,1.1-0.1,1.6-0.4
			C79.9,58.4,80.2,58,80.4,57.5z M105.4,56.1l-7.6-8.9h-0.2v11.6h1.2V50l7.6,8.8h0.3V47.2h-1.2V56.1z M14,46.9c-1.1,0-2.1,0.3-3,0.8
			c-0.9,0.5-1.7,1.3-2.2,2.2c-0.5,1-0.8,2-0.8,3.1c0,1.7,0.6,3.1,1.8,4.3c1.2,1.2,2.6,1.8,4.3,1.8c1.7,0,3.1-0.6,4.3-1.8
			c1.2-1.2,1.8-2.6,1.8-4.3c0-1.7-0.6-3.2-1.8-4.3C17.2,47.5,15.7,46.9,14,46.9z M18.3,55.5c-0.4,0.8-1,1.4-1.8,1.8
			c-0.8,0.4-1.6,0.7-2.5,0.7c-1.3,0-2.5-0.5-3.4-1.4c-0.9-0.9-1.4-2.1-1.4-3.5c0-0.9,0.2-1.8,0.6-2.5c0.4-0.8,1-1.4,1.8-1.8
			c0.8-0.4,1.6-0.7,2.4-0.7c0.9,0,1.7,0.2,2.5,0.7c0.8,0.4,1.4,1,1.8,1.8c0.4,0.7,0.6,1.6,0.6,2.5C18.9,53.9,18.7,54.7,18.3,55.5z
			 M34.9,58.8h1.2V47.2h-1.2V58.8z M30,54.2c0,0.9,0,1.5-0.1,1.8c-0.1,0.4-0.3,0.8-0.5,1c-0.2,0.3-0.5,0.5-0.9,0.7
			c-0.3,0.2-0.7,0.2-1.1,0.2c-0.4,0-0.9-0.1-1.3-0.3c-0.4-0.2-0.8-0.5-1-0.8c-0.2-0.3-0.3-0.7-0.4-1.1c0-0.2,0-0.7,0-1.6v-7h-1.2v7
			c0,1.2,0.1,2,0.2,2.4c0.2,0.7,0.7,1.3,1.3,1.8c0.7,0.4,1.5,0.7,2.4,0.7c0.9,0,1.6-0.2,2.2-0.7c0.6-0.5,1-1,1.2-1.7
			c0.2-0.6,0.3-1.5,0.3-2.5v-7H30V54.2z M1.2,47.2H0v11.6h5.6v-1.1H1.2V47.2z M42.8,52.2c-0.8-0.6-1.3-1-1.5-1.2
			c-0.3-0.3-0.5-0.5-0.6-0.8c-0.1-0.2-0.2-0.5-0.2-0.7c0-0.4,0.1-0.8,0.4-1c0.3-0.3,0.7-0.4,1.1-0.4c0.4,0,0.7,0.1,1,0.3
			c0.3,0.2,0.7,0.6,1.1,1.1l0.9-0.7c-0.5-0.7-1-1.2-1.5-1.5c-0.5-0.3-1-0.4-1.5-0.4c-0.5,0-1,0.1-1.4,0.4c-0.4,0.2-0.8,0.6-1,1
			c-0.2,0.4-0.4,0.9-0.4,1.4c0,0.6,0.2,1.2,0.6,1.8c0.2,0.3,0.8,0.9,1.8,1.6c1,0.7,1.6,1.3,2,1.9c0.3,0.4,0.4,0.8,0.4,1.1
			c0,0.3-0.1,0.7-0.3,1c-0.2,0.3-0.4,0.5-0.8,0.7c-0.3,0.2-0.7,0.3-1.1,0.3c-0.9,0-1.7-0.6-2.4-1.9l-1,0.6c0.5,0.9,1,1.5,1.6,1.9
			c0.6,0.4,1.2,0.6,1.9,0.6c0.9,0,1.7-0.3,2.3-0.9c0.6-0.6,0.9-1.4,0.9-2.2c0-0.6-0.2-1.2-0.6-1.7C44.5,53.6,43.8,53,42.8,52.2z
			 M83.8,19.2c-0.7,2.3,1.5,3.3,2.6,1C87.2,18.4,84.5,17,83.8,19.2z M97.8,33.8c0-0.2-0.1-0.3-0.3-0.4c-0.2-0.1-0.3-0.3-0.5-0.4
			c-0.4-0.2-0.8-0.4-1.1-0.6c-0.4-0.2-0.8-0.4-1.2-0.5c-0.4-0.1-0.8-0.2-1.2-0.2c-0.8,0-1.6,0.1-2.4,0.3c-0.4,0.1-0.8,0.2-1.2,0.4
			c-0.2,0.1-0.4,0.2-0.6,0.3c-0.2,0.1-0.4,0.2-0.6,0.2c-0.2,0-0.4,0-0.5,0c-0.2,0-0.3,0-0.5,0c1-0.9,2.7-2.5,4-2.7
			c0.2,0,0.3,0,0.5,0c0.2,0.1,0.3,0.2,0.5,0.3c0.3,0.2,0.7,0.4,1,0.4c0.7,0.1,1.5,0,2.1-0.2c0.8-0.2,1.6-0.6,2.3-1
			c0.4-0.2,0.8-0.4,1.2-0.5c0.3-0.1,0.6-0.3,0.6-0.6c0-0.3-0.3-0.6-0.5-0.8c-0.3-0.2-0.7-0.3-1-0.4c-0.7-0.2-1.5-0.2-2.2,0
			c-0.8,0.1-1.6,0.4-2.3,0.7c-0.4,0.2-0.7,0.4-1.1,0.7c-0.2,0.1-0.3,0.3-0.5,0.4c-0.1,0.1-0.3,0.3-0.5,0.4c-0.2,0.1-0.3,0.1-0.5,0.1
			c0.5-0.6,0.9-1.2,1.5-1.7c0.5-0.6,1.1-1.1,1.7-1.6c0.6-0.5,1.3-0.9,1.9-1.3c0.3-0.2,0.7-0.4,1-0.5c0.3-0.2,0.7-0.3,1-0.5
			c0.2-0.1,0.5-0.3,0.8-0.2c0.2,0.1,0.3,0.2,0.4,0.3c0.1,0.1,0.3,0.1,0.5,0.2c0.5,0.1,1.2-0.2,1.3-0.8c0.1-0.6-0.2-1.2-0.7-1.4
			c-0.5-0.3-1.2-0.3-1.6,0.2c-0.1,0.1-0.2,0.3-0.2,0.5c0,0.1,0,0.3-0.1,0.4c-0.1,0.1-0.3,0.2-0.5,0.2c-0.2,0.1-0.3,0.1-0.5,0.2
			c-0.7,0.3-1.4,0.6-2,1c-0.1,0.1-0.3,0.2-0.4,0.2c0.3-0.4,0.6-0.7,0.8-1.1c0.3-0.4,0.5-0.7,0.7-1.1c0.2-0.4,0.4-0.9,0.7-1.1
			c0.4-0.4,0.9-0.6,1.4-0.6c0.9-0.1,1.7-0.4,2.6-0.7c0.3-0.2,0.7-0.4,1-0.6c0.3-0.3,0.5-0.7,0.4-1.2c0-0.1,0-0.2-0.1-0.3
			c-0.2-0.3-0.2-0.5-0.1-0.8c0.2-0.7-0.1-1.3-0.9-1.6c-0.4-0.1-0.6-0.3-0.9-0.6c-0.7-0.8-1.4-0.9-2.2-0.1c0,0-0.1,0.1-0.1,0.1
			c-0.1-0.1-0.2-0.2-0.3-0.3c-0.3-0.3-0.7-0.3-1.1-0.1c-0.2,0.1-0.5,0.3-0.7,0.4c-0.5,0.2-0.7,0.6-0.6,1.1c0,0.4,0.1,0.8,0.2,1.2
			c0.2,0.8,0.5,1.5,0.7,2.3c0.1,0.4,0.1,0.9,0.2,1.3c0,0.1,0,0.2,0,0.2c-0.2,0.4-0.4,0.7-0.6,1.1c-0.2,0.4-0.5,0.8-0.7,1.1
			c-0.3,0.4-0.5,0.7-0.8,1c-0.2,0.2-0.3,0.3-0.5,0.5c-0.1,0.1-0.1,0.2-0.2,0.2l-0.1,0l0-0.1c0.1-0.4,0.2-0.9,0.3-1.3
			c0.1-0.4,0.1-0.9,0.2-1.3c0.1-0.4,0.1-0.9,0.1-1.3c0-0.1,0-0.2,0-0.3c0-0.1,0.1-0.1,0.2-0.1c0.2-0.1,0.4-0.1,0.5-0.3
			c0.1-0.1,0.2-0.3,0.2-0.5c0-0.2,0-0.4-0.1-0.6c-0.2-0.6-0.8-1-1.5-0.9c-0.6,0.1-1.2,0.6-1.1,1.2c0,0.4,0.3,0.7,0.6,0.9
			c0.1,0.1,0.2,0.1,0.3,0.1c0.1,0,0.2,0.1,0.2,0.2c0,0.1,0,0.2,0,0.2c0,0.1,0,0.2,0,0.3c-0.1,0.9-0.2,1.7-0.4,2.6
			c-0.2,0.8-0.4,1.6-0.8,2.3c-0.5,1-1.2,1.7-2,2.6c-0.1,0.2-0.3,0.3-0.5,0.4c0.2-0.5,0.4-1.1,0.5-1.7c0.1-0.5,0.1-1.1,0.1-1.7
			c0-0.6-0.2-1.1-0.4-1.6c-0.2-0.6-0.5-1.1-0.9-1.5c-0.3-0.4-0.8-0.8-1.3-1c-0.2-0.1-0.5-0.1-0.7,0c-0.2,0.1-0.3,0.4-0.3,0.7
			c0,0.3,0,0.6,0,0.9c0,0.3,0,0.6,0,0.9c0,0.3,0,0.6,0,0.9c0,0.3,0,0.6,0.1,0.9c0.1,0.6,0.3,1.1,0.7,1.5c0.3,0.4,0.8,0.8,1.3,1
			c0.1,0.1,0.3,0.1,0.4,0.1c-0.1,0.2-0.1,0.3-0.2,0.5c-0.1,0.2-0.2,0.3-0.3,0.5c-0.8,1.2-1.5,1.8-2.8,2.9
			c-4.5,3.6-9.2,7.2-13.6,10.5c3-5.2,5.6-10.1,7.6-13.7c1.1-1.7-0.3-4.7-1.7-2.3c-1.2,2-2.5,4-3.6,6c-4.9,5-13.5,12.6-17.5,14.1
			c-6.7,2.6-3.5-4.5-1.9-7.2c2.4-3.9,5.6-8.7,7.2-11.1c12-9.7,17.9-18.2,19.7-23.3c2.5-7-2.1-6.3-6.5-2C70.4,9.6,62.2,23.6,60.3,27
			l-1.9,3.5C50,36.3,38.1,43.9,27.8,41.2c-4.3-1.2-11.3-5.4-7-11c1.5-1.9,3.4-2.9,5.7-3.1c0.1,0.1,0.2,0.1,0.3,0.3
			c0.3,0.5,0.8,1,1.1,1.6c0.5,1,1,2.1,1.5,3.1c0.3,0.5,0.6,1.1,1,1.5c0.4,0.5,1,0.7,1.7,0.5c0.4-0.1,0.8-0.2,1.2-0.3
			c0.6-0.1,1-0.6,1.1-1.2c0-0.2,0-0.4,0-0.5c0.1,0,0.2,0,0.2,0c1.6,0,2.3-0.7,2.2-2.3c0-0.6,0.1-1,0.4-1.5c0.6-1,0.3-2-0.6-2.6
			c-0.4-0.2-0.7-0.4-0.7-1c0-0.1-0.1-0.3-0.2-0.4c-0.4-0.5-1-0.9-1.7-0.9c-0.6,0-1.1,0.1-1.7,0.2c-1.2,0.4-2.4,1-3.5,1.8
			c-0.5,0.4-1,0.6-1.6,0.7c-0.3,0-0.5,0-0.8,0c-0.9,0.1-1.7,0.3-2.5,0.6c0.1-0.2,0.2-0.4,0.2-0.6c0.1-0.3,0.3-0.5,0.6-0.6
			c0.2,0,0.3-0.1,0.4-0.2c0.9-0.5,1.4-1.1,1.8-2c0.7-1.4,1.2-2.8,1.5-4.4c0-0.2,0.1-0.5,0.1-0.8c0-0.3-0.3-0.5-0.6-0.4
			c-0.1,0-0.2,0.1-0.3,0.1c-0.6,0.4-1.2,0.7-1.8,1.2c-0.6,0.4-1.2,0.8-1.7,1.3c-0.8,0.8-1.3,1.8-1.2,3c0,0.4,0.1,0.7,0.2,1.1
			c0.2,0.5,0.1,0.9,0,1.4c-0.2,0.6-0.4,1.1-0.7,1.6c-0.1,0-0.1,0.1-0.2,0.1c-1.1,0.6-2,1.4-2.7,2.5c-0.1,0.2-0.2,0.3-0.4,0.5
			c-0.1-0.3-0.5-3.1-0.3-3.4c0.1-0.2,0.1-0.4,0.2-0.6c0.3-1.2,0.3-2.3,0-3.5c-0.5-1.7-1.2-3.3-2.1-4.8c-0.1-0.2-0.3-0.5-0.5-0.7
			c-0.2-0.3-0.6-0.2-0.8,0.1c0,0.1-0.1,0.2-0.1,0.3c-0.2,0.8-0.3,1.6-0.5,2.4c-0.1,0.8-0.3,1.7-0.3,2.5c-0.1,1.3,0.4,2.5,1.4,3.4
			c0.3,0.3,0.6,0.5,1,0.7c0.5,0.2,0.8,0.6,1,1.1c0.2,0.5,0.2,2,0.2,2.7c-1.2-1.5-2.7-2.4-4.3-3.2c0-0.1,0-0.3,0-0.4
			c-0.1-0.7-0.5-1.3-1.2-1.4c-0.9-0.2-1.6,0.4-1.5,1.3c0.1,1,0.9,1.6,1.8,1.3c0.3-0.1,0.5,0,0.8,0.1c0.9,0.3,1.6,0.8,2.3,1.4
			c0.7,0.5,1.3,1.2,1.8,1.9c0.3,0.5,0.4,1,0.4,1.5c0,1.2,0.2,2.3,0.7,3.4c0,0.1,0.1,0.2,0,0.3c-0.8-0.3-1.6-0.5-2.3-0.8
			C17,36.2,17,36,16.9,35.9c-0.4-1.3-1.3-2.1-2.5-2.5c-1.1-0.4-2.2-0.5-3.3-0.6c-0.1,0-0.1,0-0.2,0c-0.3,0-0.5,0.3-0.4,0.6
			c0.1,0.2,0.2,0.3,0.3,0.4c0.5,0.6,0.9,1.1,1.4,1.7c0.4,0.5,0.9,0.9,1.4,1.3c0.8,0.6,1.7,0.8,2.6,0.4c0.3-0.1,0.7-0.1,1,0
			c0.3,0.1,0.6,0.2,0.9,0.3c1.1,0.4,2,1,3,1.6c0,0,0.1,0.1,0.1,0.1c1.6,1.3,3.8,2.3,6.1,2.8c6.5,1.7,13-0.1,19-3.3
			c4-2,7.8-4.4,11.1-6.6c-1.1,2-2,3.9-2.7,5.7c-1.8,4.1-4.2,12.8,3.9,9.7c3.7-1.4,11-7.6,15.7-12.2c-2.2,3.8-4.4,7.5-6.8,10.9
			c-12,9.6-17.9,18.2-19.8,23.3c-2.5,7,2.1,6.4,6.5,2.1c4.9-4.6,12.2-16.4,18.4-27.3c4.5-3.4,9.2-7.1,14-10.8
			c0.4-0.1,0.7-0.2,1.1-0.2c0.2,0,0.4,0,0.6,0c0.1,0,0.2,0,0.3,0c0.1,0,0.2,0,0.3,0c0.2,0,0.3,0.1,0.5,0.2c0.2,0.1,0.3,0.3,0.4,0.5
			c0.3,0.3,0.6,0.6,1,0.8c0.3,0.2,0.7,0.3,1.1,0.3c0.4,0,0.8,0,1.2-0.1c0.9-0.1,1.7-0.4,2.6-0.6c0.4-0.1,0.9-0.2,1.3-0.3
			C97.2,34.3,97.8,34.2,97.8,33.8z M101.1,19.6c0.5-0.5,1-0.9,1.5-1.4C102.7,19,102,19.6,101.1,19.6z M99.3,15.9
			c0.1-0.2,0.2-0.4,0.4-0.6c0.4-0.5,0.8-0.5,1.2,0c0.3,0.4,0.7,0.7,1.3,0.9c0.4,0.1,0.5,0.4,0.4,0.8c-0.1,0.3-0.2,0.6-0.4,0.8
			c-0.7,1-1.7,1.7-2.9,2.2c0,0,0.1-0.1,0.1-0.1c0.7-0.7,1.8-1.7,2.3-2.5c0-0.1,0.1-0.2,0.1-0.2c0.1-0.2,0-0.3-0.1-0.4
			c-0.1-0.1-0.3,0-0.4,0.1c-0.1,0.1-0.1,0.2-0.2,0.3c-0.2,0.3-1.1,1.1-1.5,1.5c0.1-0.3,0.7-1.6,0.6-1.8c0-0.1-0.2-0.2-0.2-0.2
			c-0.1,0-0.2,0.1-0.3,0.2c-0.2,0.3-0.6,1.5-0.9,2.1c0-0.1-0.1-0.1-0.1-0.1C98.7,17.6,99,16.8,99.3,15.9z M97,16.6
			c-0.1-0.2-0.1-0.4-0.1-0.6c0-0.3,0.1-0.5,0.4-0.6c0.2-0.1,0.3-0.1,0.5-0.2c0.5-0.3,0.5-0.3,0.8,0.2c0.1,0.2,0,0.3,0,0.5
			c-0.2,0.8-0.5,1.6-0.5,2.5c0,0.3-0.1,0.6-0.1,0.9l-0.1,0C97.6,18.4,97.3,17.5,97,16.6z M79,4.8c2.9-3.9,6.2-6.4,3.7,0.3
			C80.9,9.9,75.3,18,65.1,26.4C66.1,24.9,73.9,11.7,79,4.8z M34.8,25c-1,0-2,0-2.9,0C32.8,24.2,34.2,24.2,34.8,25z M34.8,26.1
			c0.4,0.1,0.8,0.2,1.2,0.5c0.5,0.3,0.6,0.7,0.3,1.2c-0.4,0.7-0.6,1.4-0.5,2.2c0,0.9-0.4,1.3-1.3,1.2c-0.3,0-0.7-0.1-1-0.3
			c-1.2-0.6-2.3-1.3-3.3-2.3c0,0,0-0.1,0-0.2c0.7,0.2,1.2,0.6,1.8,1c0.2,0.1,0.3,0.3,0.5,0.3c0.1,0,0.4,0,0.5-0.1
			c0.1-0.1,0.1-0.4,0-0.5c-0.1-0.2-0.2-0.3-0.4-0.4c-0.4-0.3-0.8-0.5-1.3-0.9c0.3,0,0.4,0,0.6,0c0.6,0.1,1.2,0.3,1.7,0.4
			c0.2,0,0.3,0.1,0.5,0.1c0.2,0,0.4,0,0.5-0.3c0.1-0.3,0-0.5-0.2-0.6c-0.1-0.1-0.3-0.1-0.4-0.1c-1.3-0.4-2.7-0.7-4.1-0.8
			c-0.1,0-0.2,0-0.3,0C31.3,25.9,33,25.7,34.8,26.1z M28.7,28.5c0.3,0.3,0.7,0.5,1,0.8c0.9,0.9,1.9,1.5,3,2.1
			c0.2,0.1,0.4,0.2,0.5,0.5c0.2,0.8,0.1,0.9-0.7,1c-0.2,0-0.5,0.1-0.7,0.2c-0.4,0.2-0.7,0.1-1-0.2c-0.2-0.2-0.3-0.4-0.5-0.7
			C29.8,31.1,29.2,29.8,28.7,28.5L28.7,28.5z M52.1,70.2c-2.9,3.9-6.2,6.4-3.7-0.3c1.8-4.8,7.1-12.6,17.8-21.5
			C65.1,50.1,57.2,63.4,52.1,70.2z M123.8,66.2H122v-1.5h-0.4v3.5h0.4v-1.7h1.8v1.7h0.4v-3.5h-0.4V66.2z M91.9,64.6
			c-0.3,0-0.6,0.1-0.9,0.2c-0.3,0.2-0.5,0.4-0.7,0.7c-0.2,0.3-0.2,0.6-0.2,0.9c0,0.5,0.2,0.9,0.5,1.3c0.4,0.4,0.8,0.5,1.3,0.5
			c0.5,0,0.9-0.2,1.3-0.5c0.4-0.4,0.5-0.8,0.5-1.3c0-0.5-0.2-1-0.5-1.3C92.9,64.8,92.4,64.6,91.9,64.6z M93.2,67.2
			c-0.1,0.2-0.3,0.4-0.5,0.5c-0.2,0.1-0.5,0.2-0.8,0.2c-0.4,0-0.8-0.1-1-0.4c-0.3-0.3-0.4-0.6-0.4-1.1c0-0.3,0.1-0.5,0.2-0.8
			c0.1-0.2,0.3-0.4,0.5-0.5c0.2-0.1,0.5-0.2,0.7-0.2c0.3,0,0.5,0.1,0.7,0.2c0.2,0.1,0.4,0.3,0.5,0.5c0.1,0.2,0.2,0.5,0.2,0.8
			C93.4,66.8,93.3,67,93.2,67.2z M111.1,64.7l-1.7,3.5h0.4l0.5-1.2h1.5l0.5,1.2h0.4L111.1,64.7L111.1,64.7z M110.6,66.7l0.6-1.3
			l0.6,1.3H110.6z M99.2,66.9h1.1c0,0.3-0.2,0.6-0.4,0.8C99.7,67.9,99.4,68,99,68c-0.3,0-0.6-0.1-0.8-0.2c-0.2-0.1-0.4-0.3-0.6-0.6
			c-0.1-0.2-0.2-0.5-0.2-0.8c0-0.3,0.1-0.5,0.2-0.7c0.1-0.2,0.3-0.4,0.6-0.6C98.4,65,98.7,65,99,65c0.2,0,0.4,0,0.7,0.1
			c0.2,0.1,0.4,0.2,0.6,0.4l0.3-0.3c-0.2-0.2-0.5-0.4-0.8-0.5c-0.3-0.1-0.5-0.2-0.8-0.2c-0.4,0-0.7,0.1-1,0.2
			c-0.3,0.2-0.5,0.4-0.7,0.7c-0.2,0.3-0.3,0.6-0.3,0.9c0,0.4,0.1,0.8,0.4,1.2c0.4,0.4,0.9,0.7,1.5,0.7c0.5,0,1-0.2,1.3-0.5
			c0.3-0.3,0.5-0.8,0.5-1.3h-1.5V66.9z M85.1,65.1h0.8v3.2h0.4v-3.2H87v-0.3h-1.9V65.1z M80.2,64.6c-0.3,0-0.6,0.1-0.9,0.2
			c-0.3,0.2-0.5,0.4-0.7,0.7c-0.2,0.3-0.2,0.6-0.2,0.9c0,0.5,0.2,0.9,0.5,1.3c0.4,0.4,0.8,0.5,1.3,0.5c0.5,0,0.9-0.2,1.3-0.5
			c0.4-0.4,0.5-0.8,0.5-1.3c0-0.5-0.2-1-0.5-1.3C81.2,64.8,80.7,64.6,80.2,64.6z M81.5,67.2c-0.1,0.2-0.3,0.4-0.5,0.5
			c-0.2,0.1-0.5,0.2-0.8,0.2c-0.4,0-0.8-0.1-1-0.4c-0.3-0.3-0.4-0.6-0.4-1.1c0-0.3,0.1-0.5,0.2-0.8c0.1-0.2,0.3-0.4,0.5-0.5
			C79.7,65,80,65,80.2,65c0.3,0,0.5,0.1,0.7,0.2c0.2,0.1,0.4,0.3,0.5,0.5c0.1,0.2,0.2,0.5,0.2,0.8C81.7,66.8,81.6,67,81.5,67.2z
			 M128.7,66.2l-0.9-1.5h-0.4l1.1,1.8v1.7h0.4v-1.7l1.1-1.8h-0.4L128.7,66.2z M74.6,66.2h-1.8v-1.5h-0.4v3.5h0.4v-1.7h1.8v1.7H75
			v-3.5h-0.4V66.2z M105.8,66.5c0.2-0.1,0.3-0.2,0.4-0.3c0.1-0.1,0.1-0.3,0.1-0.5c0-0.2-0.1-0.4-0.2-0.6c-0.1-0.2-0.3-0.3-0.5-0.3
			c-0.1,0-0.4,0-0.8,0h-0.7v3.5h0.4v-1.6h0.2l1.3,1.6h0.4l-1.3-1.6C105.4,66.6,105.6,66.6,105.8,66.5z M104.5,66.3v-1.2h0.6
			c0.2,0,0.4,0,0.5,0.1c0.1,0,0.2,0.1,0.3,0.2c0.1,0.1,0.1,0.2,0.1,0.3c0,0.1,0,0.2-0.1,0.3c-0.1,0.1-0.2,0.2-0.3,0.2
			c-0.1,0-0.3,0.1-0.5,0.1L104.5,66.3z M117.6,64.8c-0.1,0-0.4-0.1-0.8-0.1h-0.7v3.5h0.4v-1.6h0.2c0.4,0,0.7,0,0.9-0.1
			c0.2-0.1,0.4-0.2,0.5-0.3c0.1-0.2,0.2-0.3,0.2-0.6c0-0.2-0.1-0.4-0.2-0.6C117.9,64.9,117.8,64.8,117.6,64.8z M117.8,66
			c-0.1,0.1-0.2,0.2-0.3,0.2c-0.1,0-0.3,0.1-0.5,0.1l-0.6,0v-1.2h0.6c0.2,0,0.4,0,0.5,0.1c0.1,0,0.2,0.1,0.3,0.2
			c0.1,0.1,0.1,0.2,0.1,0.3C117.9,65.8,117.9,65.9,117.8,66z M68.4,64.8c-0.1,0-0.4-0.1-0.8-0.1h-0.7v3.5h0.4v-1.6h0.3
			c0.4,0,0.7,0,0.9-0.1c0.2-0.1,0.4-0.2,0.5-0.3c0.1-0.2,0.2-0.3,0.2-0.6c0-0.2-0.1-0.4-0.2-0.6C68.8,64.9,68.6,64.8,68.4,64.8z
			 M68.7,66c-0.1,0.1-0.2,0.2-0.3,0.2c-0.1,0-0.3,0.1-0.5,0.1l-0.6,0v-1.2h0.6c0.2,0,0.4,0,0.5,0.1c0.1,0,0.2,0.1,0.3,0.2
			c0.1,0.1,0.1,0.2,0.1,0.3C68.8,65.8,68.7,65.9,68.7,66z"/>
	</g>
</g>
</svg>
