<?xml version="1.0" encoding="utf-8"?>
<!-- Generator: Adobe Illustrator 23.0.6, SVG Export Plug-In . SVG Version: 6.00 Build 0)  -->
<svg version="1.1" id="Layer_1" xmlns="http://www.w3.org/2000/svg" xmlns:xlink="http://www.w3.org/1999/xlink" x="0px" y="0px"
	 viewBox="0 0 172 55" style="enable-background:new 0 0 172 55;" xml:space="preserve">
<style type="text/css">
	.st0{fill-rule:evenodd;clip-rule:evenodd;}
</style>
<g>
	<g>
		<path class="st0" d="M30.8,25.3c0.5,0.3,1,0.4,1.5,0.4s1.1-0.1,1.5-0.4c0.5-0.3,0.8-0.6,1.1-1.1c0.1-0.2,0.1-0.5-0.2-0.6
			c-0.2-0.1-0.5-0.1-0.6,0.2c-0.2,0.3-0.5,0.6-0.8,0.8c-0.3,0.2-0.7,0.3-1.1,0.3c-0.4,0-0.7-0.1-1.1-0.3c-0.3-0.2-0.6-0.4-0.8-0.8
			c-0.1-0.2-0.4-0.3-0.6-0.2c-0.2,0.1-0.3,0.4-0.2,0.6C30,24.6,30.4,25,30.8,25.3z M35.7,22.2c0.1-0.2-0.1-0.5-0.3-0.6
			c-1.4-0.4-2.7-0.6-3.8-0.5c-1.1,0.1-1.9,0.5-2.6,1.3c-0.2,0.2-0.1,0.5,0.1,0.7c0.2,0.2,0.5,0.1,0.6-0.1c0.5-0.6,1.2-0.9,2-1
			c1-0.1,2.2,0.1,3.4,0.4C35.4,22.6,35.7,22.5,35.7,22.2z M38.1,14.8c-1.1,0.9-2.1,1.6-3,2c-1,0.5-1.9,0.6-2.8,0.5l0,0
			c-1.1-0.1-2-0.8-2.6-1.5c-0.2-0.3-0.4-0.7-0.5-1c-0.1-0.4-0.1-0.7-0.1-1.1c0.1-0.7,0.5-1.3,1.2-1.9c0.5-0.4,1.2-0.6,1.8-0.6
			c0.6,0,1.3,0.2,1.8,0.6l0,0c0.3,0.2,0.5,0.5,0.6,0.8c0.1,0.3,0.2,0.6,0.1,1c-0.1,0.3-0.2,0.7-0.4,0.9c-0.2,0.3-0.5,0.4-0.8,0.6
			c-0.3,0.1-0.7,0.1-1,0c-0.3-0.1-0.6-0.2-0.9-0.5c-0.2-0.2-0.5-0.2-0.6,0c-0.2,0.2-0.2,0.5,0,0.7c0.4,0.4,0.8,0.6,1.3,0.7
			c0.5,0.1,1,0.1,1.5-0.1c0.5-0.2,0.9-0.5,1.2-0.8c0.3-0.4,0.5-0.8,0.6-1.4c0.1-0.5,0-1-0.2-1.5c-0.2-0.5-0.5-0.9-0.9-1.2l0,0
			c-0.7-0.5-1.5-0.8-2.3-0.8c-0.8,0-1.7,0.2-2.4,0.8c-1,0.7-1.4,1.6-1.6,2.5l0,0c-0.1,0.5,0,1,0.1,1.5c0.1,0.5,0.4,0.9,0.7,1.3
			c0.7,1,1.9,1.7,3.2,1.9l0,0c1,0.1,2.1-0.1,3.3-0.6c1-0.5,2.1-1.2,3.3-2.2c2.6,3,4.8,1.9,7.2,0.6c1.8-0.9,3.7-1.9,6.2-1.2
			c0.2,0.1,0.5-0.1,0.6-0.3c0.1-0.2,0-0.4-0.2-0.5c-2.2-2.1-4-3.4-5.8-3.9c-1.3-0.3-2.5-0.3-3.7,0.3c0.3-0.7,0.5-1.4,0.5-2.2
			c0-2.2-1.4-4.5-4-7.3c-0.1-0.1-0.3-0.2-0.5-0.2c-0.2,0.1-0.4,0.3-0.3,0.6c0.7,2.5-0.3,4.5-1.2,6.2C36.3,10.1,35.3,12.2,38.1,14.8z
			 M45.5,15.3c-1.9,1-3.7,1.9-5.6,0c1.7-0.1,2.8-0.6,3.8-1.1c1.4-0.7,2.8-1.3,5.6-0.4C47.9,14,46.7,14.7,45.5,15.3z M46.6,11.1
			c1.1,0.3,2.2,1,3.5,2c-3.4-1.2-5-0.5-6.7,0.3c-0.9,0.4-1.9,0.9-3.3,1c0.8-0.8,1.5-1.5,2.1-2.2C43.7,11,45.1,10.7,46.6,11.1z
			 M42.7,8.3c0,1.1-0.4,2.1-1.3,3.2c0,0,0,0,0,0.1c-0.5,0.7-1.3,1.5-2.2,2.3c0.1-1.5,0.5-2.6,1-3.6C41,8.6,41.8,7,40.6,3.5
			C42,5.3,42.7,6.8,42.7,8.3z M38.4,8.1c0.6-1.2,1.2-2.4,1.5-3.8c0.9,2.8,0.2,4.2-0.4,5.6c-0.5,1.1-1,2.2-1.1,3.9
			C36.5,11.7,37.4,10,38.4,8.1z M20.9,25.3c0.5,0.3,1,0.4,1.5,0.4s1.1-0.1,1.5-0.4c0.5-0.3,0.8-0.6,1.1-1.1c0.1-0.2,0.1-0.5-0.2-0.6
			c-0.2-0.1-0.5-0.1-0.6,0.2c-0.2,0.3-0.5,0.6-0.8,0.8c-0.3,0.2-0.7,0.3-1.1,0.3c-0.4,0-0.7-0.1-1.1-0.3c-0.3-0.2-0.6-0.4-0.8-0.8
			c-0.1-0.2-0.4-0.3-0.6-0.2c-0.2,0.1-0.3,0.4-0.2,0.6C20.1,24.6,20.4,25,20.9,25.3z M30.1,32.5c-0.1-0.2-0.4-0.3-0.6-0.1
			c-0.6,0.4-1.3,0.6-2,0.6c-0.7,0-1.4-0.2-2-0.6c-0.2-0.1-0.5-0.1-0.6,0.1c-0.1,0.2-0.1,0.5,0.1,0.6c0.8,0.5,1.6,0.7,2.5,0.7
			c0.9,0,1.7-0.2,2.5-0.7C30.2,33,30.3,32.7,30.1,32.5z M26.8,24c-0.2-0.8-0.6-1.4-1.1-1.8c-0.5-0.5-1.1-0.7-1.7-0.9
			c-1.2-0.3-2.8-0.1-4.4,0.4c-0.2,0.1-0.4,0.3-0.3,0.6c0.1,0.2,0.3,0.4,0.6,0.3c1.5-0.4,2.8-0.6,3.9-0.3c0.5,0.1,0.9,0.3,1.3,0.7
			c0.4,0.3,0.6,0.8,0.8,1.4c0.3,1.2,0.3,2.9-0.3,5.4c0,0,0,0,0,0.1c0,0.4,0.1,0.6,0.3,0.9c0.2,0.2,0.4,0.3,0.6,0.4
			c0.1,0.2,0.2,0.3,0.4,0.4c0.2,0.1,0.4,0.1,0.6,0.2l0,0h0l0,0l0,0h0h0h0h0h0l0,0l0,0h0l0,0c0.2,0,0.4-0.1,0.6-0.2
			c0.1-0.1,0.3-0.2,0.4-0.4c0.3-0.1,0.5-0.2,0.6-0.4c0.2-0.2,0.3-0.5,0.3-0.9c0-0.3-0.2-0.4-0.5-0.4c-0.3,0-0.4,0.2-0.4,0.5
			c0,0.1,0,0.2,0,0.2c-0.1,0.1-0.2,0.1-0.3,0.1c-0.2,0-0.3,0.2-0.4,0.3c0,0.1-0.1,0.1-0.1,0.1c0,0-0.1,0-0.2,0c-0.1,0-0.2,0-0.2,0
			c0,0-0.1-0.1-0.1-0.1c-0.1-0.2-0.2-0.3-0.3-0.3c-0.2,0-0.3-0.1-0.3-0.1c0,0,0-0.1,0-0.2C27.1,27.2,27.1,25.3,26.8,24z M28.7,34.2
			c-0.4,0.1-0.8,0.2-1.2,0.2c-0.4,0-0.8-0.1-1.2-0.2c-0.2-0.1-0.5,0-0.6,0.3c-0.1,0.2,0,0.5,0.3,0.6c0.5,0.2,1,0.3,1.5,0.3
			c0.5,0,1-0.1,1.5-0.3c0.2-0.1,0.4-0.3,0.3-0.6C29.2,34.3,28.9,34.1,28.7,34.2z M17.1,0.9c2.2,1.3,2.9,3.4,3.5,5.3
			c0.8,2.6,1.6,4.9,5.4,4.7c-0.1,1.4-0.4,2.6-0.8,3.6c-0.4,1-0.9,1.8-1.6,2.3c-0.9,0.7-1.9,0.9-2.9,0.7c-0.4-0.1-0.8-0.2-1.1-0.4
			c-0.3-0.2-0.6-0.4-0.8-0.7c-0.4-0.5-0.6-1.3-0.5-2.2c0.1-0.7,0.4-1.2,0.9-1.7c0.5-0.4,1-0.7,1.7-0.8l0,0c0.3-0.1,0.7,0,1,0.1
			c0.3,0.1,0.6,0.3,0.8,0.6c0.2,0.3,0.3,0.6,0.3,0.9c0,0.3,0,0.7-0.2,1c-0.2,0.3-0.4,0.6-0.7,0.7c-0.3,0.2-0.6,0.3-0.9,0.3
			c-0.3,0-0.5,0.2-0.5,0.5c0,0.3,0.2,0.5,0.5,0.5c0.5,0,1-0.2,1.4-0.4c0.4-0.3,0.8-0.6,1-1.1c0.2-0.5,0.3-1,0.3-1.5
			c0-0.5-0.2-1-0.5-1.4c-0.3-0.4-0.7-0.7-1.2-0.9c-0.5-0.2-1-0.3-1.5-0.2c-0.9,0.1-1.6,0.5-2.2,1.1c-0.6,0.6-1,1.4-1.1,2.2
			c-0.2,1.2,0.1,2.2,0.6,2.9c0.3,0.4,0.7,0.7,1.1,1c0.4,0.2,0.9,0.4,1.4,0.5c1.2,0.2,2.5-0.1,3.6-0.9c0.8-0.6,1.4-1.5,1.9-2.7
			c0.4-1.1,0.7-2.4,0.8-3.9c3.9,0.2,4.7-2.1,5.5-4.7c0.6-1.9,1.3-4,3.5-5.3c0.2-0.1,0.3-0.4,0.2-0.6C36.1,0.1,35.9,0,35.7,0
			c-3,0.1-5.2,0.5-6.8,1.4C27.8,2,27,2.9,26.6,4.2c-0.3-0.7-0.7-1.4-1.2-1.9c-1.5-1.6-4.1-2.2-8-2.3c-0.2,0-0.4,0.1-0.4,0.2
			C16.8,0.5,16.9,0.7,17.1,0.9z M31.6,5.9c-0.7,2.1-1.3,3.9-4,4.1c1.1-1.2,1.6-2.4,2-3.5c0.5-1.5,1.1-2.9,3.6-4.3
			C32.4,3.3,32,4.6,31.6,5.9z M29.4,2.2c1-0.6,2.3-0.9,3.9-1.1c-3.3,1.6-3.9,3.2-4.5,5c-0.4,1-0.7,2-1.6,3c0.1-1.1,0-2.2-0.1-3
			C27.3,4.2,28,2.9,29.4,2.2z M21.5,5.9c-0.4-1.2-0.8-2.5-1.6-3.7c2.6,1.4,3.1,2.8,3.6,4.3c0.4,1.1,0.8,2.3,2,3.5
			C22.8,9.8,22.2,8,21.5,5.9z M24.7,2.9c0.7,0.8,1.2,1.8,1.4,3.2c0,0,0,0,0,0.1c0.1,0.9,0.1,1.9,0.1,3.1c-1-1.1-1.4-2.2-1.8-3.2
			c-0.6-1.8-1.2-3.4-4.5-5C22.1,1.3,23.7,1.9,24.7,2.9z M6.1,34.2c2.6-0.8,4.8-1.6,4.7-5.5c1.4,0.1,2.6,0.4,3.5,0.8
			c1,0.4,1.8,0.9,2.3,1.6c0.7,0.9,0.9,2,0.7,2.9c-0.1,0.4-0.2,0.8-0.4,1.1c-0.2,0.3-0.4,0.6-0.7,0.8c-0.5,0.4-1.3,0.6-2.2,0.5
			c-0.7-0.1-1.2-0.4-1.7-0.9c-0.4-0.5-0.7-1.1-0.8-1.7l0,0c-0.1-0.3,0-0.7,0.1-1c0.1-0.3,0.3-0.6,0.6-0.8c0.3-0.2,0.6-0.3,0.9-0.3
			c0.3,0,0.7,0,1,0.2c0.3,0.2,0.6,0.4,0.7,0.7c0.2,0.3,0.3,0.6,0.3,1c0,0.3,0.2,0.5,0.5,0.5c0.3,0,0.5-0.2,0.5-0.5
			c0-0.5-0.2-1-0.4-1.4c-0.3-0.4-0.6-0.8-1.1-1c-0.5-0.2-1-0.3-1.5-0.3c-0.5,0-1,0.2-1.4,0.5c-0.4,0.3-0.7,0.7-0.9,1.2
			c-0.2,0.5-0.3,1-0.2,1.5c0.1,0.9,0.5,1.6,1.1,2.2c0.6,0.6,1.3,1,2.2,1.1c1.2,0.2,2.1-0.1,2.9-0.7c0.4-0.3,0.7-0.7,1-1.1
			c0.2-0.4,0.4-0.9,0.5-1.4c0.2-1.2-0.1-2.6-0.9-3.6c-0.6-0.8-1.5-1.5-2.7-1.9c-1.1-0.4-2.3-0.7-3.9-0.8c0.2-4-2.1-4.7-4.7-5.5
			c-1.9-0.6-4-1.3-5.2-3.6c-0.1-0.2-0.4-0.3-0.6-0.2C0.1,18.7,0,18.8,0,19c0.1,3,0.5,5.3,1.4,6.8C2,27,2.9,27.8,4.1,28.3
			c-0.7,0.3-1.4,0.7-1.9,1.2C0.7,31,0.1,33.6,0,37.5c0,0.2,0.1,0.4,0.2,0.4c0.2,0.1,0.5,0,0.6-0.2C2.1,35.5,4.2,34.8,6.1,34.2z
			 M5.8,33.4c-1.2,0.4-2.5,0.8-3.7,1.6c1.4-2.6,2.8-3.1,4.2-3.7c1.1-0.4,2.2-0.8,3.5-2C9.7,32.1,7.9,32.7,5.8,33.4z M5.8,23.2
			c2.1,0.7,3.9,1.3,4,4c-1.2-1.1-2.4-1.6-3.5-2c-1.5-0.6-2.9-1.1-4.2-3.7C3.3,22.3,4.6,22.8,5.8,23.2z M2.2,25.4
			c-0.6-1-0.9-2.3-1.1-3.9c1.6,3.3,3.2,3.9,5,4.6c1,0.4,2,0.7,3,1.7c-1.1-0.1-2.1,0-3,0.1C4.2,27.5,2.9,26.8,2.2,25.4z M2.9,30.1
			c0.8-0.7,1.8-1.2,3.2-1.4c0,0,0,0,0.1,0c0.9-0.1,1.9-0.1,3.1-0.1c-1.1,1.1-2.2,1.4-3.2,1.8c-1.8,0.7-3.4,1.3-5,4.6
			C1.3,32.7,1.9,31.1,2.9,30.1z M54.6,17.5c0-0.2-0.1-0.4-0.2-0.4c-0.2-0.1-0.5,0-0.6,0.2c-1.3,2.3-3.3,2.9-5.2,3.6
			c-2.6,0.8-4.8,1.6-4.7,5.5c-1.4-0.1-2.6-0.4-3.5-0.8c-1-0.4-1.7-0.9-2.2-1.5v0h0c0,0,0-0.1-0.1-0.1c-0.7-0.9-0.9-2-0.7-2.9
			c0.1-0.4,0.2-0.8,0.4-1.1c0.2-0.3,0.4-0.6,0.7-0.8c0.5-0.4,1.3-0.6,2.2-0.5c0.7,0.1,1.2,0.4,1.7,0.9c0.4,0.5,0.7,1.1,0.8,1.7l0,0
			c0.1,0.3,0,0.7-0.1,1c-0.1,0.3-0.3,0.6-0.6,0.8c-0.3,0.2-0.6,0.3-0.9,0.3c-0.3,0-0.7,0-1-0.2c-0.3-0.2-0.6-0.4-0.7-0.7
			c-0.2-0.3-0.3-0.6-0.3-1c0-0.3-0.2-0.5-0.5-0.5c-0.3,0-0.5,0.2-0.5,0.5c0,0.5,0.2,1,0.4,1.4c0.3,0.4,0.6,0.8,1.1,1
			c0.5,0.2,1,0.3,1.5,0.3c0.5,0,1-0.2,1.4-0.5c0.4-0.3,0.7-0.7,0.9-1.2c0.2-0.5,0.3-1,0.2-1.5c-0.1-0.9-0.5-1.6-1.1-2.2
			c-0.6-0.6-1.3-1-2.2-1.1c-1.2-0.2-2.1,0.1-2.9,0.7c-0.4,0.3-0.7,0.7-1,1.1c-0.2,0.4-0.4,0.9-0.5,1.4c-0.2,1.2,0.1,2.4,0.8,3.5
			c0,1.9-0.3,3.7-0.9,5.4c-0.6,1.8-1.6,3.4-2.8,4.9c-0.5,0.6-1,1.2-1.6,1.7c-0.3,0.3-0.7,0.6-1,0.9c-0.1,0.1-0.3,0.2-0.4,0.3
			c-0.1,0.1-0.3,0.2-0.4,0.4c0,0-0.1,0.1-0.1,0.1l0,0c-0.6,0.6-1,1.3-1.4,2.3c-0.4,1.1-0.7,2.4-0.8,3.9c-3.9-0.2-4.7,2.1-5.5,4.7
			c-0.6,1.9-1.3,4-3.5,5.3c-0.2,0.1-0.3,0.4-0.2,0.6c0.1,0.2,0.3,0.3,0.4,0.2c3-0.1,5.2-0.5,6.8-1.4c1.1-0.7,1.9-1.6,2.4-2.8
			c0.3,0.7,0.7,1.4,1.2,1.9c1.5,1.6,4.1,2.2,8,2.3c0.2,0,0.4-0.1,0.4-0.2c0.1-0.2,0-0.5-0.2-0.6c-2.2-1.3-2.9-3.4-3.5-5.3
			c-0.8-2.6-1.6-4.9-5.4-4.7c0.1-1.4,0.4-2.6,0.8-3.6c0.3-0.8,0.7-1.5,1.2-2c0.2-0.2,0.5-0.4,0.7-0.6c0.8-0.5,1.7-0.6,2.6-0.5
			c0.4,0.1,0.8,0.2,1.1,0.4c0.3,0.2,0.6,0.4,0.8,0.7c0.4,0.5,0.6,1.3,0.5,2.2c-0.1,0.7-0.4,1.2-0.9,1.7c-0.5,0.4-1,0.7-1.7,0.8l0,0
			c-0.3,0.1-0.7,0-1-0.1c-0.3-0.1-0.6-0.3-0.8-0.6c-0.2-0.3-0.3-0.6-0.3-0.9c0-0.3,0-0.7,0.2-1c0.2-0.3,0.4-0.6,0.7-0.7
			c0.3-0.2,0.6-0.3,0.9-0.3c0.3,0,0.5-0.2,0.5-0.5c0-0.3-0.2-0.5-0.5-0.5c-0.5,0-1,0.2-1.4,0.4c-0.4,0.3-0.8,0.6-1,1.1
			c-0.2,0.5-0.3,1-0.3,1.5c0,0.5,0.2,1,0.5,1.4c0.3,0.4,0.7,0.7,1.2,0.9c0.5,0.2,1,0.3,1.5,0.2c0.9-0.1,1.6-0.5,2.2-1.1
			c0.6-0.6,1-1.4,1.1-2.2c0.2-1.2-0.1-2.2-0.6-2.9c-0.3-0.4-0.7-0.7-1.1-1c-0.4-0.2-0.9-0.4-1.4-0.5c-0.4-0.1-0.7-0.1-1.1,0
			c0.4-0.4,0.8-0.9,1.2-1.3c1.3-1.6,2.3-3.4,3-5.2c0.5-1.5,0.8-3.1,0.9-4.8c0.5,0.4,1.2,0.8,1.9,1.1c1.1,0.4,2.3,0.7,3.9,0.8
			c-0.2,4,2.1,4.7,4.7,5.5c1.9,0.6,4,1.3,5.2,3.6c0.1,0.2,0.4,0.3,0.6,0.2c0.2-0.1,0.2-0.3,0.2-0.4c-0.1-3-0.5-5.3-1.4-6.8
			c-0.6-1.1-1.6-1.9-2.8-2.4c0.7-0.3,1.4-0.7,1.9-1.2C53.9,24,54.5,21.4,54.6,17.5z M23,49.1c0.7-2.1,1.3-3.9,4-4.1
			c-1.1,1.2-1.6,2.4-2,3.5c-0.5,1.5-1.1,2.9-3.6,4.3C22.2,51.7,22.6,50.4,23,49.1z M25.2,52.8c-1,0.6-2.3,0.9-3.9,1.1
			c3.3-1.6,3.9-3.2,4.5-5c0.4-1,0.7-2,1.6-3c-0.1,1.1,0,2.2,0.1,3C27.3,50.8,26.6,52.1,25.2,52.8z M33.1,49.1
			c0.4,1.2,0.8,2.5,1.6,3.7c-2.6-1.4-3.1-2.8-3.6-4.3c-0.4-1.1-0.8-2.3-2-3.5C31.9,45.2,32.4,47,33.1,49.1z M30.3,48.9
			c0.6,1.8,1.2,3.4,4.5,5c-2.3-0.3-3.9-0.8-4.9-1.8c-0.7-0.8-1.2-1.8-1.4-3.2c0,0,0,0,0-0.1c-0.1-0.9-0.1-1.9-0.1-3.1
			C29.5,46.8,29.9,47.9,30.3,48.9z M48.8,21.6c1.2-0.4,2.5-0.8,3.7-1.6c-1.4,2.6-2.8,3.1-4.2,3.7c-1.1,0.4-2.2,0.8-3.5,2
			C44.9,22.9,46.7,22.3,48.8,21.6z M48.8,31.8c-2.1-0.7-3.9-1.3-4-4c1.2,1.1,2.4,1.6,3.5,2c1.5,0.6,2.9,1.1,4.2,3.7
			C51.3,32.7,50,32.2,48.8,31.8z M52.5,29.6c0.6,1,0.9,2.3,1.1,3.9c-1.6-3.3-3.2-3.9-5-4.6c-1-0.4-2-0.7-3-1.7c1.1,0.1,2.1,0,3-0.1
			C50.5,27.5,51.7,28.2,52.5,29.6z M48.5,26.3C48.5,26.3,48.5,26.3,48.5,26.3c-1,0.1-2,0.2-3.2,0.1c1.1-1.1,2.2-1.4,3.2-1.8
			c1.8-0.7,3.4-1.3,5-4.6c-0.3,2.3-0.8,3.9-1.8,4.9C50.9,25.6,49.9,26.1,48.5,26.3z M16.5,40.2c1.1-0.9,2.1-1.6,3-2
			c1-0.5,1.9-0.6,2.8-0.5c0.5,0.1,1.1,0.3,1.5,0.5c0.2,0.2,0.4,0.3,0.6,0.5c0.2,0.2,0.3,0.3,0.5,0.5c0.2,0.3,0.4,0.7,0.5,1
			c0.1,0.4,0.1,0.7,0.1,1.1c-0.1,0.7-0.5,1.3-1.2,1.9c-0.5,0.4-1.2,0.6-1.8,0.6c-0.6,0-1.3-0.2-1.8-0.6l0,0
			c-0.3-0.2-0.5-0.5-0.6-0.8c-0.1-0.3-0.2-0.6-0.1-1c0.1-0.3,0.2-0.7,0.4-0.9c0.2-0.3,0.5-0.4,0.8-0.6c0.3-0.1,0.7-0.1,1,0
			c0.3,0.1,0.6,0.2,0.9,0.5c0.2,0.2,0.5,0.2,0.6,0c0.2-0.2,0.2-0.5,0-0.7c-0.4-0.4-0.8-0.6-1.3-0.7c-0.5-0.1-1-0.1-1.5,0.1
			c-0.5,0.2-0.9,0.5-1.2,0.8c-0.3,0.4-0.5,0.8-0.6,1.4c-0.1,0.5,0,1,0.2,1.5c0.2,0.5,0.5,0.9,0.9,1.2l0,0c0.7,0.5,1.5,0.8,2.3,0.8
			c0.8,0,1.7-0.2,2.4-0.8c1-0.7,1.4-1.6,1.6-2.5l0,0c0.1-0.5,0-1-0.1-1.5c-0.1-0.5-0.4-0.9-0.7-1.3c-0.3-0.5-0.8-0.9-1.3-1.2
			c-0.5-0.4-0.9-0.7-1.3-1.1c-0.6-0.6-1.1-1.1-1.6-1.7c-1.3-1.5-2.2-3.2-2.8-4.9c-0.6-1.8-0.9-3.6-0.9-5.6c0.2-0.5,0.4-0.9,0.4-1.5
			c0.1-1-0.1-2.1-0.6-3.3c-0.5-1-1.2-2.2-2.1-3.3c2.9-2.7,1.9-4.8,0.6-7.2c-0.9-1.8-1.9-3.8-1.2-6.2c0.1-0.2-0.1-0.5-0.3-0.6
			c-0.2-0.1-0.4,0-0.5,0.2c-2.1,2.2-3.4,4-3.8,5.8c-0.3,1.3-0.3,2.5,0.3,3.7c-0.7-0.3-1.4-0.5-2.2-0.5C6,11,3.8,12.4,1,15.1
			c-0.1,0.1-0.2,0.3-0.2,0.5c0.1,0.2,0.3,0.4,0.6,0.3c2.5-0.7,4.4,0.3,6.2,1.2c2.4,1.2,4.5,2.3,7.1-0.5c0.9,1.1,1.5,2.1,2,3.1
			c0.5,1,0.6,2,0.5,2.8c-0.1,1.1-0.7,2-1.5,2.6c-0.3,0.2-0.7,0.4-1,0.5c-0.4,0.1-0.7,0.1-1.1,0.1c-0.7-0.1-1.3-0.5-1.9-1.2
			c-0.4-0.5-0.6-1.2-0.6-1.8c0-0.6,0.2-1.3,0.6-1.8l0,0c0.2-0.3,0.5-0.5,0.8-0.6c0.3-0.1,0.6-0.2,1-0.1c0.3,0.1,0.6,0.2,0.9,0.4
			c0.3,0.2,0.4,0.5,0.6,0.8c0.1,0.3,0.1,0.7,0,1c-0.1,0.3-0.2,0.6-0.5,0.9c-0.2,0.2-0.2,0.5,0,0.7c0.2,0.2,0.5,0.2,0.6,0
			c0.4-0.4,0.6-0.8,0.7-1.3c0.1-0.5,0.1-1-0.1-1.5c-0.2-0.5-0.5-0.9-0.8-1.2c-0.4-0.3-0.8-0.5-1.4-0.6c-0.5-0.1-1,0-1.5,0.2
			c-0.5,0.2-0.9,0.5-1.2,0.9l0,0c-0.5,0.7-0.8,1.5-0.8,2.4c0,0.8,0.2,1.7,0.8,2.4c0.7,1,1.6,1.5,2.5,1.6l0,0c0.5,0.1,1,0,1.5-0.1
			c0.5-0.1,0.9-0.4,1.3-0.7c0.2-0.2,0.4-0.3,0.6-0.5c0.1,1.6,0.4,3.2,0.9,4.7c0.7,1.9,1.7,3.6,3,5.2c0.4,0.5,0.9,1,1.4,1.5
			c-0.9-0.1-1.9,0.1-3,0.6c-1,0.5-2.1,1.2-3.3,2.2c-2.6-3-4.8-1.9-7.2-0.6c-1.8,0.9-3.7,1.9-6.2,1.2c-0.2-0.1-0.5,0.1-0.6,0.3
			c-0.1,0.2,0,0.4,0.2,0.5c2.2,2.1,4,3.4,5.8,3.9c1.3,0.3,2.5,0.3,3.7-0.3C11.1,45.3,11,46,11,46.7c0,2.2,1.4,4.5,4,7.3
			c0.1,0.1,0.3,0.2,0.5,0.2c0.2-0.1,0.4-0.3,0.3-0.6c-0.7-2.5,0.3-4.5,1.2-6.2C18.3,44.9,19.4,42.8,16.5,40.2z M8,16.3
			c-1.1-0.6-2.4-1.2-3.8-1.5C7,14,8.4,14.6,9.8,15.3c1.1,0.5,2.2,1,3.8,1.1C11.7,18.2,9.9,17.3,8,16.3z M10.2,14.5
			c-1.7-0.8-3.3-1.5-6.7-0.3C5.3,12.7,6.8,12,8.2,12c1.1,0,2.1,0.4,3.2,1.3c0,0,0,0,0.1,0c0.7,0.5,1.5,1.3,2.3,2.2
			C12.2,15.4,11.2,14.9,10.2,14.5z M12.1,12.6c-1.1-1.5-1.5-3-1.1-4.5c0.3-1.1,1-2.2,2-3.5c-1.2,3.5-0.5,5.1,0.3,6.8
			c0.4,0.9,0.9,1.9,1,3.3C13.5,13.8,12.8,13.1,12.1,12.6z M14.1,11c-0.7-1.4-1.3-2.8-0.4-5.6c0.2,1.4,0.9,2.6,1.4,3.8
			c1,2,1.9,3.7,0,5.7C15.1,13.1,14.6,12,14.1,11z M9.1,39.7c1.9-1,3.7-1.9,5.6,0c-1.7,0.1-2.8,0.6-3.8,1.1c-1.4,0.7-2.8,1.3-5.6,0.4
			C6.7,41,7.9,40.3,9.1,39.7z M8,43.9c-1.1-0.3-2.2-1-3.5-2c3.4,1.2,5,0.5,6.7-0.3c0.9-0.4,1.9-0.9,3.3-1c-0.8,0.8-1.5,1.5-2.1,2.2
			C10.9,44,9.5,44.3,8,43.9z M11.9,46.7c0-1.1,0.4-2.1,1.3-3.2c0,0,0,0,0-0.1c0.5-0.7,1.3-1.5,2.2-2.3c-0.1,1.5-0.5,2.6-1,3.6
			c-0.8,1.7-1.5,3.3-0.3,6.8C12.6,49.7,11.9,48.2,11.9,46.7z M16.2,46.9c-0.6,1.2-1.2,2.4-1.5,3.8c-0.9-2.8-0.2-4.2,0.4-5.6
			c0.5-1.1,1-2.2,1.1-3.9C18.1,43.3,17.2,45,16.2,46.9z M53.2,39.1c-2.5,0.7-4.4-0.3-6.2-1.2c-2.4-1.2-4.5-2.3-7.1,0.5
			c-0.9-1.1-1.5-2.1-2-3.1c-0.5-1-0.6-2-0.5-2.8l0,0c0.1-1.1,0.7-2,1.5-2.6c0.3-0.2,0.7-0.4,1-0.5c0.4-0.1,0.7-0.1,1.1-0.1
			c0.7,0.1,1.3,0.5,1.9,1.2c0.4,0.5,0.6,1.2,0.6,1.8c0,0.6-0.2,1.3-0.6,1.8l0,0c-0.2,0.3-0.5,0.5-0.8,0.6c-0.3,0.1-0.6,0.2-1,0.1
			c-0.3-0.1-0.6-0.2-0.9-0.4c-0.3-0.2-0.4-0.5-0.6-0.8c-0.1-0.3-0.1-0.7,0-1c0.1-0.3,0.2-0.6,0.5-0.9c0.2-0.2,0.2-0.5,0-0.7
			c-0.2-0.2-0.5-0.2-0.6,0c-0.4,0.4-0.6,0.8-0.7,1.3c-0.1,0.5-0.1,1,0.1,1.5c0.2,0.5,0.5,0.9,0.8,1.2c0.4,0.3,0.8,0.5,1.4,0.6
			c0.5,0.1,1,0,1.5-0.2c0.5-0.2,0.9-0.5,1.2-0.9l0,0c0.5-0.7,0.8-1.5,0.8-2.4c0-0.8-0.2-1.7-0.8-2.4c-0.7-1-1.6-1.5-2.5-1.6l0,0
			c-0.5-0.1-1,0-1.5,0.1c-0.5,0.1-0.9,0.4-1.3,0.7c-1,0.7-1.7,1.9-1.9,3.2l0,0c-0.1,1,0.1,2.1,0.6,3.3c0.5,1,1.2,2.2,2.1,3.3
			c-2.9,2.7-1.9,4.8-0.6,7.2c0.9,1.8,1.9,3.8,1.2,6.2c-0.1,0.2,0.1,0.5,0.3,0.6c0.2,0.1,0.4,0,0.5-0.2c2.1-2.2,3.4-4,3.8-5.8
			c0.3-1.3,0.3-2.5-0.3-3.7c0.7,0.3,1.4,0.5,2.2,0.5c2.2,0,4.4-1.4,7.3-4.1c0.1-0.1,0.2-0.3,0.2-0.5C53.7,39.1,53.5,39,53.2,39.1z
			 M46.6,38.7c1.1,0.6,2.4,1.2,3.8,1.5c-2.8,0.9-4.1,0.2-5.6-0.4c-1.1-0.5-2.2-1-3.8-1.1C43,36.8,44.7,37.7,46.6,38.7z M40.9,49.7
			c-0.2-1.4-0.9-2.6-1.4-3.8c-1-2-1.9-3.7,0-5.7c0.1,1.7,0.6,2.8,1.1,3.9C41.1,45.5,41.8,46.8,40.9,49.7z M43.6,46.9
			c-0.3,1.1-1,2.2-2,3.5c1.2-3.5,0.5-5.1-0.3-6.8c-0.4-0.9-0.9-1.9-1-3.3c0.8,0.9,1.5,1.5,2.2,2.1C43.7,44,44,45.4,43.6,46.9z
			 M46.4,43c-1.1,0-2.1-0.4-3.2-1.3c0,0,0,0-0.1,0c-0.7-0.5-1.5-1.3-2.3-2.2c1.5,0.1,2.6,0.5,3.5,1c1.7,0.8,3.3,1.5,6.7,0.3
			C49.4,42.3,47.8,43,46.4,43z M114.6,29.3l-6.6-15.7h-1.3l-8.6,19.4h1.5l2.4-5.4h7.8l0.7,1.7c0.4,0.8,0.8,1.5,1.2,2
			c0.5,0.5,0.9,0.9,1.5,1.1c0.5,0.3,1,0.4,1.6,0.5c0.5,0.1,1,0.1,1.5,0.1c0.2,0,0.5,0,0.7,0c0.3,0,0.5-0.1,0.7-0.1v-0.7
			c-0.7-0.1-1.2-0.4-1.8-0.9C115.4,30.9,115,30.2,114.6,29.3z M102.6,26.4l3.4-7.7l3.2,7.7H102.6z M152.5,13.6H139
			c-0.5,0-0.9,0.1-1.2,0.2c-0.3,0.1-0.6,0.3-0.8,0.5c-0.2,0.2-0.3,0.5-0.4,0.8c-0.1,0.3-0.1,0.6-0.1,0.9v2.5h0.9
			c0-1.3,0.3-2.2,0.9-2.8c0.6-0.5,1.4-0.8,2.5-0.8h2.1v18.1h3.8V14.9h6.1v-0.7c-0.1,0-0.2-0.1-0.3-0.1V13.6z M79.1,26
			c-0.2-0.5-0.4-1-0.8-1.4c-0.4-0.4-0.9-0.8-1.5-1c-0.6-0.3-1.4-0.5-2.4-0.6c0.7-0.2,1.3-0.4,1.8-0.7c0.5-0.3,0.9-0.6,1.3-1
			c0.3-0.4,0.6-0.8,0.8-1.2c0.2-0.4,0.2-0.9,0.2-1.3c0-1.2-0.3-2.1-0.8-2.8c-0.6-0.7-1.3-1.2-2.1-1.6c-0.8-0.4-1.8-0.6-2.8-0.7
			c-1-0.1-2-0.1-2.9-0.1h-7.9v0.9h0.3c0.9,0,1.4,0.3,1.7,0.8c0.2,0.5,0.4,1.3,0.4,2.1v15.6h6.4c1,0,2.1-0.1,3.1-0.2
			c1-0.1,2-0.4,2.8-0.8c0.8-0.4,1.5-0.9,2-1.7c0.5-0.7,0.8-1.6,0.8-2.7C79.4,27.1,79.3,26.6,79.1,26z M68.1,15c0.2,0,0.3,0,0.5-0.1
			c0.2,0,0.3-0.1,0.6-0.1c0.2,0,0.4,0,0.7,0c0.6,0,1.1,0.1,1.7,0.2c0.5,0.1,1,0.3,1.4,0.6c0.4,0.3,0.8,0.7,1,1.2
			c0.3,0.5,0.4,1.1,0.4,1.8c0,1.4-0.4,2.4-1.2,2.9c-0.8,0.6-1.8,0.9-2.9,0.9h-2.2V15z M74,30.8c-0.8,0.7-2.1,1.1-3.7,1.1h-0.1
			c-0.6,0-1.1,0-1.5-0.1c-0.2,0-0.4-0.1-0.6-0.1v-7.8h2.2c3.3,0,5,1.4,5,4.1C75.3,29.1,74.8,30.1,74,30.8z M132.6,24.6
			c0,2.6-0.5,4.5-1.4,5.7c-0.9,1.2-2.4,1.8-4.3,1.8c-1.5,0-2.7-0.6-3.5-1.8c-0.8-1.2-1.2-2.8-1.2-4.8l0-8c0-0.7,0-1.3-0.1-1.8
			c-0.1-0.5-0.2-0.9-0.4-1.2c-0.2-0.3-0.5-0.5-0.8-0.6c-0.3-0.1-0.8-0.2-1.3-0.2h-3.2v0.9c0.9,0,1.4,0.3,1.7,0.8
			c0.2,0.5,0.4,1.3,0.4,2.1v7.1c0,5.9,2.6,8.8,7.9,8.8c1.4,0,2.6-0.2,3.6-0.6c1-0.4,1.8-1,2.4-1.7c0.6-0.8,1.1-1.7,1.3-2.8
			c0.3-1.1,0.4-2.3,0.4-3.7v-11h-1.5V24.6z M94,33.1c0.8,0,1.4-0.2,1.7-0.6c0.3-0.4,0.6-0.9,0.8-1.5l0.8-2.3l-0.8-0.3
			c-0.5,1.3-1.1,2.2-1.9,2.6c-0.8,0.5-1.7,0.7-2.7,0.7h-5v-8.1h7.6v-1.3h-7.6v-7.4h4.7c1.2,0,2.1,0.3,2.7,0.8c0.6,0.5,1,1.5,1,2.7
			h0.9V16c0-0.3,0-0.6-0.1-0.9c-0.1-0.3-0.2-0.5-0.4-0.8c-0.2-0.2-0.4-0.4-0.8-0.5c-0.3-0.1-0.7-0.2-1.2-0.2H80.8v0.9h0.3
			c0.9,0,1.4,0.3,1.7,0.8c0.2,0.5,0.4,1.3,0.4,2.1v15.6H94z M170.1,13.6l-5.7,9.3l-4-6c-0.2-0.4-0.5-0.8-0.8-1.1
			c-0.3-0.4-0.7-0.7-1.1-1c-0.4-0.3-0.8-0.6-1.3-0.8c-0.5-0.2-1-0.3-1.5-0.3h-2.9v0.7c0.2,0.1,0.5,0.1,0.7,0.3
			c0.4,0.2,0.7,0.4,1,0.8c0.3,0.3,0.7,0.6,1,1c0.3,0.4,0.6,0.7,0.8,1.1l5.2,7.8v7.8h3.8v-8.6l6.6-10.9H170.1z M64.4,42.2L63,40h-1
			l2,3.1v2h0.9v-2l2-3h-1L64.4,42.2z M103.2,43h1.3v0.9c-0.3,0.2-0.7,0.4-1.2,0.4c-1,0-1.7-0.8-1.7-1.8v0c0-1,0.7-1.8,1.6-1.8
			c0.6,0,1,0.2,1.4,0.5l0.6-0.7c-0.5-0.4-1.1-0.7-1.9-0.7c-1.5,0-2.6,1.2-2.6,2.6v0c0,1.5,1,2.6,2.6,2.6c0.9,0,1.6-0.4,2.1-0.8v-2.1
			h-2.1V43z M97.2,39.9c-1.5,0-2.6,1.2-2.6,2.6v0c0,1.4,1.1,2.6,2.6,2.6c1.5,0,2.6-1.2,2.6-2.6v0C99.8,41.1,98.7,39.9,97.2,39.9z
			 M98.9,42.5c0,1-0.7,1.8-1.7,1.8c-1,0-1.7-0.8-1.7-1.8v0c0-1,0.7-1.8,1.7-1.8C98.2,40.7,98.9,41.5,98.9,42.5L98.9,42.5z M88,42.1
			c-1-0.2-1.2-0.4-1.2-0.8v0c0-0.3,0.3-0.6,0.8-0.6c0.5,0,0.9,0.2,1.4,0.5l0.5-0.7c-0.5-0.4-1.1-0.6-1.8-0.6c-1,0-1.7,0.6-1.7,1.5v0
			c0,0.9,0.6,1.3,1.7,1.5c0.9,0.2,1.1,0.4,1.1,0.8v0c0,0.4-0.3,0.6-0.9,0.6c-0.6,0-1.1-0.2-1.6-0.7l-0.5,0.6
			c0.6,0.5,1.3,0.8,2.1,0.8c1.1,0,1.8-0.6,1.8-1.5v0C89.6,42.7,89,42.4,88,42.1z M115.7,43.5L113,40h-0.8V45h0.9v-3.6l2.8,3.6h0.7
			V40h-0.9V43.5z M82.8,41.6L82.8,41.6c0-0.5-0.2-0.8-0.4-1.1c-0.3-0.3-0.8-0.5-1.4-0.5h-2.2V45h0.9v-1.8h1.1l1.2,1.8h1l-1.4-1.9
			C82.3,42.9,82.8,42.4,82.8,41.6z M79.6,42.5v-1.7h1.3c0.7,0,1,0.3,1,0.8v0c0,0.5-0.4,0.8-1,0.8H79.6z M108.3,39.9l-2.2,5.1h0.9
			l0.5-1.2h2.4l0.5,1.2h0.9l-2.2-5.1H108.3z M107.8,43l0.9-2l0.9,2H107.8z M76.6,42.9c0,0.9-0.5,1.4-1.3,1.4c-0.8,0-1.3-0.5-1.3-1.4
			V40h-0.9v2.9c0,1.5,0.8,2.2,2.1,2.2c1.3,0,2.2-0.8,2.2-2.3V40h-0.9V42.9z M91.5,40h-0.9V45h3.5v-0.8h-2.6V40z M69.6,39.9
			c-1.5,0-2.6,1.2-2.6,2.6v0c0,1.4,1.1,2.6,2.6,2.6c1.5,0,2.6-1.2,2.6-2.6v0C72.2,41.1,71.1,39.9,69.6,39.9z M71.3,42.5
			c0,1-0.7,1.8-1.7,1.8c-1,0-1.7-0.8-1.7-1.8v0c0-1,0.7-1.8,1.7-1.8C70.6,40.7,71.3,41.5,71.3,42.5L71.3,42.5z"/>
	</g>
</g>
</svg>
