<?xml version="1.0" encoding="utf-8"?>
<!-- Generator: Adobe Illustrator 23.0.6, SVG Export Plug-In . SVG Version: 6.00 Build 0)  -->
<svg version="1.1" id="Layer_1" xmlns="http://www.w3.org/2000/svg" xmlns:xlink="http://www.w3.org/1999/xlink" x="0px" y="0px"
	 viewBox="0 0 135 79" style="enable-background:new 0 0 135 79;" xml:space="preserve">
<style type="text/css">
	.st0{fill-rule:evenodd;clip-rule:evenodd;}
</style>
<g>
	<g>
		<path class="st0" d="M44.8,36.1c2.9,2.4,6,1.9,9.7-0.3c3.3-2,6.9-5.5,11.1-9.5l0,0c0,0,0.1-0.1,0.1-0.1l0,0c0-0.1,0.1-0.1,0.1-0.2
			l0,0c0,0,0,0,0,0l0,0l0,0l0,0l0,0c0,0,0,0,0,0l0,0l0,0l0,0l0,0l0,0l0,0l0,0l0,0l0,0l0,0l0,0l0,0l0,0l0,0l0,0l0,0l0,0l0,0l0,0l0,0
			l0,0l0,0v0v0v0l0,0l0,0l0,0l0,0l0,0l0,0l0,0l0,0l0,0l0,0l0,0l0,0l0,0l0,0l0,0l0,0l0,0l0,0l0,0l0,0l0,0l0,0c0,0,0,0,0,0l0,0l0,0
			l0,0l0,0c0,0,0,0,0,0l0,0c0-0.1-0.1-0.1-0.1-0.2l0,0c0,0-0.1-0.1-0.1-0.1l0,0c-4.2-4-7.8-7.5-11.1-9.5c-3.6-2.2-6.8-2.7-9.7-0.3
			c-0.3,0.2-0.5,0.5-0.7,0.7c-1.3,1.4-2,3-2.1,4.8c-0.1,1.7,0.5,3.5,1.8,5.1c-1.3,1.6-1.9,3.4-1.8,5.1c0.1,1.8,0.8,3.4,2.1,4.8
			C44.3,35.6,44.5,35.9,44.8,36.1z M46.4,25.4L46.4,25.4L46.4,25.4L46.4,25.4L46.4,25.4L46.4,25.4L46.4,25.4L46.4,25.4l0-0.1l0,0v0
			l0,0l0,0l0,0v0c0,0,0-0.1,0-0.1l0,0l0,0l0,0l0,0l0,0l0,0l0,0l0,0l0,0l0,0l0,0l0,0l0,0l0,0l0,0l0,0l0,0l0,0l0,0l0,0l0,0l0,0l0,0
			l0,0l0,0l0,0l0,0l0,0l0,0c0,0,0,0-0.1-0.1h0l0,0l0,0l0,0l0,0l0,0l0,0l0,0l0,0c-0.2-0.2-0.4-0.4-0.6-0.6c-1-1.1-1.4-2.4-1.3-3.6
			c0.1-1.2,0.6-2.4,1.5-3.4c0.2-0.2,0.4-0.4,0.5-0.5c2-1.6,4.3-1.2,7,0.5c2.4,1.5,5.1,3.9,8.2,6.8L56,21.9l-7.9-2.8l7.4,3.9l3.1,1.6
			l-2.5,0.2l-8.3,0.6l8.3,0.6l3.1,0.2l-3.7,2l-7.4,3.9l7.9-2.8l4.8-1.7c-2.8,2.6-5.3,4.8-7.6,6.2c-2.7,1.7-5.1,2.1-7,0.5
			c-0.2-0.2-0.4-0.3-0.5-0.5c-0.9-1-1.5-2.2-1.5-3.4c-0.1-1.2,0.3-2.5,1.3-3.6c0.2-0.2,0.3-0.4,0.6-0.6l0,0l0,0l0,0l0,0l0,0l0,0l0,0
			l0,0l0,0c0,0,0,0,0.1-0.1l0,0l0,0l0,0l0,0l0,0l0,0l0,0l0,0l0,0l0,0l0,0l0,0l0,0l0,0l0,0l0,0l0,0l0,0l0,0l0,0l0,0l0,0l0,0l0,0l0,0
			l0,0l0,0l0,0l0,0c0,0,0-0.1,0-0.1v0l0,0l0,0l0,0v0l0,0l0,0l0,0l0,0l0,0l0,0l0,0L46.4,25.4L46.4,25.4L46.4,25.4L46.4,25.4
			L46.4,25.4L46.4,25.4L46.4,25.4L46.4,25.4z M67.5,49.2c1.6,1.3,3.4,1.9,5.2,1.8c1.8-0.1,3.5-0.8,4.8-2.1c0.2-0.2,0.5-0.5,0.7-0.7
			c2.4-2.9,1.9-6-0.3-9.6c-2-3.3-5.5-6.9-9.6-11l0,0c0,0-0.1-0.1-0.1-0.1l0,0c-0.1,0-0.1-0.1-0.2-0.1l0,0c0,0,0,0,0,0l0,0l0,0l0,0
			l0,0c0,0,0,0,0,0l0,0l0,0l0,0l0,0l0,0l0,0l0,0l0,0l0,0l0,0l0,0l0,0l0,0l0,0l0,0l0,0l0,0l0,0l0,0l0,0h0l0,0h0h0h0l0,0h0l0,0l0,0
			l0,0l0,0l0,0l0,0l0,0l0,0l0,0l0,0l0,0l0,0l0,0l0,0l0,0l0,0l0,0l0,0l0,0l0,0c0,0,0,0,0,0l0,0l0,0l0,0l0,0c0,0,0,0,0,0l0,0
			c-0.1,0-0.1,0.1-0.2,0.1l0,0c0,0-0.1,0.1-0.1,0.1l0,0c-4,4.2-7.6,7.8-9.6,11c-2.2,3.6-2.7,6.7-0.3,9.6c0.2,0.3,0.5,0.5,0.7,0.7
			c1.4,1.3,3.1,2,4.8,2.1C64.1,51,65.9,50.5,67.5,49.2z M58.5,46.7c-1.7-2-1.2-4.3,0.5-7c1.5-2.4,3.9-5.1,6.8-8.1l-1.9,5.4l-2.8,7.8
			l3.9-7.3l1.6-3.1l0.2,2.5l0.6,8.3l0.6-8.3l0.2-3.1l2,3.7l3.9,7.3l-2.8-7.8l-1.7-4.8c2.6,2.8,4.9,5.3,6.3,7.5
			c1.7,2.7,2.1,5.1,0.5,7c-0.2,0.2-0.3,0.4-0.5,0.5c-1,0.9-2.2,1.5-3.4,1.5c-1.2,0.1-2.5-0.3-3.7-1.3c-0.2-0.2-0.4-0.3-0.6-0.6l0,0
			l0,0l0,0l0,0l0,0l0,0l0,0l0,0l0,0c0,0,0,0-0.1-0.1l0,0l0,0l0,0l0,0l0,0l0,0l0,0l0,0l0,0l0,0l0,0l0,0l0,0l0,0l0,0l0,0l0,0l0,0l0,0
			l0,0l0,0l0,0l0,0l0,0l0,0l0,0l0,0l0,0l0,0c0,0-0.1,0-0.1,0h0l0,0l0,0l0,0l0,0l0,0l0,0l0,0l0,0l0,0l0,0l0,0l0,0h0l0,0h0h0h0h0l0,0
			h0l0,0l0,0l0,0l0,0l0,0l0,0l0,0l0,0l0,0l0,0l0,0l0,0h0c0,0-0.1,0-0.1,0l0,0l0,0l0,0l0,0l0,0l0,0l0,0l0,0l0,0l0,0l0,0l0,0l0,0l0,0
			l0,0l0,0l0,0l0,0l0,0l0,0l0,0l0,0l0,0l0,0l0,0l0,0l0,0l0,0l0,0c0,0,0,0-0.1,0.1l0,0l0,0l0,0l0,0l0,0l0,0l0,0l0,0l0,0
			c-0.2,0.2-0.4,0.4-0.6,0.6c-1.1,1-2.4,1.4-3.7,1.3c-1.2-0.1-2.4-0.6-3.4-1.5C58.9,47,58.7,46.8,58.5,46.7z M66.7,23.5L66.7,23.5
			c0,0,0.1,0.1,0.1,0.1l0,0c0.1,0,0.1,0.1,0.2,0.1l0,0c0,0,0,0,0,0l0,0l0,0l0,0l0,0c0,0,0,0,0,0l0,0l0,0l0,0l0,0l0,0l0,0l0,0l0,0
			l0,0l0,0l0,0l0,0l0,0l0,0l0,0l0,0l0,0l0,0l0,0l0,0l0,0l0,0h0h0h0l0,0l0,0l0,0l0,0l0,0l0,0l0,0l0,0l0,0l0,0l0,0l0,0l0,0l0,0l0,0
			l0,0l0,0l0,0l0,0l0,0l0,0l0,0c0,0,0,0,0,0l0,0l0,0l0,0l0,0c0,0,0,0,0,0l0,0c0.1,0,0.1-0.1,0.2-0.1l0,0c0,0,0.1-0.1,0.1-0.1l0,0
			c4-4.2,7.6-7.8,9.6-11c2.2-3.6,2.7-6.7,0.3-9.6c-0.2-0.3-0.5-0.5-0.7-0.7c-1.4-1.3-3.1-2-4.8-2.1c-1.8-0.1-3.6,0.5-5.2,1.8
			c-1.6-1.3-3.4-1.9-5.2-1.8c-1.8,0.1-3.5,0.8-4.8,2.1c-0.2,0.2-0.5,0.5-0.7,0.7c-2.4,2.9-1.9,6,0.3,9.6
			C59.1,15.7,62.7,19.3,66.7,23.5z M58.5,4.3c0.2-0.2,0.3-0.4,0.5-0.5c1-0.9,2.2-1.5,3.4-1.5c1.2-0.1,2.5,0.3,3.7,1.3
			c0.2,0.2,0.4,0.3,0.6,0.6l0,0l0,0l0,0l0,0l0,0l0,0l0,0l0,0h0c0,0,0,0,0.1,0.1l0,0l0,0l0,0l0,0l0,0l0,0l0,0l0,0l0,0l0,0l0,0l0,0
			l0,0l0,0l0,0l0,0l0,0l0,0l0,0l0,0l0,0l0,0l0,0l0,0l0,0l0,0l0,0l0,0l0,0c0,0,0.1,0,0.1,0h0l0,0l0,0l0,0l0,0l0,0l0,0l0,0l0,0l0,0
			l0,0l0,0h0l0,0l0,0h0h0h0h0l0,0l0,0h0l0,0l0,0l0,0l0,0l0,0l0,0l0,0l0,0l0,0l0,0l0,0h0c0,0,0.1,0,0.1,0l0,0l0,0l0,0l0,0l0,0l0,0
			l0,0l0,0l0,0l0,0l0,0l0,0l0,0l0,0l0,0l0,0l0,0l0,0l0,0l0,0l0,0l0,0l0,0l0,0l0,0l0,0l0,0l0,0l0,0c0,0,0,0,0.1-0.1h0l0,0l0,0l0,0
			l0,0l0,0l0,0l0,0l0,0c0.2-0.2,0.4-0.4,0.6-0.6c1.1-1,2.4-1.4,3.7-1.3C73.8,2.3,75,2.8,76,3.7c0.2,0.2,0.4,0.4,0.5,0.5
			c1.7,2,1.2,4.3-0.5,7c-1.5,2.4-3.9,5.1-6.8,8.1l1.9-5.4l2.8-7.8l-3.9,7.3l-1.6,3.1l-0.2-2.5l-0.6-8.3l-0.6,8.3l-0.2,3.1l-2-3.6
			l-3.9-7.3l2.8,7.8l1.7,4.8c-2.6-2.8-4.9-5.3-6.3-7.5C57.3,8.6,56.9,6.2,58.5,4.3z M69.5,24.7C69.4,24.7,69.4,24.7,69.5,24.7
			l-0.1,0.1c0,0.1-0.1,0.1-0.1,0.2l0,0c0,0,0,0,0,0l0,0l0,0l0,0l0,0c0,0,0,0,0,0l0,0l0,0l0,0l0,0l0,0l0,0l0,0l0,0l0,0l0,0l0,0l0,0
			l0,0l0,0l0,0l0,0l0,0v0l0,0l0,0l0,0l0,0v0v0v0l0,0l0,0l0,0l0,0v0l0,0l0,0l0,0l0,0l0,0l0,0l0,0l0,0l0,0l0,0l0,0l0,0l0,0l0,0l0,0
			l0,0l0,0c0,0,0,0,0,0l0,0l0,0l0,0l0,0c0,0,0,0,0,0l0,0c0,0.1,0.1,0.1,0.1,0.2l0,0c0,0,0.1,0.1,0.1,0.1l0,0c4.2,4,7.8,7.5,11.1,9.5
			c3.6,2.2,6.8,2.7,9.7,0.3c0.3-0.2,0.5-0.5,0.7-0.7c1.3-1.4,2-3,2.1-4.8c0.1-1.7-0.5-3.5-1.8-5.1c1.3-1.6,1.9-3.4,1.8-5.1
			c-0.1-1.8-0.8-3.4-2.1-4.8c-0.2-0.2-0.5-0.5-0.7-0.7c-2.9-2.4-6-1.9-9.7,0.3C77.3,17.2,73.7,20.6,69.5,24.7L69.5,24.7z M79.5,27.9
			l-3.1-1.6l2.5-0.2l8.3-0.6l-8.3-0.6l-3.1-0.2l3.7-1.9l7.4-3.9L79,21.6l-4.8,1.7c2.8-2.6,5.3-4.8,7.6-6.2c2.7-1.7,5.1-2.1,7-0.5
			c0.2,0.2,0.4,0.3,0.5,0.5c0.9,1,1.5,2.2,1.5,3.4c0.1,1.2-0.3,2.5-1.3,3.6c-0.2,0.2-0.3,0.4-0.6,0.6l0,0l0,0l0,0l0,0l0,0l0,0l0,0
			l0,0h0c0,0,0,0-0.1,0.1l0,0l0,0l0,0l0,0l0,0l0,0l0,0l0,0l0,0l0,0l0,0l0,0l0,0l0,0l0,0l0,0l0,0l0,0l0,0l0,0l0,0l0,0l0,0l0,0l0,0
			l0,0l0,0l0,0l0,0c0,0,0,0.1,0,0.1v0l0,0l0,0l0,0l0,0l0,0l0,0l0,0l0,0l0,0l0,0l0,0l0,0v0v0l0,0v0v0l0,0v0v0l0,0l0,0l0,0l0,0l0,0
			l0,0l0,0l0,0l0,0l0,0l0,0l0,0v0c0,0,0,0.1,0,0.1l0,0l0,0l0,0l0,0l0,0l0,0l0,0l0,0l0,0l0,0l0,0l0,0l0,0l0,0l0,0l0,0l0,0l0,0l0,0
			l0,0l0,0l0,0l0,0l0,0l0,0l0,0l0,0l0,0l0,0c0,0,0,0,0.1,0.1l0,0l0,0l0,0l0,0l0,0l0,0l0,0l0,0l0,0c0.2,0.2,0.4,0.4,0.6,0.6
			c1,1.1,1.4,2.4,1.3,3.6c-0.1,1.2-0.6,2.4-1.5,3.4c-0.2,0.2-0.4,0.4-0.5,0.5c-2,1.6-4.3,1.2-7-0.5c-2.4-1.5-5.1-3.9-8.2-6.8L79,29
			l7.9,2.8L79.5,27.9z M7,65.6c-0.3-0.2-0.6-0.4-1-0.6c-0.4-0.2-0.9-0.3-1.4-0.4c-0.5-0.1-0.9-0.2-1.2-0.3c-0.3-0.1-0.6-0.2-0.7-0.3
			c-0.2-0.1-0.3-0.3-0.4-0.4c-0.1-0.2-0.1-0.3-0.1-0.5v0c0-0.3,0.1-0.6,0.4-0.9c0.3-0.2,0.7-0.3,1.2-0.3c0.5,0,0.9,0.1,1.4,0.3
			c0.5,0.2,0.9,0.4,1.4,0.8l1-1.3C7,61,6.5,60.7,5.9,60.5c-0.6-0.2-1.3-0.3-2-0.3c-0.5,0-1,0.1-1.4,0.2C2,60.5,1.7,60.7,1.4,61
			c-0.3,0.3-0.5,0.6-0.7,0.9c-0.2,0.4-0.3,0.8-0.3,1.2v0c0,0.5,0.1,0.9,0.2,1.2c0.2,0.3,0.4,0.6,0.7,0.8c0.3,0.2,0.6,0.4,1.1,0.6
			c0.4,0.2,0.9,0.3,1.4,0.4c0.5,0.1,0.9,0.2,1.2,0.3c0.3,0.1,0.5,0.2,0.7,0.3c0.2,0.1,0.3,0.3,0.3,0.4c0.1,0.1,0.1,0.3,0.1,0.5v0
			c0,0.4-0.2,0.7-0.5,0.9C5.3,68.9,4.8,69,4.3,69c-0.6,0-1.2-0.1-1.7-0.3c-0.5-0.2-1-0.6-1.5-1L0,68.9c0.6,0.5,1.3,1,2,1.2
			c0.7,0.3,1.5,0.4,2.3,0.4c0.5,0,1-0.1,1.5-0.2c0.4-0.1,0.8-0.3,1.1-0.6c0.3-0.3,0.6-0.6,0.7-1c0.2-0.4,0.3-0.8,0.3-1.3v0
			c0-0.4-0.1-0.8-0.2-1.1C7.5,66.1,7.3,65.8,7,65.6z M113.4,61.9h3.2v8.5h1.8v-8.5h3.2v-1.6h-8.2V61.9z M107.2,66.1
			c0,0.9-0.2,1.6-0.7,2.1c-0.5,0.5-1.1,0.7-1.9,0.7c-0.8,0-1.4-0.2-1.9-0.7c-0.5-0.5-0.7-1.2-0.7-2.2v-5.8h-1.8v5.8
			c0,0.7,0.1,1.4,0.3,1.9c0.2,0.6,0.5,1,0.9,1.4c0.4,0.4,0.8,0.7,1.4,0.8c0.5,0.2,1.1,0.3,1.8,0.3c0.7,0,1.3-0.1,1.8-0.3
			c0.5-0.2,1-0.5,1.4-0.9c0.4-0.4,0.7-0.9,0.9-1.4c0.2-0.6,0.3-1.2,0.3-2v-5.7h-1.8V66.1z M30.3,60.2h-1.7l-4.5,10.2H26l1-2.4h4.8
			l1,2.4h1.9L30.3,60.2z M27.7,66.4l1.7-4l1.8,4H27.7z M20.2,65.2c0.2-0.4,0.3-0.9,0.3-1.5v0c0-0.5-0.1-1-0.3-1.4
			c-0.2-0.4-0.4-0.8-0.8-1.1c-0.3-0.3-0.7-0.5-1.2-0.7c-0.5-0.2-1-0.2-1.6-0.2h-4v10.1h1.8v-3.3h2c0.6,0,1.1-0.1,1.6-0.2
			c0.5-0.1,0.9-0.4,1.3-0.7C19.7,66,20,65.6,20.2,65.2z M18.7,63.7c0,0.5-0.2,1-0.6,1.3c-0.4,0.3-0.9,0.5-1.6,0.5h-2.1v-3.7h2.1
			c0.7,0,1.2,0.2,1.6,0.5C18.5,62.7,18.7,63.1,18.7,63.7L18.7,63.7z M51,66.9c0.2-0.4,0.4-0.8,0.6-1.2L50.3,65
			c-0.2,0.4-0.3,0.7-0.5,1c-0.2,0.3-0.4,0.6-0.6,0.9l-1.7-1.8c0.7-0.3,1.2-0.6,1.6-1c0.4-0.4,0.6-1,0.6-1.6v0c0-0.3-0.1-0.7-0.2-1
			c-0.1-0.3-0.3-0.6-0.6-0.8c-0.2-0.2-0.5-0.4-0.8-0.5c-0.3-0.1-0.7-0.2-1.1-0.2c-0.5,0-0.9,0.1-1.2,0.2c-0.4,0.1-0.7,0.3-0.9,0.6
			c-0.3,0.2-0.4,0.5-0.6,0.8c-0.1,0.3-0.2,0.6-0.2,1v0c0,0.4,0.1,0.7,0.2,1.1c0.1,0.3,0.3,0.7,0.6,1.1c-0.7,0.3-1.2,0.7-1.6,1.1
			c-0.4,0.5-0.6,1-0.6,1.7v0c0,0.4,0.1,0.8,0.3,1.2c0.2,0.4,0.4,0.7,0.7,0.9c0.3,0.3,0.6,0.4,1,0.6c0.4,0.1,0.8,0.2,1.3,0.2
			c0.6,0,1.2-0.1,1.7-0.4c0.5-0.2,1-0.6,1.4-1l1.4,1.4l1.3-0.9l-1.6-1.6C50.6,67.7,50.8,67.3,51,66.9z M45.8,62.7
			c0-0.4,0.1-0.6,0.3-0.9c0.2-0.2,0.5-0.3,0.9-0.3c0.3,0,0.6,0.1,0.8,0.3c0.2,0.2,0.3,0.5,0.3,0.8v0c0,0.4-0.1,0.7-0.4,0.9
			c-0.3,0.2-0.7,0.5-1.2,0.7c-0.3-0.3-0.5-0.6-0.6-0.8C45.8,63.3,45.8,63,45.8,62.7L45.8,62.7z M47.3,68.9c-0.3,0.2-0.7,0.2-1,0.2
			c-0.5,0-0.9-0.1-1.2-0.4c-0.3-0.3-0.5-0.6-0.5-1.1v0c0-0.3,0.1-0.6,0.3-0.9c0.2-0.3,0.6-0.5,1-0.7l2.3,2.3
			C47.9,68.5,47.6,68.7,47.3,68.9z M68.6,66c-0.2-0.2-0.4-0.4-0.6-0.5c-0.2-0.1-0.5-0.3-0.8-0.4c0.2-0.1,0.4-0.2,0.5-0.3
			c0.2-0.1,0.3-0.3,0.5-0.5c0.1-0.2,0.2-0.4,0.3-0.6c0.1-0.2,0.1-0.5,0.1-0.8v0c0-0.7-0.2-1.2-0.7-1.7c-0.6-0.6-1.5-0.9-2.7-0.9
			h-4.6v10.1h4.7c0.6,0,1.1-0.1,1.5-0.2c0.5-0.1,0.9-0.3,1.2-0.5c0.3-0.2,0.6-0.5,0.8-0.9c0.2-0.3,0.3-0.7,0.3-1.2v0
			c0-0.3,0-0.6-0.1-0.9C68.9,66.4,68.8,66.2,68.6,66z M62.4,61.9H65c0.6,0,1,0.1,1.3,0.3c0.3,0.2,0.5,0.5,0.5,0.9v0
			c0,0.5-0.2,0.8-0.5,1c-0.3,0.2-0.8,0.3-1.4,0.3h-2.4V61.9z M67.4,67.5c0,0.5-0.2,0.8-0.5,1c-0.3,0.2-0.8,0.3-1.4,0.3h-3v-2.8h2.8
			c0.7,0,1.2,0.1,1.6,0.4C67.2,66.7,67.4,67,67.4,67.5L67.4,67.5z M81.4,61.9v-1.6h-7.5v10.1h7.6v-1.6h-5.8v-2.7h5.1v-1.6h-5.1v-2.6
			H81.4z M133,60.3l-2.9,4.5l-2.8-4.5h-2.1l4,6.1v4h1.8v-4l4-6.1H133z M89.9,60.2l-4.5,10.2h1.8l1-2.4h4.8l1,2.4H96l-4.5-10.2H89.9z
			 M88.9,66.4l1.7-4l1.8,4H88.9z M18.8,74.8h-0.7v4.1H21v-0.7h-2.2V74.8z M28.8,77.2c0,0.4-0.1,0.7-0.3,0.9
			c-0.2,0.2-0.4,0.3-0.8,0.3c-0.3,0-0.6-0.1-0.8-0.3c-0.2-0.2-0.3-0.5-0.3-0.9v-2.3h-0.7v2.4c0,0.3,0,0.6,0.1,0.8
			c0.1,0.2,0.2,0.4,0.4,0.6c0.2,0.2,0.3,0.3,0.6,0.3c0.2,0.1,0.5,0.1,0.7,0.1c0.3,0,0.5,0,0.7-0.1c0.2-0.1,0.4-0.2,0.6-0.3
			c0.2-0.2,0.3-0.3,0.4-0.6c0.1-0.2,0.1-0.5,0.1-0.8v-2.3h-0.7V77.2z M54.8,77.2c0.1-0.1,0.2-0.2,0.3-0.3c0.1-0.1,0.2-0.2,0.2-0.4
			c0-0.1,0.1-0.3,0.1-0.5v0c0-0.2,0-0.3-0.1-0.5c-0.1-0.1-0.1-0.3-0.3-0.4c-0.1-0.1-0.3-0.2-0.5-0.3c-0.2-0.1-0.4-0.1-0.7-0.1H52
			v4.1h0.7v-1.4h0.9h0l1,1.4h0.9l-1.1-1.6C54.5,77.3,54.6,77.3,54.8,77.2z M52.7,76.9v-1.4h1.1c0.3,0,0.5,0.1,0.6,0.2
			c0.2,0.1,0.2,0.3,0.2,0.5v0c0,0.2-0.1,0.4-0.2,0.5c-0.2,0.1-0.4,0.2-0.6,0.2H52.7z M81.1,74.8l-1.8,4.1H80l0.4-1h2l0.4,1h0.8
			l-1.8-4.1H81.1z M80.7,77.3l0.7-1.6l0.7,1.6H80.7z M88.2,75.5h1.3v3.4h0.7v-3.4h1.3v-0.7h-3.4V75.5z M62.1,76.6l-1.2-1.8H60
			l1.6,2.5v1.6h0.7v-1.6l1.6-2.5h-0.8L62.1,76.6z M73.6,77.7l-2.2-2.8h-0.7v4.1h0.7V76l2.3,2.9h0.6v-4.1h-0.7V77.7z M38.2,74.8h-0.8
			l-1,1.5l-1-1.5h-0.9l1.4,2l-1.5,2.1h0.8l1.1-1.6l1.1,1.6h0.9l-1.5-2.1L38.2,74.8z M114.5,77.2h2.1v-0.7h-2.1v-1.1h2.3v-0.7h-3.1
			v4.1h3.1v-0.7h-2.4V77.2z M46,77.2c0,0.4-0.1,0.7-0.3,0.9c-0.2,0.2-0.4,0.3-0.8,0.3c-0.3,0-0.6-0.1-0.8-0.3
			c-0.2-0.2-0.3-0.5-0.3-0.9v-2.3h-0.7v2.4c0,0.3,0,0.6,0.1,0.8c0.1,0.2,0.2,0.4,0.4,0.6c0.2,0.2,0.3,0.3,0.6,0.3
			C44.4,79,44.7,79,45,79c0.3,0,0.5,0,0.7-0.1c0.2-0.1,0.4-0.2,0.6-0.3c0.2-0.2,0.3-0.3,0.4-0.6c0.1-0.2,0.1-0.5,0.1-0.8v-2.3H46
			V77.2z M108.1,77.2c0.1-0.1,0.2-0.2,0.3-0.3c0.1-0.1,0.2-0.2,0.2-0.4c0-0.1,0.1-0.3,0.1-0.5v0c0-0.2,0-0.3-0.1-0.5
			c-0.1-0.1-0.1-0.3-0.3-0.4c-0.1-0.1-0.3-0.2-0.5-0.3c-0.2-0.1-0.4-0.1-0.7-0.1h-1.8v4.1h0.7v-1.4h0.9h0l1,1.4h0.9l-1.1-1.6
			C107.8,77.3,108,77.3,108.1,77.2z M106,76.9v-1.4h1.1c0.3,0,0.5,0.1,0.6,0.2c0.2,0.1,0.2,0.3,0.2,0.5v0c0,0.2-0.1,0.4-0.2,0.5
			c-0.2,0.1-0.4,0.2-0.6,0.2H106z M99.3,77.2c0,0.4-0.1,0.7-0.3,0.9c-0.2,0.2-0.4,0.3-0.8,0.3c-0.3,0-0.6-0.1-0.8-0.3
			c-0.2-0.2-0.3-0.5-0.3-0.9v-2.3h-0.7v2.4c0,0.3,0,0.6,0.1,0.8c0.1,0.2,0.2,0.4,0.4,0.6c0.2,0.2,0.3,0.3,0.6,0.3
			C97.8,79,98,79,98.3,79c0.3,0,0.5,0,0.7-0.1c0.2-0.1,0.4-0.2,0.6-0.3c0.2-0.2,0.3-0.3,0.4-0.6c0.1-0.2,0.1-0.5,0.1-0.8v-2.3h-0.7
			V77.2z"/>
	</g>
</g>
</svg>
