<?xml version="1.0" encoding="utf-8"?>
<!-- Generator: Adobe Illustrator 23.0.6, SVG Export Plug-In . SVG Version: 6.00 Build 0)  -->
<svg version="1.1" id="Layer_1" xmlns="http://www.w3.org/2000/svg" xmlns:xlink="http://www.w3.org/1999/xlink" x="0px" y="0px"
	 viewBox="0 0 101 76" style="enable-background:new 0 0 101 76;" xml:space="preserve">
<g>
	<g>
		<path d="M6.9,54.6c-0.3-0.2-0.6-0.3-0.9-0.3c-0.3,0-0.7,0.1-1,0.2c-0.4,0.2-0.6,0.4-0.8,0.7c-0.2,0.3-0.3,0.6-0.3,0.9
			c0,0.3,0.1,0.7,0.3,1.1l0.6,1.2l3.6-1.7l-0.6-1.2C7.5,55.1,7.2,54.8,6.9,54.6z M5,57.4l-0.2-0.5c-0.2-0.4-0.2-0.7-0.1-1
			c0.1-0.3,0.3-0.5,0.7-0.7C5.7,55,6,55,6.3,55.1c0.3,0.1,0.5,0.4,0.7,0.7l0.2,0.5L5,57.4z M4.9,48l-0.6,0.2l0.4,1.5l-1,0.3
			l-0.4-1.3l-0.6,0.2l0.4,1.3l-1,0.3l-0.4-1.5L1.1,49l0.6,2.2l3.8-1L4.9,48z M1.9,44.6c0.1-0.1,0.2-0.3,0.3-0.4
			c0.1-0.2,0.1-0.4,0.2-0.6c0-0.2,0.1-0.3,0.1-0.5c0-0.1,0.1-0.2,0.2-0.3c0.1-0.1,0.2-0.1,0.3-0.1c0.1,0,0.3,0,0.4,0.1
			c0.1,0.1,0.2,0.2,0.2,0.4c0,0.2,0,0.3-0.1,0.4c-0.1,0.1-0.2,0.2-0.4,0.2l0.1,0.8c0.2,0,0.4-0.1,0.6-0.3c0.2-0.1,0.3-0.3,0.4-0.6
			c0.1-0.2,0.1-0.5,0.1-0.7c0-0.3-0.1-0.5-0.2-0.7c-0.1-0.2-0.3-0.3-0.5-0.4c-0.2-0.1-0.4-0.1-0.6-0.1c-0.3,0-0.5,0.1-0.6,0.2
			C2.1,42.3,2,42.4,2,42.6c-0.1,0.2-0.1,0.4-0.2,0.6c0,0.2-0.1,0.3-0.1,0.4c0,0.1-0.1,0.2-0.2,0.3C1.4,44,1.3,44,1.2,44
			c-0.1,0-0.3,0-0.3-0.1c-0.1-0.1-0.1-0.2-0.1-0.3c0-0.2,0-0.3,0.1-0.4C0.9,43.1,1,43,1.2,43l-0.1-0.8c-0.3,0.1-0.6,0.2-0.8,0.5
			c-0.2,0.3-0.2,0.6-0.2,1c0,0.4,0.2,0.7,0.4,0.9c0.2,0.2,0.5,0.3,0.8,0.3C1.6,44.8,1.8,44.8,1.9,44.6z M4,37.4l-4-0.2L0,38l4,0.2
			L4,37.4z M1.5,32.9c0.3,0.2,0.6,0.4,1,0.5c0.4,0.1,0.7,0.1,1.1,0c0.3-0.1,0.6-0.3,0.8-0.5c0.2-0.2,0.4-0.6,0.5-0.9
			c0.1-0.3,0.1-0.6,0-0.9c-0.1-0.3-0.2-0.5-0.4-0.7c-0.2-0.2-0.4-0.4-0.6-0.5l-0.7-0.2l-0.4,1.9l0.6,0.1l0.3-1.3
			c0.3,0.1,0.5,0.3,0.6,0.5c0.1,0.2,0.2,0.5,0.1,0.8c-0.1,0.4-0.3,0.6-0.5,0.8c-0.3,0.2-0.6,0.2-1,0.1c-0.3-0.1-0.5-0.2-0.6-0.3
			c-0.2-0.1-0.3-0.3-0.4-0.5c-0.1-0.2-0.1-0.4,0-0.6c0.1-0.2,0.1-0.4,0.3-0.5c0.1-0.1,0.3-0.2,0.5-0.3l0.2-0.8
			c-0.4,0-0.8,0.1-1.1,0.4c-0.3,0.3-0.5,0.6-0.6,1.1c-0.1,0.4-0.1,0.7,0,1C1,32.4,1.2,32.7,1.5,32.9z M6.7,26L4.2,25l3.2-0.5
			l0.3-0.7l-3.6-1.6l-0.3,0.7l2.5,1.1l-3.2,0.5l-0.3,0.7l3.6,1.6L6.7,26z M8.1,17.9c-0.1,0-0.1,0-0.2-0.1c-0.1-0.1-0.1-0.1-0.1-0.2
			c0-0.1,0-0.2,0.1-0.3c0.1-0.1,0.2-0.2,0.3-0.2c0.1,0,0.2,0,0.3,0.1c0,0,0.1,0,0.2,0.1l0.4-0.6l-0.1-0.1c-0.1-0.1-0.2-0.1-0.3-0.2
			c-0.2-0.1-0.4-0.1-0.7,0c-0.2,0.1-0.4,0.2-0.6,0.5C7.1,17.1,7,17.3,7,17.5c0,0.2,0,0.3,0.1,0.5c0.1,0.1,0.2,0.3,0.3,0.4
			c0.1,0.1,0.2,0.1,0.3,0.1c0.1,0,0.2,0,0.4,0l0.1,0C8.1,18.7,8,18.8,8,19c0,0.2,0,0.3,0.1,0.5c0.1,0.2,0.2,0.3,0.4,0.4
			c0.2,0.1,0.4,0.2,0.6,0.2c0.2,0,0.4,0,0.6-0.1c0.2-0.1,0.4-0.2,0.5-0.4c0.1-0.2,0.2-0.4,0.2-0.6c0-0.2,0-0.4-0.1-0.5
			c0,0-0.1-0.1-0.1-0.2l0.9-0.1l0.5-0.6l-3.2,0.2C8.2,17.9,8.1,17.9,8.1,17.9z M8.8,18.7c0.1-0.1,0.2-0.2,0.4-0.2
			c0.2,0,0.3,0,0.4,0.1c0.1,0.1,0.2,0.2,0.2,0.3c0,0.1,0,0.3-0.1,0.4c-0.1,0.1-0.2,0.2-0.4,0.2c-0.1,0-0.3,0-0.4-0.1
			c-0.1-0.1-0.2-0.2-0.2-0.3C8.6,18.9,8.7,18.8,8.8,18.7z M15.1,13.9c0.3-0.3,0.5-0.6,0.5-0.9c0-0.3-0.1-0.5-0.3-0.8
			c-0.2-0.2-0.4-0.3-0.6-0.3c-0.2,0-0.4,0-0.6,0.2c0.1-0.2,0.2-0.4,0.1-0.6c0-0.2-0.1-0.4-0.3-0.6c-0.2-0.2-0.5-0.3-0.7-0.3
			c-0.3,0-0.6,0.2-0.8,0.5l-1.2,1.1l2.8,2.8L15.1,13.9z M12.1,12.2l0.5-0.5c0.1-0.1,0.3-0.2,0.4-0.2c0.1,0,0.3,0,0.4,0.2
			c0.1,0.1,0.2,0.2,0.2,0.4c0,0.1-0.1,0.3-0.2,0.4L12.8,13L12.1,12.2z M13.7,12.8c0.1-0.1,0.3-0.2,0.4-0.2c0.1,0,0.3,0,0.4,0.2
			c0.1,0.1,0.2,0.3,0.2,0.4c0,0.1-0.1,0.3-0.2,0.4L14,14.1l-0.8-0.8L13.7,12.8z M19.5,10.4l-0.9-1.3l0.3-0.2l1.6,0.7l0.7-0.5
			l-1.7-0.7c0.2-0.2,0.3-0.5,0.4-0.7c0-0.3,0-0.5-0.2-0.7c-0.2-0.3-0.5-0.5-0.8-0.5c-0.3,0-0.7,0.1-1.1,0.3l-1.3,0.8l2.2,3.2
			L19.5,10.4z M17.6,7.7l0.5-0.4c0.2-0.1,0.4-0.2,0.5-0.2c0.2,0,0.3,0.1,0.4,0.3c0.2,0.3,0.1,0.6-0.2,0.9l-0.5,0.4L17.6,7.7z
			 M24.9,7.3l-0.1-0.8l1.5-0.6l0.6,0.6l0.8-0.3l-2.9-3l-0.8,0.4l0.2,4.1L24.9,7.3z M25.9,5.4l-1.1,0.5l-0.1-1.7L25.9,5.4z M31.7,4.9
			l-0.6-2.6l2.3,2.2l0.8-0.2l-0.8-3.8l-0.8,0.2l0.6,2.6l-2.3-2.2l-0.8,0.2L31,5.1L31.7,4.9z M39.4,3.9c0.4,0,0.8-0.1,1.1-0.3
			c0.3-0.2,0.5-0.4,0.7-0.7c0.2-0.3,0.2-0.6,0.2-1c0-0.4-0.1-0.7-0.3-1c-0.2-0.3-0.4-0.5-0.7-0.7C40.1,0.1,39.8,0,39.3,0l-1.4,0
			L38,3.9L39.4,3.9z M39.3,0.7c0.4,0,0.8,0.1,1,0.3c0.2,0.2,0.4,0.5,0.4,0.9c0,0.4-0.1,0.7-0.3,0.9c-0.2,0.2-0.6,0.3-1,0.4l-0.6,0
			l-0.1-2.5L39.3,0.7z M46.5,0.4l-0.8-0.1l-0.6,3.9L46,4.3L46.5,0.4z M51.3,2.7l0.9,3L52.9,6l1.2-3.7L53.3,2l-0.8,2.5l-0.9-3.1
			l-0.8-0.2L49.7,5l0.8,0.2L51.3,2.7z M58,8.3c0.3,0.2,0.6,0.2,0.9,0.3c0.3,0,0.6,0,0.8-0.2c0.2-0.1,0.5-0.3,0.6-0.5l0.4-0.7L59,6.3
			l-0.3,0.5l1.2,0.6c-0.2,0.2-0.4,0.4-0.7,0.4c-0.3,0-0.5,0-0.8-0.1c-0.3-0.2-0.5-0.4-0.6-0.7c-0.1-0.3,0-0.6,0.2-1
			c0.1-0.2,0.3-0.4,0.5-0.5c0.2-0.1,0.4-0.2,0.6-0.2c0.2,0,0.4,0,0.6,0.2c0.2,0.1,0.4,0.2,0.5,0.4c0.1,0.2,0.1,0.4,0.1,0.5l0.7,0.4
			C61,6.4,61,6.1,60.8,5.7c-0.2-0.4-0.5-0.6-0.9-0.9c-0.3-0.2-0.7-0.3-1-0.3c-0.3,0-0.7,0.1-0.9,0.3c-0.3,0.2-0.5,0.4-0.7,0.8
			C57.1,6,57,6.3,57,6.7c0,0.3,0.1,0.7,0.3,0.9C57.4,7.9,57.7,8.1,58,8.3z M49.2,48.6c2.7-1.8,4-5.1,4-9.7c0-4.1-1.1-7-3.3-8.8
			c-2.2-1.8-5.5-2.7-9.9-2.7H29.4v0.6h2.3v22.4h-2.3v0.6h9.7C43.4,51.1,46.8,50.3,49.2,48.6z M38.4,28.1h0.8c1.7,0,3.1,0.2,4,0.7
			c2,1,3,4.1,3,9.2v2c0,3.8-0.5,6.5-1.5,8.1c-1,1.6-2.7,2.4-5,2.4h-1.3V28.1z M100.9,41.4c-0.2-0.9-0.5-1.7-1-2.4
			c-0.4-0.5-0.9-0.9-1.5-1.4c-1.5-1-3.3-1.5-5.1-1.5c0,0-0.1,0-0.1,0c-0.9,0-1.8,0.2-2.7,0.4c-0.2,0.1-0.3,0.1-0.5,0.2
			c-0.2,0.1-0.4,0.2-0.5,0.2c-0.2,0-0.3,0-0.6-0.1c-0.2,0-0.3-0.1-0.5-0.1c-0.5-0.1-1.1,0-1.6,0.1c-1,0.2-2,0.8-2.6,1.6
			c-0.1,0.1-0.2,0.3-0.2,0.5c0,0.2,0.1,0.4,0.2,0.4c2.7,3.2,3.4,6,2.3,9c-3.4,3.2-7.8,5.5-12.4,6.5c1.7-3.6,2.9-7.4,3.3-11.2
			c0.2-1.5,0.2-3,0.1-4.5c0,0,0,0,0-0.1c0.4-3.2,2.3-6.1,3.8-8.3c1.1-1.5,2.6-3.5,4.5-5c1.9-1.5,4-2.4,6-2.6c0.5,0,1.1-0.1,1.5-0.6
			c0.3-0.4,0.2-0.8,0.2-1.2c-0.3-2.2-1.8-4.2-4.1-5.6c-0.8-0.5-1.8-1-2.9-1.5c-0.5-0.2-0.9-0.4-1.4-0.5c-0.7-0.2-1.4-0.5-2-1
			c-3.4-2.7-7.9-3.7-11.7-2.6c-4.2,1.2-7.3,5.1-7.3,9.1l0,0.3c0,0.4,0,0.8-0.1,1.1c-0.1,0.4-0.5,0.7-0.8,1c-0.1,0.1-0.2,0.2-0.3,0.3
			c-1.4,1.4-2.2,3.3-2.1,5.2c0,0.4,0.1,0.8,0.4,1.3c0.5,0.8,1.6,0.9,2.4,0.9c0,0,0,0,0,0c2.4,0.2,4.8,0.9,6.9,2
			c1.6,0.9,3,1.9,4.1,3.1c1.2,1.2,1.7,2.5,2,4.4c0,0,0,0.1,0,0.1c0.1,1.4,0,2.9-0.1,4.5c-0.8,7-3.9,13.7-8.8,19.2
			c0.6-1.3,0.9-2.7,0.5-4.3c1.5-1.9,2.5-4.6,2.5-7.1c0-1.1-0.2-5-2.5-6.6c-0.5-0.4-1.1-0.5-1.7-0.5c-0.5-0.1-0.9-0.1-1.3-0.4
			c-1.5-1.1-3.9-1.8-5.8-0.4c-0.8,0.6-1.4,1.4-1.8,2.5c-0.2,0.6-0.2,1.2-0.3,1.8c0,0.7-0.1,1.4-0.3,1.9c-0.1,0.2-0.3,0.4-0.5,0.6
			c-0.2,0.2-0.4,0.4-0.6,0.7c-0.4,0.7-0.7,1.4-0.7,2.1c0,0,0.1,1.5,0.5,1.9c0.1,0.1,0.3,0.1,0.5,0.1c3.8-1.2,8.6-0.5,10.7,3
			c1,2,0.3,3.7-0.6,5.4c-0.6,1.1-1.5,2.2-2.6,3.1c-0.3,0.2-0.6,0.5-0.9,0.7c-0.2,0.1-0.4,0.3-0.5,0.4c0,0-0.1,0.1-0.1,0.1
			c-6.3,4.6-14.1,7.2-21.8,7.2c-0.2,0-0.5,0-0.7,0c-10.5-0.2-20.4-4.9-27.1-12.8c-0.2-0.2-0.5-0.2-0.7-0.1c-0.2,0.2-0.2,0.5-0.1,0.7
			C18.7,71,28.9,75.8,39.7,76c0.2,0,0.5,0,0.7,0c8.2,0,16.4-2.9,23-7.9c0.3-0.2,0.6-0.5,0.9-0.7c1.1-0.9,2.1-1.8,3.1-2.8
			c2.5-2.5,4.5-5.4,6.1-8.4c5-0.9,9.8-3.3,13.5-6.8c1.9-0.4,3.9,0,5.5,1.2c1.8,1.2,3,3.6,3.6,4.9c0.1,0.1,0.2,0.2,0.3,0.3
			c0,0,0.1,0,0.1,0c0.1,0,0.2,0,0.3-0.1c1-0.7,1.8-1.7,2.1-2.9c0.2-0.8,0.1-1.5,0.1-2.2c-0.1-0.7-0.1-1.4,0.1-2.1
			c0.2-0.5,0.4-1,0.7-1.5c0.3-0.4,0.5-0.9,0.7-1.4C101,44.2,101.1,42.8,100.9,41.4z M91.3,19.2c-0.5,0.7-1.7,2-3.2,2.8
			c-0.1,0-0.1,0.1-0.1,0.2c0,0.1,0.1,0.1,0.1,0.1c0,0,0.1,0,0.1,0c1.6-0.8,2.7-2.1,3.3-2.8c0.5,0.8,0.8,1.6,1,2.4c0,0.2,0,0.4,0,0.5
			c-0.1,0.2-0.5,0.2-0.8,0.2c-2.2,0.2-4.5,1.2-6.5,2.8c-1.4,1.1-2.6,2.5-3.6,3.7c2.1-4.2,4.9-8.1,8.3-11.3
			C90.5,18.2,91,18.6,91.3,19.2z M84.8,15c0.4,0.1,0.9,0.3,1.3,0.5c0.1,0.1,0.2,0.1,0.3,0.2c-0.1,0.7-0.4,2.6-1.5,4.2
			c0,0.1,0,0.2,0,0.2c0,0,0.1,0,0.1,0c0.1,0,0.1,0,0.1-0.1c1.1-1.6,1.5-3.4,1.6-4.2c0.8,0.4,1.5,0.8,2.1,1.1
			c0.2,0.1,0.4,0.2,0.6,0.4c-3.7,3.5-6.9,7.8-9,12.5c1.8-4.9,3-9.9,3.8-15C84.4,14.8,84.6,14.9,84.8,15z M80.7,12.7
			c0.2,0.7,0.6,2.6,0.2,4.4c0,0.1,0,0.2,0.1,0.2c0,0,0,0,0,0c0.1,0,0.1-0.1,0.2-0.1c0.3-1.7,0.1-3.4-0.1-4.3
			c0.5,0.3,0.9,0.6,1.4,0.9c0.3,0.2,0.6,0.4,0.9,0.6c-1,5.8-2.4,11.7-4.6,17.3c1.1-6.6,1-13.4-0.1-19.9C79.3,12,80,12.3,80.7,12.7z
			 M71.6,11.4c0.8-0.2,1.7-0.4,2.6-0.4c0.3,0.4,1.6,2.2,1.9,4.2c0,0.1,0.1,0.1,0.2,0.1c0,0,0,0,0,0c0.1,0,0.1-0.1,0.1-0.2
			c-0.3-2-1.4-3.6-1.8-4.2c1,0,2.1,0.1,3.1,0.4c1.2,6.8,1.3,14,0.1,20.9c0-7.2-1.2-15.8-6.3-20.8C71.5,11.5,71.5,11.4,71.6,11.4z
			 M64.8,21.4c0.2-0.5,0.2-1,0.2-1.5l0-0.2c0-0.2,0-0.4,0-0.6c0.6,0.2,1.8,0.8,2.7,1.7c0,0,0.1,0,0.1,0c0,0,0.1,0,0.1,0
			c0.1-0.1,0.1-0.2,0-0.2c-1-1-2.3-1.6-2.9-1.8c0.1-0.8,0.3-1.6,0.7-2.3c4.6,3.5,8.1,8.5,9.8,14c-2.5-3.9-6.8-7-10.8-8.9
			C64.7,21.4,64.8,21.4,64.8,21.4z M70.9,30.9c-2.3-1.2-4.8-2-7.3-2.1h0c-0.6,0-1.4-0.1-1.7-0.5c-0.1-0.2-0.2-0.5-0.2-0.8
			c0-0.6,0-1.2,0.2-1.7c5.1,1.2,10.8,3.9,13.3,8.4C74,32.9,72.5,31.8,70.9,30.9z M62,25.2c0.2-0.5,0.5-1.1,0.8-1.5
			c0.4,0.1,2,0.5,3.2,1.5c0,0,0.1,0,0.1,0c0,0,0.1,0,0.1-0.1c0.1-0.1,0-0.2,0-0.2c-1.2-1-2.6-1.4-3.2-1.5c0.1-0.2,0.3-0.3,0.5-0.5
			c0.1-0.1,0.2-0.2,0.3-0.2c0.2-0.2,0.4-0.4,0.6-0.6c4.9,2.4,10.2,6.5,11.8,11.8C73.4,29.2,67.3,26.4,62,25.2z M66.1,15.7
			c0.4-0.7,1-1.4,1.6-2c0.5,0.3,2.2,1.5,3.3,3.3c0,0.1,0.1,0.1,0.1,0.1c0,0,0.1,0,0.1,0c0.1,0,0.1-0.1,0.1-0.2c-1-1.8-2.7-3-3.3-3.3
			c0.8-0.7,1.6-1.2,2.6-1.6c4.7,4.7,6.1,12.5,6.2,19.4C75.1,25.1,71.3,19.5,66.1,15.7z M67.5,45.7c2,1.4,2.1,4.9,2.1,5.9
			c0,1.1-0.2,2.2-0.5,3.2c0-3.3-1.1-6.6-2.8-9.5C66.8,45.4,67.2,45.5,67.5,45.7z M58.5,46.5c0.1-0.2,0.2-0.5,0.3-0.7
			c0.6,0.2,1.8,0.7,2.7,1.6c0,0,0.1,0,0.1,0c0,0,0.1,0,0.1,0c0.1-0.1,0.1-0.2,0-0.2c-0.9-0.9-2.1-1.4-2.8-1.6c0.2-0.4,0.5-0.8,1-1.1
			c0.1-0.1,0.2-0.1,0.3-0.2c0.9,0.5,2.2,1.8,2.7,2.3c1.5,1.5,2.6,3.2,3.4,5c-2.1-2.1-5.3-3.5-8-4.2C58.3,47.1,58.4,46.7,58.5,46.5z
			 M59.7,53.7c-1.2,0-2.4,0.2-3.5,0.5c-0.1-0.3-0.1-0.8-0.2-0.9c0-0.1,0-0.2,0-0.3c3.3-0.5,6.7,0.1,9,2.2
			C63.6,54.2,61.7,53.7,59.7,53.7z M56.2,52.5c0.1-0.3,0.2-0.6,0.4-0.8c0.1-0.2,0.3-0.4,0.5-0.5c0.1-0.1,0.2-0.2,0.2-0.2
			c3.6,0.1,7.9,1.5,9.4,4.6C64.3,52.7,60.1,51.9,56.2,52.5z M57.7,50.4c0,0,0-0.1,0.1-0.1c0.1-0.3,0.2-0.6,0.3-0.9
			c0.7,0,1.9,0.2,3.1,0.8c0,0,0.1,0,0.1,0c0.1,0,0.1,0,0.1-0.1c0-0.1,0-0.2-0.1-0.2c-1.2-0.6-2.5-0.8-3.2-0.9c0-0.3,0.1-0.7,0.1-1
			c3.4,0.9,7.3,3,8.8,6.2C65.1,51.6,61.1,50.5,57.7,50.4z M63.6,46.1c-0.5-0.5-1.6-1.7-2.6-2.2c0.4-0.1,0.8-0.1,1.1-0.1
			c0.6,0.3,1.6,1,2.4,2.1c0,0,0.1,0.1,0.1,0.1c0,0,0.1,0,0.1,0c0.1,0,0.1-0.1,0-0.2c-0.5-0.8-1.2-1.3-1.8-1.7
			c0.6,0.2,1.2,0.5,1.6,0.8c0.2,0.1,0.3,0.2,0.5,0.3c1.7,2.7,2.9,5.8,3.1,9C67.3,51.1,65.9,48.3,63.6,46.1z M97.8,38.5
			c0,0,0.1,0.1,0.1,0.1c-0.3,0.7-1.2,2.3-2.6,3.5c-0.1,0.1-0.1,0.2,0,0.2c0,0,0.1,0.1,0.1,0.1c0,0,0.1,0,0.1,0
			c1.4-1.2,2.3-2.8,2.6-3.5c0.4,0.3,0.7,0.6,0.9,0.9c0.1,0.2,0.2,0.3,0.3,0.5c-2.9,2.8-6.4,5.7-10.2,7.4c3.1-2.5,5.5-6.2,7.2-9.7
			C97,38,97.4,38.2,97.8,38.5z M93.1,37.2c0.1,0,0.1,0,0.2,0c0,0.4,0,2.6-1,4.6c0,0.1,0,0.2,0.1,0.2c0,0,0,0,0.1,0
			c0.1,0,0.1,0,0.1-0.1c1.1-2.1,1.1-4.3,1.1-4.7c0.7,0,1.4,0.2,2.1,0.4c-1.4,3-3.3,6.1-5.7,8.5c1.4-2.6,1.8-5.7,1.4-8.6
			C91.9,37.2,92.5,37.2,93.1,37.2z M87.9,45.5c-0.1-2.1-1.1-4.2-2.9-6.4c0.4-0.5,1.1-0.9,1.8-1.1C87.8,40.3,88.3,43,87.9,45.5z
			 M88.2,47.4c1.4-3,0.8-6.6-0.5-9.6c0.2,0,0.3,0,0.5,0c0.1,0,0.2,0,0.4,0.1c0.3,0.1,0.6,0.2,1,0.1c0.3-0.1,0.5-0.2,0.8-0.3
			c0,0,0.1,0,0.1,0C90.9,41,90.4,44.8,88.2,47.4z M97.9,52.5c-0.2,0.8-0.6,1.5-1.2,2c-0.8-1.6-2-3.6-3.6-4.7
			c-0.8-0.5-1.6-0.9-2.5-1.2c2.6,0.1,5.3,0.9,7.4,2.4C98,51.5,98,52.1,97.9,52.5z M98.9,46.6c-0.1,0.2-0.3,0.4-0.4,0.7
			c-0.9,0.3-2.4,0.7-4,0.6c-0.1,0-0.2,0.1-0.2,0.1c0,0.1,0.1,0.2,0.1,0.2c0.2,0,0.4,0,0.5,0c1.3,0,2.5-0.3,3.3-0.6
			c-0.1,0.2-0.2,0.4-0.2,0.6c-0.2,0.6-0.2,1.2-0.2,1.8c-2.6-1.5-5.8-2.1-8.9-1.8c0.1,0,0.2-0.1,0.2-0.1c3.5-0.4,7-1.4,10.3-2.8
			C99.4,45.8,99.1,46.2,98.9,46.6z M96.4,45.1C96.4,45.1,96.4,45.1,96.4,45.1c1.7-0.6,3-1.6,3.6-2.2c0,0.7-0.1,1.4-0.3,2
			c-3,1.3-6.1,2.3-9.3,2.8c3.5-1.7,6.6-4.2,9.4-6.8c0.1,0.2,0.2,0.5,0.2,0.8c0,0.3,0.1,0.5,0.1,0.8c-0.6,0.6-1.9,1.8-3.7,2.4
			c-0.1,0-0.1,0.1-0.1,0.2C96.3,45,96.3,45.1,96.4,45.1z M33.4,17.5h13v-1.2h-13V17.5z M33.4,63.6h13v-1.2h-13V63.6z"/>
	</g>
</g>
</svg>
