<?xml version="1.0" encoding="utf-8"?>
<!-- Generator: Adobe Illustrator 23.0.6, SVG Export Plug-In . SVG Version: 6.00 Build 0)  -->
<svg version="1.1" id="Layer_1" xmlns="http://www.w3.org/2000/svg" xmlns:xlink="http://www.w3.org/1999/xlink" x="0px" y="0px"
	 viewBox="0 0 155 72" style="enable-background:new 0 0 155 72;" xml:space="preserve">
<style type="text/css">
	.st0{fill-rule:evenodd;clip-rule:evenodd;}
</style>
<g>
	<g>
		<path class="st0" d="M9.9,5.5c0.3-0.2,0.3-0.6,0-1C9.6,4.2,9.2,4.1,8.9,4.3c-0.3,0.2-0.3,0.6,0,1C9.2,5.6,9.6,5.7,9.9,5.5z
			 M7.3,13.3c0.4-0.3,0.4-0.9,0-1.5c-0.4-0.5-1-0.7-1.4-0.4c-0.4,0.3-0.4,0.9,0,1.5C6.3,13.4,6.9,13.6,7.3,13.3z M14.1,2.8
			c-0.2-0.3-0.6-0.3-1-0.1c-0.4,0.2-0.5,0.6-0.4,0.9c0.2,0.3,0.6,0.3,1,0.1C14.1,3.5,14.3,3.1,14.1,2.8z M7.3,28.1
			c0.2,1.2,1.3,2.2,2.5,2.3c1.3,0.1,2.5-0.6,3-1.7C11.1,29.9,8.7,29.7,7.3,28.1z M7.2,16.5c0.4-0.3,0.4-0.9,0-1.5
			c-0.4-0.5-1-0.7-1.4-0.4c-0.4,0.3-0.4,0.9,0,1.5C6.1,16.6,6.8,16.7,7.2,16.5z M11,3.8c0.3-0.2,0.3-0.6,0-1
			c-0.3-0.3-0.7-0.5-0.9-0.3c-0.3,0.2-0.3,0.6,0,1C10.3,3.9,10.7,4,11,3.8z M34.3,29.7l-0.5,0.1C32.2,30,31,30.6,30,31.3
			c-0.8,0.7-1.4,1.5-1.8,2.5c-0.4,0.9-0.5,2-0.3,3c0.1,1.1,0.6,2.2,1.3,3.2c0,0.2,0,0.3,0,0.5c0.3,3.2,0.6,2.7-1.2,0.3
			c-0.7-1-1.5-1.9-2.3-2.9c-2.2-2.9-4.5-6.6-5.5-10.8c2.2-1.5,3.4-3.5,3.8-5.7c0.5-2.5-0.2-5.3-1.7-7.9L22,13.2l-0.5,0.2
			c-1.8,0.7-3.2,1.7-4.2,2.9c-0.8,1.1-1.4,2.3-1.5,3.5c-0.2,1.2-0.1,2.5,0.4,3.8c0.5,1.4,1.5,2.8,2.8,3.9l0,0
			c0.2,0.7,0.4,1.4,0.6,2.1c0.3,0.7,2,3.9,1,2.8c-0.7-0.7-1.4-1.5-2-2.2c-7.6-8.3-13.8-17-5.6-28.2C8.6,7.5,7.6,12.3,8.6,16.7
			C7.1,18,6,20.3,5.7,23.4c-0.2,2.4,0.4,2.8-1.4,4.8c-0.9,1-2.1,2.5-4,4.2c-0.7,0.8,0,1.8,2.1,2.9c-0.1,1-0.2,1.7-0.4,2.2
			c-0.2,0.9,0,1.4,0.6,1.6c-1,1.1-1,2,0.3,2.9c-1.9,15.2,10.1,1.2,15.3,12.6c2,5.2,4.1,11.4,4.6,17.5l0.6-0.6l0,0
			c5.5-5.4,8.3-10.1,9.2-14.5l0,0l0-0.1c0.8-3.7,0.2-7.1-1.1-10.2c-0.1-0.3-0.1-0.6-0.1-0.8c-0.3-1.9-0.6-3.7-0.7-5.5
			c1.9-0.8,3.2-2.1,3.9-3.8c0.8-1.9,0.8-4.2,0-6.4L34.3,29.7z M21.5,15.3c-2.4,3-3.3,6.4-2.8,10.2c-0.6-0.7-1.1-1.5-1.4-2.3
			c-0.4-1-0.5-2.1-0.3-3.2c0.2-1.1,0.6-2.1,1.3-3c0.7-0.9,1.8-1.8,3.2-2.4c1.2,2.2,1.7,4.5,1.3,6.6c-0.3,1.7-1.2,3.3-2.9,4.6
			C19.3,22.6,19.6,19,21.5,15.3z M31.6,51.5c0.5,3.8,0.2,2.4-0.9,0.2c-0.8-1.6-1.8-3.1-3.1-4.3l0-0.1c-0.5-2.9-1.8-4.3-3.5-4.9
			c-1.7-0.5-3.6-0.3-5.5,0.2l-0.6,0.1l0.1,0.6c0.2,1.1,0.5,2,0.9,2.7c0.6,1.1,1.5,1.9,2.5,2.3c1,0.4,2.1,0.6,3.2,0.4
			c0.7-0.1,1.4-0.3,2.1-0.6c0.2,0.2,0.4,0.4,0.6,0.6c1.8,2,3.1,4.8,4,8.1c-0.9,3.8-3.2,8-7.7,12.6c-0.6-4.4-1.9-8.7-3.1-12.5
			c-2-6-5.5-8.9-10.5-8.6c-2.4,0.1-3.7,0.1-3.7,0.1c-2.5-0.4-3.3-2.6-2.4-6.7c-1.2-1-1.1-1.9-0.3-2.6c1.3,0.6,2.5,0.6,3.8-0.2
			c-2.4,0.2-3.9-0.3-4.4-1.3c0.4-1.4,0.5-2,0.5-2C4,34,2.6,33.8,1.7,32.8c1.5-1.7,2.8-3,3.6-4C7.4,26.6,7,27.7,6.9,25
			c0-2.9,0.6-5.3,1.9-7.3c1.6,5.5,6.3,10.5,11,15.5c1.6,1.7,3.2,3.4,4.7,5.2c0.1,0.1,0.1,0.2,0.2,0.3l0,0
			C28.2,42.7,30.9,46.8,31.6,51.5z M25.6,47.3c-0.4,0.2-0.8,0.3-1.2,0.3c-0.9,0.1-1.8,0-2.5-0.3c-0.8-0.3-1.4-0.9-1.9-1.8
			c-0.3-0.5-0.5-1.1-0.6-1.7c1.5-0.4,3-0.5,4.2-0.1c1,0.3,1.8,1.1,2.3,2.5c-1.6-1-3.4-1.5-5.6-1.5C22.4,45.2,24.1,46,25.6,47.3z
			 M33.3,36.1c-0.5,1.2-1.4,2.3-2.8,2.9c0-3,0.6-5.5,2.7-6.7c-2.6,1-3.7,3-4,5.2c-0.1-0.3-0.2-0.6-0.2-0.9c-0.1-0.8,0-1.7,0.3-2.4
			c0.3-0.8,0.8-1.4,1.5-2c0.7-0.6,1.6-1,2.7-1.2C34,32.8,33.9,34.6,33.3,36.1z M11.7,2.4c0.3-0.1,0.5-0.5,0.4-0.9
			c-0.1-0.4-0.4-0.7-0.7-0.6C11,1,10.8,1.4,10.9,1.8C11,2.2,11.4,2.5,11.7,2.4z M10.2,13.3c0.4,0.2,1,0,1.3-0.6
			c0.3-0.6,0.2-1.2-0.2-1.4c-0.4-0.2-1,0-1.3,0.6C9.7,12.4,9.8,13.1,10.2,13.3z M8.8,7.6c0.3-0.3,0.3-0.8,0-1.3
			C8.4,5.9,7.9,5.8,7.5,6c-0.3,0.3-0.3,0.8,0,1.3C7.9,7.7,8.4,7.9,8.8,7.6z M12.4,6.7c-0.3-0.3-0.8-0.3-1.2,0.1
			c-0.4,0.4-0.5,0.9-0.3,1.2c0.3,0.3,0.8,0.3,1.2-0.1C12.6,7.5,12.7,7,12.4,6.7z M10.5,10.4c0.4,0.2,0.9,0,1.1-0.5
			c0.3-0.5,0.2-1-0.2-1.2c-0.4-0.2-0.9,0-1.1,0.5C10.1,9.7,10.2,10.2,10.5,10.4z M10.7,16c0.4,0.2,1-0.1,1.3-0.7
			c0.3-0.6,0.1-1.2-0.3-1.4c-0.4-0.2-1,0.1-1.3,0.7C10.1,15.1,10.3,15.7,10.7,16z M7.8,10.5c0.4-0.3,0.4-0.9,0-1.5
			c-0.4-0.5-1-0.7-1.4-0.4C6,9,6,9.6,6.4,10.1C6.8,10.6,7.4,10.8,7.8,10.5z M13.2,4.6c-0.2-0.3-0.6-0.3-1-0.1
			c-0.4,0.2-0.5,0.6-0.3,0.9c0.2,0.3,0.6,0.3,1,0.1C13.2,5.3,13.4,4.9,13.2,4.6z M14.2,1c0.2-0.4,0.2-0.8-0.1-1
			c-0.3-0.2-0.7,0-0.9,0.4c-0.2,0.4-0.2,0.8,0.1,1C13.6,1.6,14,1.4,14.2,1z M97.3,40l-6.6-15.8h-1.3l-8.7,19.5h1.5l2.4-5.4h7.9
			l0.7,1.7c0.4,0.8,0.8,1.5,1.2,2c0.5,0.5,1,0.9,1.5,1.2c0.5,0.3,1.1,0.4,1.6,0.5c0.5,0.1,1,0.1,1.5,0.1c0.2,0,0.5,0,0.8,0
			c0.3,0,0.5-0.1,0.7-0.1v-0.7c-0.7-0.1-1.3-0.4-1.8-0.9C98,41.5,97.6,40.8,97.3,40z M85.2,37l3.4-7.7l3.3,7.7H85.2z M61.5,36.7
			c-0.2-0.5-0.4-1-0.8-1.4c-0.4-0.4-0.9-0.8-1.5-1c-0.6-0.3-1.4-0.5-2.4-0.6c0.7-0.2,1.3-0.4,1.8-0.7c0.5-0.3,0.9-0.7,1.3-1
			c0.3-0.4,0.6-0.8,0.8-1.2c0.2-0.4,0.2-0.9,0.2-1.3c0-1.2-0.3-2.1-0.8-2.8c-0.6-0.7-1.3-1.2-2.1-1.6c-0.9-0.4-1.8-0.6-2.8-0.7
			c-1-0.1-2-0.1-2.9-0.1h-8v0.9h0.3c0.9,0,1.4,0.3,1.7,0.8c0.2,0.5,0.4,1.3,0.4,2.1v15.7H53c1,0,2.1-0.1,3.1-0.2
			c1-0.1,2-0.4,2.8-0.8c0.8-0.4,1.5-0.9,2-1.7c0.5-0.7,0.8-1.6,0.8-2.7C61.7,37.7,61.6,37.2,61.5,36.7z M50.4,25.6
			c0.2,0,0.3,0,0.5-0.1c0.2,0,0.3-0.1,0.6-0.1c0.2,0,0.4,0,0.7,0c0.6,0,1.1,0.1,1.7,0.2c0.5,0.1,1,0.3,1.5,0.6
			c0.4,0.3,0.8,0.7,1,1.2c0.3,0.5,0.4,1.1,0.4,1.8c0,1.4-0.4,2.4-1.2,3c-0.8,0.6-1.8,0.9-3,0.9h-2.2V25.6z M56.3,41.5
			c-0.9,0.7-2.1,1.1-3.7,1.1h-0.1c-0.6,0-1.1,0-1.5-0.1c-0.2,0-0.4-0.1-0.6-0.1v-7.9h2.2c3.3,0,5,1.4,5,4.1
			C57.6,39.7,57.2,40.7,56.3,41.5z M76.4,43.7c0.8,0,1.4-0.2,1.7-0.6c0.3-0.4,0.6-0.9,0.8-1.5l0.9-2.3L79,39
			c-0.5,1.3-1.1,2.2-1.9,2.6c-0.8,0.5-1.7,0.7-2.8,0.7h-5v-8.1H77v-1.3h-7.7v-7.4h4.7c1.2,0,2.1,0.3,2.7,0.8c0.6,0.6,1,1.5,1,2.7
			h0.9v-2.5c0-0.3,0-0.6-0.1-0.9c-0.1-0.3-0.2-0.5-0.4-0.8c-0.2-0.2-0.4-0.4-0.8-0.5c-0.3-0.1-0.7-0.2-1.3-0.2h-13v0.9h0.3
			c0.9,0,1.4,0.3,1.7,0.8c0.2,0.5,0.4,1.3,0.4,2.1v15.7H76.4z M153.1,24.2l-5.7,9.3l-4-6.1c-0.2-0.4-0.5-0.8-0.8-1.1
			c-0.3-0.4-0.7-0.7-1.1-1c-0.4-0.3-0.8-0.6-1.3-0.8c-0.5-0.2-1-0.3-1.5-0.3h-2.9v0.7c0.2,0.1,0.5,0.1,0.7,0.3
			c0.4,0.2,0.7,0.4,1,0.8c0.3,0.3,0.7,0.6,1,1c0.3,0.4,0.6,0.7,0.9,1.1l5.2,7.9v7.8h3.8v-8.6l6.7-10.9H153.1z M135.3,24.2h-13.6
			c-0.5,0-0.9,0.1-1.3,0.2c-0.3,0.1-0.6,0.3-0.8,0.5c-0.2,0.2-0.3,0.5-0.4,0.8c-0.1,0.3-0.1,0.6-0.1,0.9v2.5h0.9
			c0-1.3,0.3-2.2,0.9-2.8c0.6-0.5,1.4-0.8,2.5-0.8h2.1v18.2h3.8V25.5h6.2v-0.7c-0.1,0-0.2-0.1-0.3-0.1V24.2z M115.4,35.2
			c0,2.6-0.5,4.5-1.4,5.7c-0.9,1.2-2.4,1.8-4.4,1.8c-1.6,0-2.7-0.6-3.5-1.8c-0.8-1.2-1.2-2.8-1.2-4.8l0-8c0-0.7,0-1.3-0.1-1.8
			c-0.1-0.5-0.2-0.9-0.4-1.2c-0.2-0.3-0.5-0.5-0.8-0.6c-0.3-0.1-0.8-0.2-1.3-0.2H99v0.9c0.9,0,1.4,0.3,1.7,0.8
			c0.2,0.5,0.4,1.3,0.4,2.1v7.1c0,5.9,2.7,8.8,8,8.8c1.4,0,2.6-0.2,3.6-0.6c1-0.4,1.8-1,2.4-1.7c0.6-0.8,1.1-1.7,1.3-2.8
			c0.3-1.1,0.4-2.3,0.4-3.7v-11h-1.5V35.2z M90.9,50.6l-2.2,5.1h0.9l0.5-1.2h2.4l0.5,1.2h0.9l-2.2-5.1H90.9z M90.4,53.7l0.9-2l0.9,2
			H90.4z M79.7,50.5c-1.6,0-2.7,1.2-2.7,2.6v0c0,1.4,1.1,2.6,2.6,2.6c1.6,0,2.7-1.2,2.7-2.6v0C82.3,51.7,81.2,50.5,79.7,50.5z
			 M81.4,53.2c0,1-0.7,1.8-1.7,1.8c-1,0-1.7-0.8-1.7-1.8v0c0-1,0.7-1.8,1.7-1.8C80.7,51.4,81.4,52.2,81.4,53.2L81.4,53.2z
			 M46.7,52.9l-1.4-2.2h-1.1l2,3.1v2h0.9v-2l2-3.1h-1L46.7,52.9z M74,50.6h-0.9v5.1h3.5v-0.8H74V50.6z M98.3,54.1l-2.7-3.5h-0.8v5.1
			h0.9v-3.6l2.8,3.6h0.7v-5.1h-0.9V54.1z M85.8,53.6H87v0.9c-0.3,0.2-0.7,0.4-1.2,0.4c-1,0-1.7-0.8-1.7-1.8v0c0-1,0.7-1.8,1.6-1.8
			c0.6,0,1,0.2,1.4,0.5l0.6-0.7c-0.5-0.4-1.1-0.7-1.9-0.7c-1.5,0-2.6,1.2-2.6,2.6v0c0,1.5,1,2.6,2.6,2.6c0.9,0,1.6-0.4,2.1-0.8v-2.1
			h-2.2V53.6z M59,53.5c0,0.9-0.5,1.4-1.3,1.4c-0.8,0-1.3-0.5-1.3-1.4v-2.9h-0.9v2.9c0,1.5,0.8,2.2,2.2,2.2c1.3,0,2.2-0.8,2.2-2.3
			v-2.9H59V53.5z M51.9,50.5c-1.6,0-2.7,1.2-2.7,2.6v0c0,1.4,1.1,2.6,2.6,2.6c1.6,0,2.7-1.2,2.7-2.6v0
			C54.5,51.7,53.4,50.5,51.9,50.5z M53.6,53.2c0,1-0.7,1.8-1.7,1.8c-1,0-1.7-0.8-1.7-1.8v0c0-1,0.7-1.8,1.7-1.8
			C52.9,51.4,53.6,52.2,53.6,53.2L53.6,53.2z M65.2,52.2L65.2,52.2c0-0.5-0.2-0.8-0.4-1.1c-0.3-0.3-0.8-0.5-1.5-0.5h-2.3v5.1h0.9
			v-1.8h1.1l1.2,1.8h1.1L64,53.8C64.7,53.6,65.2,53.1,65.2,52.2z M61.9,53.1v-1.7h1.3c0.7,0,1,0.3,1,0.8v0c0,0.5-0.4,0.8-1,0.8H61.9
			z M70.4,52.8c-1-0.2-1.2-0.4-1.2-0.8v0c0-0.3,0.3-0.6,0.8-0.6c0.5,0,0.9,0.2,1.4,0.5l0.5-0.7c-0.5-0.4-1.1-0.6-1.8-0.6
			c-1,0-1.7,0.6-1.7,1.5v0c0,0.9,0.6,1.3,1.7,1.5c0.9,0.2,1.1,0.4,1.1,0.8v0c0,0.4-0.3,0.6-0.9,0.6c-0.6,0-1.1-0.2-1.6-0.7L68.1,55
			c0.6,0.5,1.3,0.8,2.1,0.8c1.1,0,1.8-0.6,1.8-1.5v0C72,53.4,71.5,53,70.4,52.8z"/>
	</g>
</g>
</svg>
