<?xml version="1.0" encoding="utf-8"?>
<!-- Generator: Adobe Illustrator 23.0.0, SVG Export Plug-In . SVG Version: 6.00 Build 0)  -->
<svg version="1.1" id="Layer_1" xmlns="http://www.w3.org/2000/svg" xmlns:xlink="http://www.w3.org/1999/xlink" x="0px" y="0px"
	 viewBox="0 0 385.07 384.83" style="enable-background:new 0 0 385.07 384.83;" xml:space="preserve">
<style type="text/css">
	.st0{fill:#F2A09D;}
	.st1{fill:#FDFDFD;}
	.st2{fill:#FEFEFE;}
	.st3{fill:#FAFAFA;}
	.st4{fill:#F7F7F7;}
	.st5{fill:#FCFCFC;}
	.st6{fill:#FBFBFB;}
	.st7{fill:#F8F8F8;}
</style>
<g>
	<path class="st0" d="M385,100.5c0,1.5,0,3,0,4.5c-1.22,3-1.21,6,0,9c0,2,0,4,0,6c-1.02,0.28-0.72,1.16-0.81,1.84
		c-0.94,6.68-2.05,13.32-4.24,19.72c-13.76,40.25-41.27,65.25-82.88,74.52c-1.87,0.42-2.96,0.97-3.16,3.23
		c-0.6,6.71-1.53,13.39-2.29,20.09c-1.82,16.01-4.03,31.99-3.36,48.17c0.19,4.63,0.85,9.18,2.14,13.65
		c2.72,9.41,8.51,15.54,18.27,17.79c5.73,1.32,7.73,6.6,4.14,10.7c-3.86,4.41-7.72,8.87-11.98,12.89
		c-12.66,11.93-28.41,17.72-44.89,21.85c-15.8,3.96-31.93,5.67-48.14,6.76c-1.16,0.08-2.74-0.53-3.31,1.03
		c-2.5,6.9-7.93,10.34-14.49,12.52c-22,0-44,0-66,0c-0.1-0.21-0.16-0.56-0.32-0.61c-5.76-2.16-10.2-5.74-12.43-11.62
		c-0.64-1.7-1.99-1.21-3.13-1.29c-14.09-0.91-28.13-2.29-41.95-5.25c-16.32-3.49-32.04-8.44-45.67-18.61
		c-6.18-4.61-10.87-10.64-16.15-16.12c-2.02-2.09-3.76-4.06-3.05-7.14c0.79-3.4,3.35-4.61,6.5-5.33
		c7.42-1.71,12.67-6.14,15.76-13.12c4.12-9.3,4.33-19.16,3.98-29.04c-0.9-25-5.6-49.63-7.43-74.54
		c-1.33-18.11-1.83-36.21,1.92-54.12c4.2-20.08,13.32-37.28,30.18-49.67c16.25-11.94,34.96-15.89,54.66-16.37
		c2.18-0.05,4.1-0.51,6.08-1.43c19.08-8.91,39.11-14.16,60.17-15.19c2.86-0.14,4.28-1,5.6-3.58c16.12-31.67,41.6-51.25,76.33-58.87
		c3.32-0.73,6.85-0.48,9.97-2.1c7,0,14,0,21,0c1.29,1.37,3.01,0.66,4.51,0.87c45.04,6.05,81.87,39.81,91.61,84.09
		C383.2,90.61,384.05,95.57,385,100.5z M103.48,133.2c-1.91,1.67-3.3,3.72-4.64,5.79c-6.53,10.07-9.7,21.33-10.78,33.11
		c-2.2,23.85-1.55,47.68,2.29,71.33c3.32,20.49,10.61,39.43,23.86,55.72c16.03,19.71,41.16,26.55,63.98,17.39
		c14.22-5.71,23.78-16.52,31.4-29.34c14.37-24.19,18.11-50.92,18.8-78.39c0.05-1.86-1.1-2.26-2.32-2.89
		c-7.11-3.7-13.8-8.06-19.81-13.36c-1.97-1.74-2.91-1.22-4.46,0.35c-7.8,7.93-15.69,15.76-23.56,23.62
		c-2.21,2.21-4.34,4.51-6.69,6.55c-2.72,2.35-6.44,2.09-8.79-0.36c-2.25-2.34-2.34-5.78-0.15-8.51c0.7-0.87,1.53-1.64,2.33-2.44
		c9.36-9.37,18.7-18.76,28.11-28.07c1.35-1.34,1.88-2.21,0.37-3.9c-4.57-5.14-8.55-10.73-11.83-16.79c-0.84-1.55-1.95-1.94-3.6-1.96
		c-7.74-0.08-15.49-0.19-23.23-0.44c-21.11-0.68-38.53-8.39-50.39-26.61C104.17,133.68,103.81,133.49,103.48,133.2z M172,78.15
		c-0.88,0-1.37-0.04-1.86,0.01c-18.68,1.69-36.55,6.34-53.38,14.75c-2.13,1.07-4.29,1.89-6.77,1.81c-6.26-0.19-12.5,0.28-18.66,1.33
		c-27.06,4.58-45.72,19.19-54.44,45.69c-3.71,11.29-4.78,22.95-4.92,34.71c-0.28,24.31,3.49,48.29,6.13,72.37
		c1.77,16.15,3.51,32.33,1.12,48.56c-1.79,12.14-6.18,22.96-17.44,29.48c-2.65,1.53-2.21,2.36-0.47,4.18
		c7.42,7.78,16.56,12.71,26.53,16.29c19.32,6.94,39.46,9.51,59.78,11.1c2.5,0.2,2.17-1.18,2.17-2.68
		c-0.01-13.37-0.04-26.74,0.04-40.11c0.01-1.79-0.62-3-1.77-4.27c-12-13.24-20.54-28.45-25.59-45.58c-0.66-2.23-1.57-3.5-3.94-4.25
		c-5.66-1.8-10.48-5.07-14.72-9.3c-14.31-14.26-13.57-43.6-7.84-54.66c3.19-6.16,8.38-9.32,15.31-8.4c2.92,0.39,3.06-0.63,3.06-2.82
		c0.03-9.65,1.04-19.2,3.24-28.59c3.58-15.29,10.07-28.94,22.51-39.15c5.23-4.29,9.26-3.35,12.02,2.78
		c5.14,11.41,13.6,19.18,25.39,23.38c11.95,4.26,24.33,2.82,37.01,3.26C165.98,124.79,165.13,101.76,172,78.15z M180.23,109.48
		c-0.03,53.02,42.9,96.02,95.88,96.05c52.93,0.03,96.06-43.03,96.11-95.93c0.04-52.93-43.01-96.03-95.97-96.06
		C223.3,13.49,180.26,56.5,180.23,109.48z M205.78,335.47c0,6.74,0.05,13.49-0.03,20.23c-0.03,1.93,0.19,2.86,2.57,2.68
		c18.07-1.37,35.99-3.67,53.38-8.97c12.28-3.74,23.81-8.89,32.82-18.51c1.48-1.58,2.42-2.44-0.32-3.89
		c-6.26-3.34-10.54-8.65-13.48-15.07c-3.48-7.61-4.83-15.7-5.21-23.97c-0.99-21.45,2.43-42.57,5.01-63.75
		c0.73-5.99,0.86-5.97-5.03-5.95c-0.75,0-1.5,0.02-2.25-0.01c-3.19-0.13-7.59-1.57-9.23-0.05c-1.77,1.64-0.82,6.09-1.29,9.28
		c-2.45,16.53-10.12,29.05-26.89,34.37c-1.91,0.6-2.34,1.93-2.79,3.49c-4.98,17.3-13.55,32.61-25.64,45.94
		c-1.17,1.29-1.69,2.56-1.66,4.3C205.84,322.23,205.78,328.85,205.78,335.47z M192.99,323.56c-23.7,13.01-47,12.91-70.43,0.14
		c0,14.06-0.04,27.54,0.02,41.03c0.02,4.55,2.45,7.19,6.8,7.21c18.98,0.07,37.96,0.07,56.94,0c4.01-0.02,6.6-2.62,6.63-6.59
		C193.04,351.61,192.99,337.88,192.99,323.56z M77.99,247.15c-2.23-14.38-3.62-28.21-3.64-42.15c0-0.99-0.48-1.51-1.31-2.02
		c-3.57-2.21-5.68-1.48-6.68,2.98c-2.28,10.17-2.11,20.27,1.92,30.05C70.15,240.54,73.03,244.31,77.99,247.15z M237.66,247.34
		c1.29-0.88,1.81-1.18,2.27-1.55c9.36-7.69,10.6-18.33,10.7-29.4c0.01-1.17-0.84-1.37-1.64-1.69c-7.65-3.03-7.69-3.01-8.16,5.12
		c-0.04,0.75-0.13,1.49-0.18,2.23C240.08,230.24,239,238.37,237.66,247.34z"/>
	<path class="st1" d="M265,0.75c-3.12,1.63-6.65,1.38-9.97,2.1c-34.73,7.62-60.21,27.2-76.33,58.87c-1.31,2.58-2.74,3.44-5.6,3.58
		c-21.06,1.02-41.09,6.28-60.17,15.19c-1.98,0.92-3.9,1.38-6.08,1.43c-19.7,0.49-38.4,4.44-54.66,16.37
		c-16.87,12.39-25.98,29.59-30.18,49.67c-3.75,17.91-3.25,36-1.92,54.12c1.83,24.91,6.53,49.54,7.43,74.54
		c0.36,9.89,0.14,19.74-3.98,29.04c-3.09,6.98-8.34,11.41-15.76,13.12c-3.15,0.72-5.71,1.93-6.5,5.33
		c-0.71,3.08,1.03,5.05,3.05,7.14c5.28,5.47,9.97,11.51,16.15,16.12c13.63,10.16,29.36,15.12,45.67,18.61
		c13.83,2.96,27.86,4.34,41.95,5.25c1.14,0.07,2.48-0.41,3.13,1.29c2.23,5.88,6.68,9.47,12.43,11.62c0.16,0.06,0.21,0.4,0.32,0.61
		c-40.23,0-80.46-0.03-120.69,0.06c-2.44,0.01-3.14-0.31-3.14-3C0.26,255.75,0.26,129.68,0.17,3.62c0-2.83,0.92-2.92,3.21-2.92
		C90.58,0.76,177.79,0.75,265,0.75z"/>
	<path class="st2" d="M190,384.75c6.55-2.18,11.98-5.62,14.49-12.52c0.57-1.56,2.15-0.95,3.31-1.03c16.21-1.09,32.34-2.8,48.14-6.76
		c16.48-4.13,32.23-9.92,44.89-21.85c4.26-4.02,8.12-8.48,11.98-12.89c3.59-4.11,1.6-9.39-4.14-10.7
		c-9.76-2.24-15.56-8.38-18.27-17.79c-1.29-4.47-1.95-9.02-2.14-13.65c-0.66-16.18,1.54-32.16,3.36-48.17
		c0.76-6.7,1.7-13.38,2.29-20.09c0.2-2.26,1.29-2.81,3.16-3.23c41.61-9.27,69.12-34.27,82.88-74.52c2.19-6.4,3.29-13.05,4.24-19.72
		c0.09-0.67-0.21-1.56,0.81-1.84c0,87.18-0.01,174.36,0.07,261.54c0,2.63-0.44,3.3-3.22,3.29C317.9,384.73,253.95,384.75,190,384.75
		z"/>
	<path class="st1" d="M385,100.5c-0.95-4.93-1.8-9.89-2.88-14.79c-9.75-44.29-46.57-78.04-91.61-84.09c-1.5-0.2-3.22,0.5-4.51-0.87
		c32.06,0,64.13,0.03,96.19-0.06c2.34-0.01,2.87,0.53,2.87,2.87C384.97,35.87,385,68.19,385,100.5z"/>
	<path class="st0" d="M385,114c-1.21-3-1.22-6,0-9C385,108,385,111,385,114z"/>
	<path class="st1" d="M103.48,133.2c0.34,0.29,0.7,0.48,0.89,0.77c11.86,18.22,29.29,25.93,50.39,26.61
		c7.74,0.25,15.48,0.36,23.23,0.44c1.65,0.02,2.77,0.41,3.6,1.96c3.28,6.06,7.25,11.66,11.83,16.79c1.51,1.69,0.98,2.57-0.37,3.9
		c-9.41,9.32-18.75,18.7-28.11,28.07c-0.79,0.8-1.63,1.56-2.33,2.44c-2.18,2.74-2.09,6.18,0.15,8.51c2.35,2.45,6.07,2.71,8.79,0.36
		c2.36-2.04,4.49-4.34,6.69-6.55c7.87-7.86,15.76-15.69,23.56-23.62c1.55-1.57,2.49-2.09,4.46-0.35c6.01,5.3,12.7,9.66,19.81,13.36
		c1.21,0.63,2.36,1.03,2.32,2.89c-0.7,27.47-4.44,54.2-18.8,78.39c-7.62,12.83-17.18,23.63-31.4,29.34
		c-22.82,9.17-47.95,2.32-63.98-17.39c-13.25-16.29-20.54-35.24-23.86-55.72c-3.83-23.65-4.49-47.48-2.29-71.33
		c1.09-11.77,4.25-23.03,10.78-33.11C100.18,136.92,101.56,134.87,103.48,133.2z M192.86,231.12c-3.5,0.09-6.34,3.13-6.21,6.65
		c0.13,3.59,3.04,6.25,6.68,6.09c3.42-0.15,6.07-2.94,6.05-6.37C199.34,233.99,196.32,231.03,192.86,231.12z M116.21,256.77
		c0.02-3.51-2.92-6.38-6.49-6.35c-3.47,0.03-6.15,2.66-6.24,6.13c-0.1,3.58,2.69,6.55,6.21,6.62
		C113.15,263.24,116.19,260.24,116.21,256.77z M186.53,256.9c0.08-3.62-2.67-6.45-6.28-6.47c-3.57-0.02-6.49,2.86-6.46,6.37
		c0.03,3.32,2.84,6.22,6.17,6.37C183.43,263.33,186.45,260.44,186.53,256.9z M212.19,256.56c-0.11-3.53-3.09-6.27-6.68-6.13
		c-3.6,0.14-6.22,3.06-6.02,6.71c0.19,3.41,3.05,6.1,6.41,6.04C209.39,263.1,212.3,260.04,212.19,256.56z M141.84,256.8
		c0.04-3.47-2.93-6.4-6.48-6.38c-3.51,0.02-6.15,2.59-6.26,6.09c-0.11,3.62,2.62,6.57,6.16,6.65
		C138.7,263.25,141.8,260.25,141.84,256.8z M122.67,243.86c3.54-0.03,6.46-3.02,6.35-6.49c-0.1-3.31-2.99-6.18-6.3-6.26
		c-3.5-0.08-6.43,2.82-6.44,6.39C116.27,241.16,119.02,243.9,122.67,243.86z"/>
	<path class="st1" d="M172,78.15c-6.86,23.6-6.02,46.64,2.5,69.87c-12.68-0.44-25.05,1-37.01-3.26
		c-11.79-4.2-20.25-11.97-25.39-23.38c-2.76-6.13-6.79-7.06-12.02-2.78c-12.44,10.2-18.93,23.86-22.51,39.15
		c-2.2,9.39-3.21,18.95-3.24,28.59c-0.01,2.2-0.15,3.21-3.06,2.82c-6.94-0.92-12.13,2.24-15.31,8.4
		c-5.73,11.06-6.47,40.4,7.84,54.66c4.24,4.22,9.06,7.5,14.72,9.3c2.37,0.75,3.28,2.02,3.94,4.25
		c5.05,17.13,13.59,32.34,25.59,45.58c1.15,1.26,1.78,2.48,1.77,4.27c-0.08,13.37-0.05,26.74-0.04,40.11c0,1.5,0.33,2.88-2.17,2.68
		c-20.32-1.59-40.46-4.16-59.78-11.1c-9.96-3.58-19.11-8.51-26.53-16.29c-1.74-1.82-2.18-2.65,0.47-4.18
		c11.26-6.52,15.65-17.34,17.44-29.48c2.39-16.23,0.65-32.41-1.12-48.56c-2.64-24.07-6.41-48.06-6.13-72.37
		c0.14-11.76,1.21-23.42,4.92-34.71c8.71-26.49,27.38-41.11,54.44-45.69c6.16-1.04,12.4-1.52,18.66-1.33
		c2.48,0.08,4.64-0.74,6.77-1.81c16.83-8.4,34.7-13.06,53.38-14.75C170.62,78.12,171.12,78.15,172,78.15z"/>
	<path class="st3" d="M180.23,109.48c0.03-52.97,43.07-95.99,96.02-95.95c52.96,0.04,96.01,43.14,95.97,96.06
		c-0.04,52.91-43.18,95.96-96.11,95.93C223.13,205.5,180.2,162.5,180.23,109.48z M275.8,192.75c45.94,0.14,83.41-36.98,83.56-82.75
		c0.14-45.87-36.98-83.33-82.78-83.56c-45.76-0.23-83.44,37.11-83.53,82.79C192.94,155.18,230.04,192.61,275.8,192.75z"/>
	<path class="st1" d="M205.78,335.47c0-6.62,0.06-13.24-0.04-19.86c-0.02-1.75,0.49-3.01,1.66-4.3
		c12.09-13.33,20.66-28.64,25.64-45.94c0.45-1.57,0.88-2.89,2.79-3.49c16.76-5.32,24.44-17.84,26.89-34.37
		c0.47-3.19-0.48-7.64,1.29-9.28c1.64-1.53,6.05-0.08,9.23,0.05c0.75,0.03,1.5,0.01,2.25,0.01c5.88-0.02,5.75-0.04,5.03,5.95
		c-2.58,21.18-6,42.3-5.01,63.75c0.38,8.27,1.73,16.36,5.21,23.97c2.94,6.41,7.21,11.73,13.48,15.07c2.73,1.46,1.8,2.31,0.32,3.89
		c-9.01,9.62-20.55,14.77-32.82,18.51c-17.39,5.3-35.31,7.6-53.38,8.97c-2.38,0.18-2.6-0.75-2.57-2.68
		C205.83,348.96,205.78,342.22,205.78,335.47z"/>
	<path class="st1" d="M192.99,323.56c0,14.32,0.05,28.05-0.03,41.78c-0.02,3.98-2.62,6.58-6.63,6.59c-18.98,0.08-37.96,0.08-56.94,0
		c-4.35-0.02-6.79-2.66-6.8-7.21c-0.06-13.48-0.02-26.97-0.02-41.03C146,336.46,169.29,336.57,192.99,323.56z"/>
	<path class="st4" d="M77.99,247.15c-4.96-2.83-7.84-6.6-9.71-11.15c-4.03-9.78-4.2-19.89-1.92-30.05c1-4.46,3.11-5.19,6.68-2.98
		c0.83,0.51,1.31,1.03,1.31,2.02C74.37,218.93,75.76,232.77,77.99,247.15z"/>
	<path class="st4" d="M237.66,247.34c1.34-8.97,2.42-17.1,2.99-25.29c0.05-0.75,0.14-1.49,0.18-2.23c0.47-8.13,0.51-8.15,8.16-5.12
		c0.8,0.32,1.65,0.53,1.64,1.69c-0.1,11.07-1.35,21.71-10.7,29.4C239.47,246.17,238.95,246.47,237.66,247.34z"/>
	<path class="st0" d="M192.86,231.12c3.46-0.09,6.48,2.87,6.51,6.37c0.03,3.42-2.63,6.22-6.05,6.37c-3.64,0.16-6.55-2.5-6.68-6.09
		C186.52,234.24,189.36,231.2,192.86,231.12z"/>
	<path class="st0" d="M116.21,256.77c-0.02,3.47-3.06,6.46-6.52,6.4c-3.52-0.06-6.31-3.04-6.21-6.62c0.09-3.47,2.77-6.09,6.24-6.13
		C113.29,250.39,116.23,253.27,116.21,256.77z"/>
	<path class="st0" d="M186.53,256.9c-0.08,3.54-3.1,6.43-6.57,6.27c-3.33-0.15-6.14-3.05-6.17-6.37c-0.03-3.51,2.89-6.39,6.46-6.37
		C183.86,250.45,186.6,253.27,186.53,256.9z"/>
	<path class="st0" d="M212.19,256.56c0.11,3.48-2.8,6.54-6.29,6.61c-3.36,0.07-6.22-2.62-6.41-6.04c-0.2-3.65,2.42-6.57,6.02-6.71
		C209.1,250.29,212.08,253.03,212.19,256.56z"/>
	<path class="st0" d="M141.84,256.8c-0.04,3.45-3.14,6.45-6.58,6.36c-3.54-0.09-6.27-3.03-6.16-6.65c0.1-3.5,2.74-6.07,6.26-6.09
		C138.91,250.41,141.88,253.33,141.84,256.8z"/>
	<path class="st0" d="M122.67,243.86c-3.65,0.03-6.4-2.71-6.38-6.36c0.01-3.57,2.94-6.47,6.44-6.39c3.31,0.08,6.2,2.95,6.3,6.26
		C129.13,240.85,126.21,243.83,122.67,243.86z"/>
	<path class="st0" d="M275.8,192.75c-45.76-0.13-82.86-37.57-82.76-83.52c0.1-45.68,37.77-83.01,83.53-82.79
		c45.81,0.23,82.93,37.69,82.78,83.56C359.22,155.77,321.74,192.88,275.8,192.75z M345.35,122.31c-4.27,0-8.26,0.01-12.24,0
		c-13.32-0.03-24.5-5-33.6-14.68c-13.7-14.58-32.93-14.6-46.61,0.05c-6.59,7.05-14.58,11.6-23.96,13.72
		c-6.16,1.39-12.43,0.93-18.66,0.86c-2.69-0.03-3.28,0.47-2.61,3.3c12.1,51.2,74.05,71.67,114.09,37.57
		C334.32,152.41,342.12,138.83,345.35,122.31z M211.11,83.86c10.34,0.48,10.29,0.43,17.65-6.45c12.6-11.79,27.51-18.33,44.8-18.89
		c21.16-0.69,38.97,6.93,53.44,22.36c1.49,1.59,3.04,3.02,5.35,3.06c2.96,0.06,5.93,0.01,8.96,0.01
		c-6.95-20.87-30.43-44.63-64.85-44.77C242.64,39.03,218.47,62.14,211.11,83.86z M215.09,109.53c12.35,0.92,22.18-3.7,30.57-12.73
		c8-8.6,18.36-12.72,30.14-12.79c12.64-0.08,23.38,4.58,31.98,13.83c5.73,6.17,12.51,10.34,20.9,11.35
		c4.07,0.49,8.22,0.3,12.34,0.33c5.91,0.04,5.91,0.01,5.24-6.02c-0.75-6.75-0.78-7.13-7.51-6.65c-9.54,0.67-16.7-2.55-23.53-9.49
		c-21.48-21.84-56.91-21.71-78.3,0.2c-6.48,6.64-13.28,9.87-22.47,9.3c-7.74-0.48-7.76-0.1-8.5,7.71c-0.47,4.96-0.47,4.96,4.64,4.97
		C212.09,109.53,213.59,109.53,215.09,109.53z"/>
	<path class="st5" d="M345.35,122.31c-3.24,16.52-11.03,30.1-23.61,40.81c-40.04,34.1-101.98,13.63-114.09-37.57
		c-0.67-2.83-0.08-3.33,2.61-3.3c6.23,0.07,12.5,0.54,18.66-0.86c9.38-2.12,17.38-6.67,23.96-13.72
		c13.68-14.64,32.91-14.63,46.61-0.05c9.09,9.68,20.28,14.65,33.6,14.68C337.1,122.32,341.08,122.31,345.35,122.31z M275.14,147.89
		c8.97-0.02,15.83-1.76,20.43-5.07c4.2-3.03,7.07-6.89,5.92-12.39c-2.33-11.12-12.24-19.72-23.71-20.82
		c-9.99-0.95-21.18,6.26-25.45,16.41c-3.26,7.76-1.16,13.85,6.31,17.9C264.14,146.91,270.11,147.95,275.14,147.89z"/>
	<path class="st6" d="M211.11,83.86c7.36-21.72,31.53-44.83,65.34-44.69c34.42,0.14,57.91,23.9,64.85,44.77
		c-3.03,0-6,0.04-8.96-0.01c-2.31-0.05-3.86-1.48-5.35-3.06c-14.47-15.43-32.28-23.05-53.44-22.36c-17.29,0.56-32.2,7.1-44.8,18.89
		C221.41,84.29,221.45,84.34,211.11,83.86z"/>
	<path class="st6" d="M215.09,109.53c-1.5,0-3,0-4.5,0c-5.11,0-5.11,0-4.64-4.97c0.74-7.81,0.76-8.19,8.5-7.71
		c9.18,0.57,15.99-2.66,22.47-9.3c21.39-21.9,56.82-22.03,78.3-0.2c6.83,6.94,13.99,10.16,23.53,9.49c6.73-0.47,6.76-0.09,7.51,6.65
		c0.67,6.03,0.67,6.06-5.24,6.02c-4.12-0.03-8.27,0.16-12.34-0.33c-8.39-1.02-15.16-5.18-20.9-11.35
		c-8.6-9.25-19.33-13.91-31.98-13.83c-11.78,0.08-22.14,4.19-30.14,12.79C237.27,105.82,227.43,110.45,215.09,109.53z"/>
	<path class="st0" d="M275.14,147.89c-5.02,0.06-11-0.98-16.51-3.97c-7.46-4.05-9.57-10.14-6.31-17.9
		c4.27-10.15,15.46-17.36,25.45-16.41c11.47,1.1,21.38,9.7,23.71,20.82c1.15,5.5-1.72,9.36-5.92,12.39
		C290.97,146.13,284.11,147.87,275.14,147.89z M276.4,135.06c3.86,0.43,7.53-0.44,10.98-2.44c1.29-0.75,1.79-1.44,0.79-2.87
		c-2.94-4.22-6.9-7.23-11.98-7.24c-5.11-0.01-9.04,3.04-11.82,7.4c-0.85,1.34-0.66,2.08,0.79,2.84
		C268.67,134.6,272.36,135.4,276.4,135.06z"/>
	<path class="st7" d="M276.4,135.06c-4.04,0.34-7.73-0.46-11.24-2.32c-1.45-0.76-1.64-1.5-0.79-2.84c2.78-4.36,6.71-7.4,11.82-7.4
		c5.08,0.01,9.04,3.02,11.98,7.24c1,1.43,0.51,2.12-0.79,2.87C283.94,134.62,280.26,135.49,276.4,135.06z"/>
</g>
</svg>
