<?xml version="1.0" encoding="utf-8"?>
<!-- Generator: Adobe Illustrator 23.0.0, SVG Export Plug-In . SVG Version: 6.00 Build 0)  -->
<svg version="1.1" id="Layer_1" xmlns="http://www.w3.org/2000/svg" xmlns:xlink="http://www.w3.org/1999/xlink" x="0px" y="0px"
	 viewBox="0 0 384.88 384.14" style="enable-background:new 0 0 384.88 384.14;" xml:space="preserve">
<style type="text/css">
	.st0{fill:#F2A09D;}
</style>
<g>
	<path class="st0" d="M129.82,384.07c-2.57-2.27-3.27-5.07-3.24-8.49c0.14-20.62,0.07-41.23,0.07-61.85c0-14.53-2.67-28.82-4-43.23
		c-0.7-7.58-1.72-15.13-2.48-22.71c-0.42-4.17,1.44-6.76,4.83-7.11c3.63-0.38,5.91,1.81,6.38,6.13c1.79,16.38,3.65,32.76,5.32,49.15
		c0.32,3.09,1.18,4.23,4.62,4.21c34.49-0.16,68.97-0.14,103.46-0.03c2.79,0.01,3.78-0.7,4.08-3.51c2.49-23.72,5.12-47.42,7.72-71.12
		c2.63-23.95,5.28-47.9,7.92-71.85c1.79-16.26,3.57-32.52,5.42-48.77c0.51-4.46,2.84-6.59,6.36-6.13c3.51,0.46,5.25,3.3,4.78,7.55
		c-3.45,31.27-6.86,62.55-10.31,93.82c-3.38,30.65-6.73,61.31-10.24,91.95c-1.22,10.7-1.61,21.4-1.54,32.15
		c0.12,17.12-0.05,34.24,0.1,51.35c0.03,3.42-0.69,6.22-3.24,8.49c-7.25,0-14.5,0-21.75,0c-2.46-1.88-4.63-3.92-3.35-7.44
		c1.26-3.44,4.09-3.97,7.31-3.84c2.49,0.1,5-0.11,7.49,0.06c1.9,0.13,2.27-0.62,2.25-2.35c-0.09-6.74-0.1-13.48,0-20.23
		c0.03-1.89-0.44-2.61-2.47-2.57c-6.62,0.12-13.23,0.09-19.85,0.01c-1.61-0.02-2.38,0.58-3.09,2c-3.47,6.95-9.31,10.13-16.95,10.16
		c-8.37,0.04-16.73,0.03-25.1,0c-7.64-0.02-13.52-3.16-16.99-10.1c-0.82-1.64-1.76-2.08-3.43-2.06c-6.37,0.07-12.74,0.12-19.1-0.02
		c-2.25-0.05-3.01,0.49-2.95,2.87c0.17,6.36,0.21,12.74-0.01,19.1c-0.1,2.72,0.78,3.22,3.32,3.21c19.85-0.11,39.7-0.06,59.56-0.06
		c3,0,6-0.12,8.99,0.04c4.34,0.23,6.9,4.2,5.09,7.86c-0.61,1.23-1.64,2.24-2.48,3.36C184.82,384.07,157.32,384.07,129.82,384.07z
		 M193.22,311.33c-17.48,0-34.96,0-52.44,0.01c-1.4,0-2.98-0.54-2.92,2.02c0.15,6.99,0.11,13.99,0.01,20.98
		c-0.03,2,0.94,2.19,2.53,2.17c6.49-0.05,12.99-0.07,19.48,0.01c1.71,0.02,2.6-0.48,3.4-2.1c3.29-6.65,8.89-9.99,16.22-10.12
		c8.86-0.16,17.73-0.15,26.6,0c7.33,0.12,12.93,3.42,16.24,10.08c0.78,1.58,1.63,2.17,3.38,2.15c6.37-0.1,12.74-0.13,19.1,0.01
		c2.26,0.05,3.03-0.53,2.97-2.9c-0.16-6.36-0.19-12.74,0.01-19.1c0.08-2.62-0.63-3.29-3.26-3.27
		C227.44,311.39,210.33,311.33,193.22,311.33z M192.77,348.65c4.24,0,8.48,0.07,12.71-0.02c4.58-0.09,7.53-2.75,7.5-6.59
		c-0.03-3.73-2.84-6.44-7.21-6.5c-8.6-0.12-17.2-0.11-25.79-0.01c-4.38,0.05-7.22,2.7-7.32,6.4c-0.1,3.81,2.89,6.59,7.4,6.69
		C184.29,348.72,188.53,348.65,192.77,348.65z"/>
	<path class="st0" d="M285.82,0.07c2.71,1.97,3.55,4.58,3.69,7.96c0.89,21.72-2.66,43.08-4.79,64.56c-0.19,1.86-0.3,3.74-0.58,5.59
		c-0.57,3.7-3.15,5.97-6.25,5.62c-3.23-0.36-5.27-2.9-4.9-6.73c1.06-10.81,2.29-21.6,3.46-32.4c0.26-2.36,0.41-4.73,0.82-7.07
		c0.32-1.84-0.5-2.2-2.03-2.09c-0.62,0.04-1.25,0.01-1.87,0.01c-53.73,0-107.46,0.03-161.19-0.07c-3.35-0.01-4,0.62-3.61,4.09
		c5,44.42,9.78,88.86,14.64,133.29c1.62,14.77,3.32,29.53,4.97,44.29c0.07,0.62,0.12,1.25,0.14,1.87c0.13,3.77-1.82,6.37-5.02,6.71
		c-3.09,0.33-5.78-2.06-6.19-5.67c-1.05-9.3-2.03-18.62-3.06-27.93c-2.63-23.95-5.28-47.9-7.92-71.85
		c-2.62-23.83-5.05-47.68-7.9-71.48C96.62,35.21,96,21.66,96.14,8.03c0.04-3.39,0.91-6.02,3.68-7.96
		C161.82,0.07,223.82,0.07,285.82,0.07z M192.43,24.25c25.48,0,50.95,0.02,76.43-0.02c2.97,0,6.79,1.27,8.68-0.53
		c1.92-1.82,0.25-5.7,0.66-8.63c0.46-3.23-0.84-3.82-3.88-3.81c-52.58,0.1-105.15,0.06-157.73,0.1c-2.95,0-6.96-1.36-8.56,0.62
		c-1.49,1.85-0.3,5.72-0.62,8.67c-0.33,3.02,0.8,3.69,3.7,3.68C138.23,24.21,165.33,24.25,192.43,24.25z"/>
	<path class="st0" d="M161.97,101.47c4.64-0.34,9.26-0.04,13.76,1.05c1.88,0.45,2.69-0.11,3.43-1.72c2.3-5.01,5.32-9.6,8.78-13.88
		c3.05-3.77,6.66-3.79,9.72-0.07c3.33,4.06,6.21,8.46,8.47,13.2c1,2.1,1.84,2.91,4.43,2.33c6.87-1.54,13.9-1.4,20.9-0.91
		c4.15,0.29,6.39,2.64,6.12,6.52c-0.63,9-2.17,17.83-6.06,26.09c-7.24,15.39-19.76,20.39-35.5,14c-2.28-0.92-4.09-0.9-6.35-0.02
		c-16.25,6.37-28.62,1.29-35.85-14.6c-3.67-8.07-5.15-16.65-5.77-25.4c-0.27-3.78,1.82-6.16,5.68-6.53
		C156.46,101.26,159.22,101.47,161.97,101.47z M192.81,99.37c-4,6.42-7.08,12.56-7.9,19.64c-0.68,5.83,1.51,10.44,5.88,14.19
		c1.32,1.13,2.39,1.42,3.87,0.17c4.4-3.72,6.71-8.27,6.09-14.11C200,112.15,196.93,105.94,192.81,99.37z M205.04,139.17
		c6.59,1,10.94-1.1,14.11-5.98c3.75-5.78,5.24-12.33,6.53-18.95c0.34-1.74-0.6-1.81-1.86-1.78c-3.5,0.06-6.98,0.18-10.45,0.75
		c-1.68,0.28-2.09,0.92-1.81,2.43C213.17,124.26,211.09,131.94,205.04,139.17z M165,112.53c0-0.02,0-0.04,0-0.06
		c-1.25,0-2.5,0.04-3.75-0.01c-1.21-0.05-1.51,0.52-1.3,1.6c1.36,7.26,2.97,14.44,7.53,20.51c2.58,3.43,6.09,5.07,10.39,4.91
		c0.69-0.03,1.64,0.23,2-0.59c0.37-0.83-0.53-1.3-0.95-1.84c-3.74-4.83-5.19-10.36-5.49-16.39c-0.12-2.42,2.4-5.5-0.35-7.09
		c-2.07-1.2-5.1-0.75-7.71-1.03C165.25,112.52,165.12,112.53,165,112.53z"/>
	<path class="st0" d="M193.2,171.2c13.12,0,26.24-0.01,39.37,0c6.62,0,8.28,1.64,8.29,8.09c0.01,6.87,0.03,13.75-0.01,20.62
		c-0.03,4.85-1.95,6.89-6.79,6.9c-27.49,0.04-54.99,0.04-82.48,0c-4.84-0.01-6.75-2.05-6.77-6.91c-0.03-6.75-0.01-13.5-0.01-20.25
		c0-6.84,1.57-8.44,8.3-8.45C166.46,171.2,179.83,171.2,193.2,171.2z M192.79,182.45c-8.99,0-17.98-0.06-26.96,0.03
		c-3.19,0.03-7.45-1.41-9.28,0.69c-1.57,1.8-0.25,5.96-0.57,9.04c-0.31,2.94,0.84,3.45,3.54,3.44c20.1-0.11,40.2-0.03,60.29-0.09
		c3.2-0.01,7.58,1.44,9.27-0.69c1.6-2.02,0.3-6.22,0.57-9.44c0.22-2.59-0.82-3.05-3.16-3.03
		C215.26,182.51,204.03,182.45,192.79,182.45z"/>
	<path class="st0" d="M192.62,237.85c-6.99,0-13.98,0.02-20.97-0.01c-4.6-0.02-7.29-2.18-7.21-5.73c0.07-3.42,2.69-5.51,7.05-5.52
		c14.23-0.02,28.46-0.02,42.69,0c4.35,0.01,6.97,2.11,7.03,5.54c0.06,3.44-2.57,5.68-6.87,5.7
		C207.1,237.88,199.86,237.85,192.62,237.85z"/>
	<path class="st0" d="M192.5,262.02c-4.74,0-9.48,0.05-14.22-0.02c-3.77-0.05-6.23-2.27-6.26-5.48c-0.03-3.15,2.42-5.66,6.14-5.71
		c9.73-0.12,19.46-0.12,29.18-0.01c3.76,0.04,6.22,2.45,6.27,5.6c0.05,3.31-2.51,5.56-6.52,5.61
		C202.23,262.06,197.37,262.02,192.5,262.02z"/>
</g>
</svg>
