<?xml version="1.0" encoding="utf-8"?>
<!-- Generator: Adobe Illustrator 23.0.0, SVG Export Plug-In . SVG Version: 6.00 Build 0)  -->
<svg version="1.1" id="Layer_1" xmlns="http://www.w3.org/2000/svg" xmlns:xlink="http://www.w3.org/1999/xlink" x="0px" y="0px"
	 viewBox="0 0 384.91 384.15" style="enable-background:new 0 0 384.91 384.15;" xml:space="preserve">
<style type="text/css">
	.st0{fill:#FDFDFD;}
	.st1{fill:#F2A09D;}
	.st2{fill:#FCFCFC;}
	.st3{fill:#F5F5F5;}
	.st4{fill:#F9F9F9;}
	.st5{fill:#F8F8F8;}
</style>
<g>
	<path class="st0" d="M264.1,384.09c-36.25,0-72.5,0-108.75,0c2.19-1.74,4.71-3.15,5.28-6.3c1.02-5.66-2.71-9.62-9.31-9.62
		c-36.24-0.02-72.48,0.01-108.73-0.02c-15.64-0.02-25.79-10.17-25.79-25.82c-0.02-100.23-0.02-200.46,0-300.68
		c0-15.39,10.22-25.58,25.64-25.59c62.99-0.03,125.97-0.01,188.96-0.01c3.4,0,6.72,0.42,9.92,1.62c9.93,3.73,15.46,12.44,15.46,24.5
		c0.01,46.74,0,93.48,0.02,140.22c0,6.02,3.11,9.69,8.04,9.7c4.94,0.01,8.06-3.65,8.06-9.68c0.02-47.11,0.09-94.23-0.03-141.34
		c-0.04-18.52-10.9-33.42-27.74-39.04c-2.16-0.72-4.6-0.47-6.53-1.92c47.71,0,95.42,0.03,143.12-0.09c2.86-0.01,3.19,0.78,3.19,3.33
		c-0.07,90.42-0.06,180.84-0.06,271.26c-2.47-7.73-5.88-14.89-11.73-20.75c-8.16-8.19-17.81-14.08-28.48-18.22
		c-35.36-13.71-71.55-14.68-108.18-6.26c-16.19,3.72-31.35,10-44.15,20.99c-9.39,8.06-15.53,17.93-15.6,30.69
		c-0.08,15.12,0.1,30.24,0.19,45.35c0.02,2.74,0.02,5.48,0.62,8.2c2.39,10.98,9.08,19.03,17.7,25.62
		c16.51,12.63,35.77,18.25,55.89,21.7C255.45,382.63,259.98,382.16,264.1,384.09z M128.91,191.95c0,44.35,0,88.71,0.01,133.06
		c0,1.5-0.06,3.02,0.16,4.49c0.73,4.83,5.87,7.76,10.46,6.04c3.72-1.4,5.3-4.15,5.3-9.32c0-89.46,0-178.91,0-268.37
		c0-6-3.06-9.71-7.95-9.75c-4.93-0.03-7.93,3.6-7.98,9.66c-0.01,0.87,0,1.75,0,2.62C128.91,104.24,128.91,148.09,128.91,191.95z
		 M72.99,96.08c13.21-0.06,23.95-10.97,23.85-24.24c-0.1-13.07-10.86-23.74-23.95-23.75c-13.25-0.02-24.05,10.79-24.03,24.04
		C48.87,85.36,59.74,96.14,72.99,96.08z M96.84,312.12c0.01-13.25-10.8-24.05-24.05-24.03c-13.08,0.02-23.84,10.71-23.93,23.77
		c-0.09,13.26,10.65,24.17,23.86,24.22C85.97,336.14,96.83,325.35,96.84,312.12z M72.91,256.01c13.31-0.03,24-10.79,23.93-24.08
		c-0.07-13.04-10.8-23.78-23.87-23.88c-13.13-0.11-24.11,10.82-24.12,24.01C48.84,245.32,59.6,256.04,72.91,256.01z M201.05,48.09
		c-13.33-0.08-24.07,10.56-24.12,23.88c-0.05,13.33,10.64,24.11,23.9,24.11c13.19,0.01,24.12-10.93,24.06-24.08
		C224.82,58.95,214.07,48.17,201.05,48.09z M96.85,151.95c-0.05-13.25-10.89-23.89-24.23-23.78c-13.15,0.1-23.75,10.74-23.77,23.86
		c-0.02,13.19,10.9,24.14,24.04,24.1C86.08,176.08,96.9,165.16,96.85,151.95z M176.93,152.25c0.07,13.27,11.03,24.1,24.17,23.88
		c13.07-0.21,23.76-11.01,23.79-24.02c0.03-13.21-10.82-23.99-24.11-23.95C187.43,128.19,176.86,138.87,176.93,152.25z"/>
	<path class="st1" d="M238.6,0.09c1.93,1.45,4.37,1.2,6.53,1.92c16.84,5.61,27.7,20.51,27.74,39.04
		c0.11,47.11,0.05,94.23,0.03,141.34c0,6.02-3.13,9.68-8.06,9.68c-4.93-0.01-8.04-3.68-8.04-9.7c-0.02-46.74,0-93.48-0.02-140.22
		c0-12.06-5.53-20.78-15.46-24.5c-3.2-1.2-6.53-1.62-9.92-1.62c-62.99,0-125.97-0.02-188.96,0.01C27.02,16.05,16.8,26.24,16.8,41.63
		c-0.03,100.23-0.02,200.46,0,300.68c0,15.65,10.15,25.81,25.79,25.82c36.24,0.04,72.48,0,108.73,0.02c6.6,0,10.33,3.97,9.31,9.62
		c-0.57,3.16-3.09,4.57-5.28,6.3c-40.5,0-81,0-121.5,0c-0.11-0.6-0.58-0.67-1.07-0.82c-22.12-6.81-31.93-20.12-31.93-43.26
		c0-87.99,0-175.97,0-263.96c0-12.25-0.24-24.5,0.09-36.74C1.32,24.93,7.9,13.88,19.98,6.01c4.52-2.95,9.75-3.94,14.62-5.92
		C102.6,0.09,170.6,0.09,238.6,0.09z"/>
	<path class="st1" d="M264.1,384.09c-4.12-1.93-8.65-1.45-12.97-2.19c-20.12-3.45-39.39-9.07-55.89-21.7
		c-8.61-6.59-15.31-14.64-17.7-25.62c-0.59-2.72-0.6-5.46-0.62-8.2c-0.09-15.12-0.27-30.24-0.19-45.35
		c0.07-12.76,6.2-22.63,15.6-30.69c12.8-10.98,27.95-17.27,44.15-20.99c36.62-8.41,72.82-7.45,108.18,6.26
		c10.67,4.14,20.32,10.03,28.48,18.22c5.84,5.87,9.26,13.02,11.73,20.75c0,19.75,0,39.5,0,59.25c-0.19,0.14-0.52,0.25-0.56,0.42
		c-2.86,12.72-11.06,21.5-21.39,28.56c-15.84,10.83-33.77,15.98-52.46,19.08c-4.94,0.82-10.03,0.57-14.84,2.19
		C285.1,384.09,274.6,384.09,264.1,384.09z M279.9,320.15c14.98-0.18,29.01-1.47,42.72-5.13c13.97-3.73,27.37-8.77,38.06-19.01
		c10.84-10.38,10.78-21.37,0.03-31.85c-7.29-7.11-16.1-11.79-25.6-15.06c-35.03-12.03-70.29-12.19-105.53-1.05
		c-11.87,3.75-22.95,9.27-31.26,19c-7.35,8.61-7.29,17.37-0.03,26.03c4.73,5.65,10.69,9.71,17.18,13.04
		C235.96,316.65,258.06,319.71,279.9,320.15z M192.85,310.51c0,5.05,0.26,9.55-0.06,14.01c-0.57,8.03,2.73,14.27,8.31,19.61
		c6.98,6.67,15.28,11.22,24.25,14.45c33.36,12.03,67.19,12.49,101.22,3.28c12.74-3.45,24.69-8.75,34.38-18.11
		c4.03-3.89,7.36-8.39,7.7-14.15c0.36-6.16,0.08-12.35,0.08-18.71C326.39,345.93,231.59,343,192.85,310.51z"/>
	<path class="st2" d="M295.6,384.09c4.81-1.62,9.9-1.37,14.84-2.19c18.69-3.1,36.63-8.25,52.46-19.08
		c10.33-7.06,18.53-15.84,21.39-28.56c0.04-0.17,0.36-0.28,0.56-0.42c0,15.88-0.06,31.75,0.06,47.62c0.02,2.24-0.45,2.7-2.69,2.69
		C353.35,384.05,324.47,384.09,295.6,384.09z"/>
	<path class="st2" d="M34.6,0.09C29.73,2.07,24.5,3.07,19.98,6.01C7.9,13.88,1.32,24.93,0.94,39.31C0.61,51.55,0.85,63.8,0.85,76.05
		c0,87.99,0,175.97,0,263.96c0,23.14,9.82,36.45,31.93,43.26c0.49,0.15,0.96,0.22,1.07,0.82c-10.63,0-21.25-0.05-31.87,0.05
		c-1.61,0.01-2.21-0.31-1.89-1.93c0.1-0.48,0.01-1,0.01-1.5c0-125.75,0.01-251.5-0.07-377.25c0-2.81,0.63-3.51,3.45-3.45
		C13.85,0.2,24.22,0.09,34.6,0.09z"/>
	<path class="st1" d="M128.91,191.95c0-43.85,0-87.71,0-131.56c0-0.87-0.01-1.75,0-2.62c0.05-6.06,3.06-9.69,7.98-9.66
		c4.89,0.03,7.95,3.75,7.95,9.75c0.01,89.46,0.01,178.91,0,268.37c0,5.17-1.59,7.92-5.3,9.32c-4.59,1.72-9.73-1.21-10.46-6.04
		c-0.22-1.47-0.16-2.99-0.16-4.49C128.91,280.65,128.91,236.3,128.91,191.95z"/>
	<path class="st1" d="M72.99,96.08c-13.25,0.06-24.12-10.72-24.14-23.95c-0.02-13.25,10.78-24.06,24.03-24.04
		c13.09,0.02,23.85,10.69,23.95,23.75C96.94,85.11,86.2,96.02,72.99,96.08z M72.66,64.06c-4.24,0.12-7.83,3.8-7.84,8.02
		c0,4.36,3.87,8.15,8.2,8.03c4.37-0.12,8.07-4.09,7.83-8.39C80.62,67.47,76.85,63.94,72.66,64.06z"/>
	<path class="st1" d="M96.84,312.12c-0.01,13.23-10.87,24.02-24.12,23.96c-13.21-0.05-23.95-10.96-23.86-24.22
		c0.09-13.06,10.85-23.74,23.93-23.77C86.04,288.07,96.85,298.86,96.84,312.12z M72.68,304.06c-4.23,0.1-7.84,3.77-7.86,8
		c-0.02,4.36,3.85,8.16,8.18,8.05c4.37-0.11,8.08-4.06,7.86-8.37C80.64,307.49,76.87,303.96,72.68,304.06z"/>
	<path class="st1" d="M72.91,256.01c-13.31,0.03-24.07-10.69-24.06-23.95c0.01-13.19,10.99-24.12,24.12-24.01
		c13.07,0.11,23.8,10.84,23.87,23.88C96.91,245.21,86.22,255.97,72.91,256.01z M72.97,224.19c-4.49-0.06-8.2,3.57-8.15,7.97
		c0.05,4.24,3.64,7.84,7.9,7.92c4.4,0.07,8.18-3.65,8.15-8.04C80.84,227.76,77.3,224.24,72.97,224.19z"/>
	<path class="st1" d="M201.05,48.09c13.02,0.07,23.77,10.86,23.84,23.91c0.07,13.15-10.86,24.09-24.06,24.08
		c-13.26-0.01-23.95-10.79-23.9-24.11C176.98,58.65,187.72,48.02,201.05,48.09z M208.74,72.14c0.03-4.49-3.63-8.17-8.04-8.08
		c-4.26,0.09-7.81,3.69-7.84,7.96c-0.03,4.42,3.71,8.16,8.1,8.08C205.26,80.02,208.72,76.48,208.74,72.14z"/>
	<path class="st1" d="M96.85,151.95c0.05,13.21-10.77,24.13-23.96,24.18c-13.14,0.04-24.06-10.91-24.04-24.1
		c0.02-13.12,10.62-23.76,23.77-23.86C85.96,128.06,96.79,138.7,96.85,151.95z M72.97,159.98c4.32-0.06,7.86-3.58,7.9-7.85
		c0.03-4.39-3.74-8.1-8.15-8.03c-4.26,0.07-7.85,3.67-7.9,7.91C64.77,156.42,68.48,160.04,72.97,159.98z"/>
	<path class="st1" d="M176.93,152.25c-0.07-13.38,10.5-24.06,23.85-24.09c13.29-0.03,24.14,10.75,24.11,23.95
		c-0.03,13.01-10.72,23.81-23.79,24.02C187.96,176.34,177,165.52,176.93,152.25z M200.98,159.98c4.41-0.06,7.75-3.44,7.77-7.86
		c0.02-4.5-3.6-8.11-8.05-8.03c-4.26,0.08-7.81,3.68-7.84,7.94C192.83,156.49,196.47,160.05,200.98,159.98z"/>
	<path class="st0" d="M279.9,320.15c-21.83-0.44-43.93-3.49-64.43-14.01c-6.49-3.33-12.45-7.4-17.18-13.04
		c-7.25-8.67-7.32-17.42,0.03-26.03c8.31-9.73,19.39-15.25,31.26-19c35.24-11.14,70.5-10.99,105.53,1.05
		c9.49,3.26,18.31,7.95,25.6,15.06c10.75,10.48,10.81,21.47-0.03,31.85c-10.69,10.23-24.09,15.28-38.06,19.01
		C308.91,318.68,294.88,319.97,279.9,320.15z"/>
	<path class="st2" d="M192.85,310.51c38.74,32.49,133.54,35.42,175.9,0.38c0,6.36,0.28,12.55-0.08,18.71
		c-0.34,5.77-3.68,10.26-7.7,14.15c-9.69,9.36-21.64,14.66-34.38,18.11c-34.03,9.2-67.86,8.74-101.22-3.28
		c-8.97-3.23-17.28-7.77-24.25-14.45c-5.58-5.34-8.88-11.58-8.31-19.61C193.11,320.06,192.85,315.57,192.85,310.51z"/>
	<path class="st3" d="M72.66,64.06c4.18-0.12,7.96,3.41,8.19,7.66c0.24,4.31-3.46,8.27-7.83,8.39c-4.33,0.12-8.2-3.68-8.2-8.03
		C64.83,67.86,68.43,64.18,72.66,64.06z"/>
	<path class="st3" d="M72.68,304.06c4.19-0.1,7.95,3.43,8.17,7.68c0.22,4.31-3.49,8.26-7.86,8.37c-4.33,0.11-8.2-3.7-8.18-8.05
		C64.84,307.83,68.45,304.16,72.68,304.06z"/>
	<path class="st4" d="M72.97,224.19c4.33,0.06,7.87,3.57,7.9,7.85c0.03,4.39-3.74,8.11-8.15,8.04c-4.26-0.07-7.85-3.67-7.9-7.92
		C64.77,227.76,68.48,224.13,72.97,224.19z"/>
	<path class="st4" d="M208.74,72.14c-0.03,4.34-3.49,7.88-7.78,7.96c-4.38,0.08-8.13-3.66-8.1-8.08c0.03-4.27,3.58-7.88,7.84-7.96
		C205.11,63.97,208.77,67.65,208.74,72.14z"/>
	<path class="st4" d="M72.97,159.98c-4.49,0.06-8.2-3.57-8.15-7.97c0.05-4.24,3.64-7.84,7.9-7.91c4.41-0.07,8.18,3.64,8.15,8.03
		C80.83,156.41,77.29,159.93,72.97,159.98z"/>
	<path class="st5" d="M200.98,159.98c-4.51,0.07-8.15-3.5-8.12-7.95c0.03-4.26,3.58-7.86,7.84-7.94c4.45-0.08,8.07,3.52,8.05,8.03
		C208.73,156.54,205.39,159.92,200.98,159.98z"/>
</g>
</svg>
